<?xml version="1.0" encoding="UTF-8"?>
<svg id="_레이어_1" data-name="레이어 1" xmlns="http://www.w3.org/2000/svg" viewBox="0 0 930.7 489.18">
  <defs>
    <style>
      .cls-1 {
        fill: #2c281c;
      }

      .cls-1, .cls-2, .cls-3, .cls-4, .cls-5, .cls-6, .cls-7, .cls-8, .cls-9, .cls-10, .cls-11, .cls-12, .cls-13, .cls-14, .cls-15, .cls-16, .cls-17, .cls-18 {
        stroke-width: 0px;
      }

      .cls-2 {
        fill: #f2c9c8;
      }

      .cls-3 {
        fill: #7dbf42;
      }

      .cls-4 {
        fill: #837d7a;
      }

      .cls-5 {
        fill: #070001;
      }

      .cls-6 {
        fill: #413b2a;
      }

      .cls-7 {
        fill: #b1ac9d;
      }

      .cls-8 {
        fill: #fff;
      }

      .cls-9 {
        fill: #8c631c;
      }

      .cls-10 {
        fill: #b97676;
      }

      .cls-11 {
        fill: #dfdcd2;
      }

      .cls-12 {
        fill: #c1bab5;
      }

      .cls-13 {
        fill: #edc834;
      }

      .cls-14 {
        fill: #f9ea9f;
      }

      .cls-15 {
        fill: #3d322b;
      }

      .cls-16 {
        fill: #2c2926;
      }

      .cls-17 {
        fill: #3e3738;
      }

      .cls-18 {
        fill: #f6da66;
      }
    </style>
  </defs>
  <g id="__묒슜1" data-name="_???묒슜1">
    <path class="cls-9" d="M77.33,475.46c2.78,2.48,6.35,3.82,9.95,4.83,24.15,6.83,49.94.48,75,2.1,9.06.58,18.02,2.2,27.11,2.68,8.43.46,16.88-.1,25.18-1.62,5.85-1.09,11.9-3.39,17.03-6.4,8.43-4.91,18.2-15.74,7.39-23.74-3.97-2.94-8.73-3.24-13.09-.73-2.02,1.16-3.52,3.01-5.75,3.87-22.35,8.56-47.28,3.01-71.23,2.78-17.09-.15-34.04,2.46-51.1,3.06-4.2.15.4-8.2-3.8-8.53-2.23-.18-13.29,2.96-15.47,3.52-6.71,1.7-5.04,14.76-1.19,18.17h-.05Z"/>
    <g>
      <path class="cls-10" d="M86.45,382.95c-.13.18-.2.38-.2.61l-.38,13.44c-4.94-2.71-8.56-5.44-11.11-7.77.68-4.51,1.47-8.88,2.38-13.06,2.23,2.08,5.26,4.45,9.31,6.78h0Z"/>
      <path class="cls-10" d="M163.87,393.45l1.04,14.12c-32.09,3.39-54.09-.38-68.8-5.87h0l.38-14.02c10.38,3.97,24.75,7.01,44.45,7.01,6.96,0,14.6-.38,22.93-1.24Z"/>
      <path class="cls-10" d="M234.87,378.52c.89,4.58,1.54,8.99,2.05,13.21-23.29,7.31-43.48,11.92-61,14.48l-1.16-14.07c17.16-2.43,37.06-6.76,60.11-13.62Z"/>
      <path class="cls-2" d="M172.23,392.47l1.19,14.07c-2.02.28-4.05.56-6,.78l-1.01-14.15c1.9-.2,3.85-.43,5.82-.71Z"/>
      <path class="cls-2" d="M93.99,386.64l-.38,14.07c-1.87-.78-3.62-1.59-5.26-2.4l.4-14.1c1.62.84,3.34,1.65,5.24,2.43Z"/>
      <path class="cls-2" d="M237.22,394.29c2.46,23.77-1.06,41.48-10.61,52.82,0,.03,0,.05-.05.05-6.66,9.24-37.08,16.12-39.41,16.63-1.9-.03-20.98-1.14-31.44-27.44-.81-1.7-1.87-2.56-3.16-2.56h-.03c-2.4,0-4.43,3.24-5.7,5.95-.76,1.67-1.42,3.39-2.08,5.06-1.24,3.21-2.4,6.25-4.3,8.96-2.61,3.7-7.57,8.99-11.67,11.54-11.11,3.64-41.81-8.4-44.24-9.37-.78-1.14-3.09-6.28-3.47-7.21-4-10.07-6.76-21.11-7.82-31.08-.86-8.28-.05-16.71.86-23.84l.23-1.59c9.21,7.82,29.16,19.16,67.4,19.16,24.02,0,55.23-4.48,95.47-17.09h0Z"/>
      <path class="cls-2" d="M263.93,358.65s.15.35.28.63c-10.02,6.43-14.81,12.88-16.76,16.22-.35-.66-.76-1.29-1.27-1.87-20.55-23.16-39.23-29.97-40.02-30.25-.63-.23-1.37.13-1.62.78-.23.66.13,1.37.78,1.62.13.03,10.93,4,24.91,15.79.48,1.75,1.01,3.47,1.54,5.21.91,2.94,1.8,6.02,2.53,9.24-106.94,31.92-145.08,8.73-156.52-2.71h-.03c.05-.23.1-.48.15-.68,4.05-17.62-.48-31.36-3.16-34.93-.33-.43-.86-1.01-1.59-1.06-.78-.05-1.32.51-1.34,1.21,0,.56.3,1.04.81,1.24.51.51,1.44,2.3,2.33,5.06-5.37,1.49-10.35,4-16.07,6.91-.78.4-1.42,1.01-1.97,1.62-1.21-3.72-4.58-11.24-13.41-20.02,5.49-6.25,20.45-22.48,39.66-36.57.1-.08,8.53-6.78,20.25-12.45.63,2.23,3.34,4.99,6.35,7.11,5.11,3.64,11.62,6.13,18.68,6.13,7.9,0,16.48-3.14,24.65-11.31,6.1-.76,12.02-1.97,17.69-3.59,10.33,1.11,22.22,2.94,32.52,8.07,12.33,6.13,21.82,12.93,30.73,22.07,8.68,8.88,16.45,22.43,22.7,33.28l.2.35c2.53,4.38,4.89,8.73,6.99,12.91v-.03ZM134.79,311.22c0-1.65-1.34-2.99-2.99-2.99s-2.96,1.34-2.96,2.99,1.34,2.96,2.96,2.96,2.99-1.32,2.99-2.96ZM133.7,343.03c0-1.65-1.34-2.99-2.99-2.99s-2.96,1.34-2.96,2.99,1.32,2.99,2.96,2.99,2.99-1.34,2.99-2.99ZM131.8,378.09c0-1.65-1.32-2.99-2.96-2.99s-2.99,1.34-2.99,2.99,1.34,2.96,2.99,2.96,2.96-1.32,2.96-2.96Z"/>
      <path class="cls-17" d="M287.85,383.61c1.85,2.46,3.39,4.99,2.96,7.69-.58,3.82-4.33,4.33-7.06,4.68-1.14.15-2.2.3-2.86.63-.68.33-1.8,1.14-1.7,2.71.15,2.28-.76,4.81-1.54,6.5-.89,1.9-2.15,3.19-3.67,3.7-.46.15-.96.23-1.44.23-.84,0-1.72-.23-2.56-.68-1.44-.76-2.83-2.02-3.75-3.34-1.67-2.4-3.21-3.67-4.73-3.9-.84-.13-1.39.18-2.43.78l-.56.3c-1.44.78-2.81,1.29-4.15,1.52-2.63.46-4.81-.13-6.28-1.7-2.13-2.23-2.38-5.72-2.38-8.12-.03-2.58.28-5.37.96-8.71.1-.43.2-.84.28-1.27l.15-.63c.08-.28.15-.56.25-.84.08-.25.15-.48.2-.73.08-.46-.13-.96-.35-1.59-.28-.78-.56-1.42-.89-2.02l-.33-.71c-.53-1.04-1.01-2.02-1.7-2.78-3.57-4.02-7.09-7.54-10.48-10.61.13.43.25.89.38,1.34,1.14,3.62,2.3,7.37,3.09,11.52,6.07,31.56,3.57,54.9-7.39,69.43.96.4,2.18,1.06,3.82,2.2,1.9,1.19,2.28,2.81,2.28,3.92-.13,6.4-13.62,14.83-13.74,14.91-6.1,3.52-15.59,8.18-26.35,10.35-.86.18-2.51.51-4.3.51-2.3,0-4.86-.56-6.38-2.63-1.75-2.4-1.67-5.72.18-10.1-5.64-.76-22.53-5.04-31.99-28.8-.38-.81-.71-1.04-.84-1.04-.56,0-1.97,1.39-3.42,4.51-.73,1.57-1.39,3.27-2,4.89-1.24,3.21-2.53,6.53-4.63,9.52-2.46,3.49-6.94,8.35-11.01,11.29.68.89,1.52,2.3,2.53,4.56,1.04,2.13.51,3.7-.13,4.63-2.68,3.92-12.55,4.43-17.52,4.43-1.72,0-2.86-.05-2.91-.08-7.37-.63-18.38-2.33-29.18-6.86-1.95-.81-7.9-3.29-8.3-7.95-.33-4.2,3.62-7.11,6.07-8.58-1.44-2.33-3.09-6.4-3.34-7.01-4.08-10.28-6.91-21.57-7.97-31.77-.91-8.53-.08-17.14.86-24.43.96-7.54,2.25-14.76,3.82-21.44,2.48-10.71,1.65-19.59.2-25.46-5.14,1.42-10,3.87-15.59,6.73-.76.4-1.39,1.16-2.05,1.97-.25.3-.48.58-.73.86-.46.53-.91,1.06-1.32,1.65-.48.71-.73,1.11-.78,1.54,0,.23-.1.4-.2.58-.96,5.49-4.08,9.69-8.53,11.34-1.32.48-2.71.71-4.1.71-6.63,0-13.47-5.34-16.5-13.54-3.64-9.92-.33-20.3,7.39-23.13.05-.03.1,0,.15-.03L0,12.54c-.08-.66.38-1.24,1.01-1.37l6.91-1.29c.35-.05.71.03.99.23.3.23.48.53.51.89l.51,5.11L123.27.02c.48-.08.94.13,1.21.51.28.38.3.89.1,1.29l-20.63,41.28,27.87,30.42c.3.35.4.84.25,1.29-.15.43-.53.76-.99.84l-113.5,17.92,11.36,115.09,12.15,122.86c5.19-5.97,20.63-22.88,40.5-37.49.05-.03,7.67-6.07,18.5-11.62-15.14-3.7-31.13-10.58-41.48-23.34-5.7-7.04-8.3-16.1-7.34-25.51.03-.3.2-1.24.38-2.13.13-.61.25-1.16.28-1.37-9.95-5.26-16.48-13.77-17.26-21.97-.25-2.53.05-5.04.99-7.42,2.15-5.52,7.19-9.47,14.2-11.16,1.37-.33,2.78-.53,4.23-.68v-.08c1.24-13.9,5.47-26.63,12.66-37.99-.58-1.34-.99-2.66-1.16-4.02-3.32-12.4-.51-24.7,7.69-33.82,7.34-8.12,17.97-12.45,27.08-10.99,6.94,1.11,11.44,3.39,13.41,6.78.51.89.99,2.1,1.06,3.62,9.67-3.39,19.57-5.04,30.27-5.04,7.29,0,14.53.86,21.54,2.48,2.96-7.95,10.43-13.77,20.6-15.82,10.66-2.13,21.13-.05,32.04,6.35,7.97,4.66,15.41,11.57,22.78,21.06,17.31,22.35,21.26,51.18,23.82,78.79.89,9.72.78,19.01-.38,28.45-1.06,8.76-2.83,17.31-5.29,25.41-5.75,18.91-18.12,31.11-33.13,32.65-1.04.18-2.1.28-3.16.28-4.81,0-9.9-1.77-14.4-5.09-4.91-3.59-8.25-8.43-9.39-13.47-7.04,4.81-14.91,8.76-23.41,11.69,9.09,1.21,18.93,3.24,27.74,7.62,12.58,6.28,22.27,13.24,31.39,22.58,8.91,9.11,16.78,22.81,23.11,33.82l.2.33c2.53,4.43,4.91,8.81,7.04,13.04.08.13.23.48.43.96.03.1.08.23.13.35.08.08.15.13.2.23.13.2.18.43.18.66.33.78.71,1.65.96,2.1,13.31,1.9,20.32,5.01,21.49,9.47.99,3.85-2.89,6.81-3.06,6.94-.68.46-.81.84-.84,1.11-.18,1.29,1.24,3.29,2.18,4.28l-.03.03ZM288.3,390.92c.28-1.8-.99-3.8-2.38-5.7-.23-.2-3.14-3.29-2.78-6.2.15-1.19.84-2.2,1.95-2.89,0,0,2.61-2.05,2.02-4.23-.48-1.9-3.72-5.42-19.82-7.67-.73-.1-1.19-.56-2.1-2.58-11.26,7.34-15.44,14.73-16.35,16.6.23.53.48,1.04.68,1.59.35.94.71,1.87.51,2.99-.05.38-.18.73-.28,1.11-.08.2-.15.4-.18.61l-.15.63c-.1.4-.18.81-.28,1.21-.63,3.16-.94,5.77-.91,8.18,0,2,.18,4.83,1.67,6.4,1.11,1.16,2.81,1.16,4.02.96,1.06-.18,2.15-.61,3.37-1.27l.53-.28c1.09-.63,2.33-1.34,4.02-1.09,2.99.43,5.11,3.04,6.45,4.99.68.99,1.75,1.95,2.86,2.53.73.4,1.39.48,2,.28.84-.28,1.62-1.11,2.18-2.35.94-2.02,1.42-3.9,1.32-5.26-.13-2.2,1.01-4.13,3.11-5.16,1.01-.51,2.28-.68,3.64-.86,2.86-.38,4.61-.73,4.89-2.56h0ZM264.21,359.28c-.13-.28-.23-.53-.28-.63-2.1-4.18-4.45-8.53-6.99-12.91l-.2-.35c-6.25-10.86-14.02-24.4-22.7-33.28-8.91-9.14-18.4-15.95-30.73-22.07-10.3-5.14-22.2-6.96-32.52-8.07-5.67,1.62-11.59,2.83-17.69,3.59-8.18,8.18-16.76,11.31-24.65,11.31-7.06,0-13.57-2.48-18.68-6.13-3.01-2.13-5.72-4.89-6.35-7.11-11.72,5.67-20.15,12.38-20.25,12.45-19.21,14.1-34.17,30.32-39.66,36.57,8.83,8.78,12.2,16.3,13.41,20.02.56-.61,1.19-1.21,1.97-1.62,5.72-2.91,10.71-5.42,16.07-6.91-.89-2.76-1.82-4.56-2.33-5.06-.51-.2-.84-.68-.81-1.24,0-.71.56-1.27,1.34-1.21.73.05,1.27.63,1.59,1.06,2.68,3.57,7.21,17.31,3.16,34.93-.05.2-.1.46-.15.68h.03c11.44,11.44,49.58,34.63,156.52,2.71-.73-3.21-1.62-6.3-2.53-9.24-.53-1.75-1.06-3.47-1.54-5.21-13.97-11.8-24.78-15.77-24.91-15.79-.66-.25-1.01-.96-.78-1.62.25-.66.99-1.01,1.62-.78.78.28,19.46,7.09,40.02,30.25.51.58.91,1.21,1.27,1.87,1.95-3.34,6.73-9.8,16.76-16.22v.03ZM262.99,228.35c1.11-9.26,1.24-18.38.35-27.92-2.51-27.23-6.38-55.66-23.29-77.45-7.16-9.26-14.38-15.95-22.05-20.45-10.35-6.07-20.27-8.05-30.27-6.05-10.4,2.1-17.72,8.38-19.54,16.83-1.21,5.59.33,11.69,4.05,15.97.89,1.04,1.9,2,2.83,2.89,10.99,10.4,26.96,17.57,38.88,6.5.61-.56,1.19-1.14,1.75-1.72,2.53-2.56,5.16-5.19,9.62-5.26h.23c6.94,0,13.31,4.73,18.48,13.67.78,1.37,1.49,2.76,2.2,4.18,3.97,8.23,6.76,17.89,8.76,30.42,1.49,9.39,3.01,20.5,3.06,31.69.08,16.91-2.08,40.98-12.68,59.71-1.42,2.51-3.64,5.9-6.66,8.88,8.5-5.01,15.29-14.4,19.06-26.91,2.43-7.97,4.18-16.38,5.21-24.98h0ZM243.17,270.11c10.33-18.27,12.43-41.86,12.35-58.44-.05-11.04-1.57-22.02-3.04-31.31-1.95-12.28-4.66-21.72-8.53-29.72-.66-1.37-1.37-2.71-2.13-4.02-3.29-5.72-8.78-12.58-16.45-12.4-3.44.05-5.49,2.13-7.87,4.53-.48.48-.99.96-1.49,1.44,8.18,9.85,14.12,21.46,17.31,33.77.28-.13.56-.2.86-.13.43.13.78.46.91.91l3.21,12.25c.1.43,0,.89-.3,1.19-.58.63-1.21,1.21-1.8,1.8.15,2.18.23,4.38.23,6.5,0,13.21-2.35,25.49-7.01,36.5-4.56,10.78-11.59,20.63-20.32,28.48-2.15,1.9-4.38,3.7-6.71,5.42.73,4.78,3.85,9.52,8.61,13.01,4.91,3.57,10.73,5.21,15.67,4.33h0c8.53-1.52,14.35-10.35,16.48-14.1h.03ZM226.62,447.11c9.54-11.34,13.06-29.06,10.61-52.82-40.24,12.6-71.45,17.09-95.47,17.09-38.25,0-58.19-11.34-67.4-19.16l-.23,1.59c-.91,7.14-1.72,15.57-.86,23.84,1.06,9.97,3.82,21.01,7.82,31.08.38.94,2.68,6.07,3.47,7.21,2.43.96,33.13,13.01,44.24,9.37,4.1-2.56,9.06-7.85,11.67-11.54,1.9-2.71,3.06-5.75,4.3-8.96.66-1.67,1.32-3.39,2.08-5.06,1.27-2.71,3.29-5.95,5.7-5.95h.03c1.29,0,2.35.86,3.16,2.56,10.45,26.3,29.54,27.41,31.44,27.44,2.33-.51,32.75-7.39,39.41-16.63.03,0,.05-.03.05-.05h0ZM235.68,186.96l-2.46-9.39c-11.77,12-26.02,19.92-38.42,25.06l2.08,9.42c12.83-5.06,27.26-12.93,38.8-25.08ZM236.92,391.73c-.51-4.23-1.16-8.63-2.05-13.21-23.06,6.86-42.95,11.19-60.11,13.62l1.16,14.07c17.52-2.56,37.71-7.16,61-14.48ZM233.91,196.48c0-1.34-.08-2.71-.15-4.05-21.57,20.15-50.65,27.49-62.77,29.79-5.26,7.69-14.81,14.12-26.58,16.93-4.08.96-8.1,1.42-11.97,1.42-14.4,0-26.55-6.35-30.22-16.55-.1.03-.18.05-.25.05h-.2c-5.62-.86-8.63-.25-8.66-.25-.15.03-.28.03-.4,0-2.3,5.11-7.16,8.81-13.85,10.4-2.4.58-4.96.89-7.57.89-4.83,0-9.92-.99-14.83-2.91-.73-.28-1.44-.61-2.15-.94-.05.23-.1.48-.15.73-.15.76-.33,1.59-.35,1.87-.89,8.76,1.52,17.16,6.81,23.67,18.86,23.26,57.58,26.35,73.35,26.58,12.81.23,25.01-1.34,36.22-4.53.08-.05.18-.08.28-.1,14.22-4.1,26.83-10.81,36.95-19.89,8.45-7.59,15.26-17.11,19.69-27.56,4.53-10.68,6.81-22.63,6.81-35.51v-.03ZM233.45,453.11c0-.51-.13-1.14-1.14-1.77-1.52-1.06-3.24-2-4.02-2.25-7.49,9.44-35.49,16.05-40.12,17.09-1.87,3.97-2.18,6.86-.91,8.61,1.16,1.59,3.9,2,8.12,1.14,10.43-2.1,19.67-6.63,25.59-10.07,2.18-1.27,12.38-8.61,12.48-12.73ZM231.25,175.93c-3.04-12.43-8.93-24.17-17.16-34.09-12.98,10.3-29.39,2.94-40.75-7.82-.99-.94-2.02-1.95-3.01-3.06-4.23-4.86-6-11.82-4.61-18.17.05-.18.13-.35.15-.53-6.76-1.54-13.74-2.38-20.78-2.38-10.5,0-20.25,1.65-29.72,4.99-.15.05-.3.08-.43.08s-.23-.08-.33-.13c-.1.43-.23.89-.4,1.34-2.99,7.14-8.2,12.73-14.76,16-5.85,2.91-12.17,5.67-18.78,6.28-.38,0-.73.05-1.09.08-13.49,14.1-21.21,30.98-22.96,50.22,5.06-.1,10.43.84,15.64,2.86,7.59,2.96,13.92,7.82,17.87,13.67,1.85,2.73,3.04,5.57,3.59,8.33,1.24-.15,3.82-.28,7.69.33,2.18-11.62,14.3-22.58,30.73-26.48,9.69-2.3,19.49-1.82,27.51,1.34,8.2,3.21,13.62,8.83,15.29,15.84.15.63.23,1.29.3,1.95,13.59-3.59,37.81-12.17,55.99-30.63ZM194.5,212.98l-2.1-9.39c-2.86,1.11-5.64,2.13-8.23,2.96l1.62,9.39c2.76-.86,5.67-1.82,8.71-2.96ZM183.36,216.65l-1.62-9.34c-2.3.71-4.43,1.32-6.33,1.82-.03,3.44-.96,6.86-2.66,10.15,2.91-.61,6.53-1.47,10.61-2.63ZM173.41,406.54l-1.19-14.07c-1.97.28-3.92.51-5.82.71l1.01,14.15c1.95-.23,3.97-.51,6-.78ZM143.83,236.68c18.86-4.45,31.71-18.6,28.65-31.49-1.44-6.18-6.33-11.16-13.72-14.07-4.4-1.72-9.34-2.61-14.53-2.61-3.75,0-7.62.46-11.49,1.37-18.88,4.48-31.74,18.6-28.68,31.51,3.06,12.91,20.91,19.77,39.76,15.29ZM164.91,407.58l-1.04-14.12c-8.33.86-15.97,1.24-22.93,1.24-19.69,0-34.07-3.04-44.45-7.01l-.38,14h0c14.71,5.52,36.7,9.29,68.8,5.9ZM131.8,474.3c.28-.4.51-.99-.05-2.13-.84-1.87-1.9-3.72-2.46-4.35-11.85,3.52-40.73-7.54-45.28-9.37-3.82,2.2-5.67,4.43-5.49,6.58.18,2.08,2.46,4.05,6.76,5.85,10.48,4.38,21.24,6.05,28.42,6.68,2.63.23,15.79.1,18.1-3.27h0ZM128.36,73.52l-26.86-29.34c-.35-.38-.43-.96-.2-1.42L121.25,2.88,10.18,18.64l7.16,72.44s111.01-17.57,111.01-17.57ZM111.81,115.36c.76-2.05.66-3.8-.23-5.34-1.57-2.66-5.59-4.56-11.64-5.54-1.06-.18-2.15-.25-3.24-.25-7.49,0-15.64,3.87-21.57,10.43-3.7,4.13-9.06,12.15-8.38,23.77,1.24-2.05,3.59-3.24,6.05-2.89,2.61.38,3.95.56,6,.48.13-.03.25-.05.4-.03.38-.03.78-.05,1.24-.1,6.5-.58,12.63-3.42,17.87-6.02,6.02-2.99,10.81-8.12,13.49-14.5ZM101.53,221.46c-.35-1.67-.51-3.37-.4-5.06-3.59-.58-6-.43-7.04-.33.1,1.75,0,3.44-.46,5.11,1.34-.15,4-.25,7.9.28ZM93.61,400.72l.38-14.07c-1.9-.78-3.62-1.59-5.24-2.43l-.4,14.1c1.65.81,3.39,1.62,5.26,2.4ZM90.7,222.15c1.82-4.71.89-10.23-2.66-15.52-3.64-5.42-9.59-9.92-16.68-12.71-4.63-1.8-9.42-2.71-13.92-2.71-2.4,0-4.76.25-6.96.78-6.2,1.49-10.63,4.91-12.45,9.62-3.85,9.9,4.83,22.53,19.34,28.2,7.11,2.76,14.53,3.44,20.88,1.92,6.2-1.49,10.61-4.89,12.45-9.59ZM86.24,383.56c0-.23.08-.43.2-.61-4.05-2.33-7.09-4.71-9.31-6.78-.91,4.18-1.7,8.56-2.38,13.06,2.56,2.33,6.18,5.06,11.11,7.77l.38-13.44h0ZM76.14,138.49c-1.06-.08-2.13-.23-3.54-.43-2.2-.3-3.82,1.19-4.18,2.83-.43,2.02-.58,3.75-.38,5.39.03.05.03.1.03.18.08.58.2,1.14.38,1.72,2.3-3.37,4.86-6.58,7.69-9.69ZM53.79,356.45c.4-.56.76-1.01,1.16-1.47-.53-2.13-3.16-10.43-13.14-20.4-.13.15-.28.33-.35.43l.99,10.07c0,.13,0,.25-.05.4.08.28.05.56-.08.84-1.24,2.46-3.92,2.81-5.47,2.81-.63,0-1.06-.05-1.14-.05-.03-.03-.08-.05-.1-.05-.1,0-.18-.05-.25-.1-.08-.03-.13-.05-.18-.1-.08-.05-.15-.13-.2-.18s-.08-.1-.13-.15c-.05-.08-.08-.18-.1-.25s-.05-.13-.08-.2v-.1l-1.04-10.07c-6.05,2.61-8.5,11.29-5.42,19.67,3.16,8.61,10.96,13.69,17.36,11.34,3.85-1.42,6.5-5.34,7.09-10.5.05-.35.23-.66.48-.86.2-.38.46-.73.66-1.06h-.03ZM39.95,345.34h0L7.04,12.62l-4.4.84,34.42,333.15c.91-.03,2.23-.25,2.89-1.27Z"/>
      <path class="cls-8" d="M148.91,286.01c-13.47,11.74-26.3,8.56-32.98,5.42-5.44-2.56-8.63-5.87-9.69-7.64,11.11,2.15,21.26,2.73,27.67,2.83.73.03,1.47.03,2.18.03,4.35,0,8.63-.23,12.83-.63Z"/>
      <path class="cls-8" d="M285.92,385.23c1.39,1.9,2.66,3.9,2.38,5.7-.28,1.82-2.02,2.18-4.89,2.56-1.37.18-2.63.35-3.64.86-2.1,1.04-3.24,2.96-3.11,5.16.1,1.37-.38,3.24-1.32,5.26-.56,1.24-1.34,2.08-2.18,2.35-.61.2-1.27.13-2-.28-1.11-.58-2.18-1.54-2.86-2.53-1.34-1.95-3.47-4.56-6.45-4.99-1.7-.25-2.94.46-4.02,1.09l-.53.28c-1.21.66-2.3,1.09-3.37,1.27-1.21.2-2.91.2-4.02-.96-1.49-1.57-1.67-4.4-1.67-6.4-.03-2.4.28-5.01.91-8.18.1-.4.18-.81.28-1.21l.15-.63c.03-.2.1-.4.18-.61.1-.38.23-.73.28-1.11.2-1.11-.15-2.05-.51-2.99-.2-.56-.46-1.06-.68-1.59.91-1.87,5.09-9.26,16.35-16.6.91,2.02,1.37,2.48,2.1,2.58,16.1,2.25,19.34,5.77,19.82,7.67.58,2.18-2.02,4.23-2.02,4.23-1.11.68-1.8,1.7-1.95,2.89-.35,2.91,2.56,6,2.78,6.2h0Z"/>
      <path class="cls-2" d="M263.35,200.43c.89,9.54.76,18.65-.35,27.92-1.04,8.61-2.78,17.01-5.21,24.98-3.77,12.5-10.55,21.89-19.06,26.91,3.01-2.99,5.24-6.38,6.66-8.88,10.61-18.73,12.76-42.8,12.68-59.71-.05-11.19-1.57-22.3-3.06-31.69-2-12.53-4.78-22.2-8.76-30.42-.71-1.42-1.42-2.81-2.2-4.18-5.16-8.93-11.54-13.67-18.48-13.67h-.23c-4.45.08-7.09,2.71-9.62,5.26-.56.58-1.14,1.16-1.75,1.72-11.92,11.06-27.89,3.9-38.88-6.5-.94-.89-1.95-1.85-2.83-2.89-3.72-4.28-5.26-10.38-4.05-15.97,1.82-8.45,9.14-14.73,19.54-16.83,10-2,19.92,0,30.27,6.05,7.67,4.51,14.88,11.19,22.05,20.45,16.91,21.79,20.78,50.22,23.29,77.45h0Z"/>
      <path class="cls-10" d="M255.52,211.67c.08,16.58-2.02,40.17-12.35,58.44-2.13,3.75-7.95,12.58-16.48,14.1h0c-4.94.89-10.76-.76-15.67-4.33-4.76-3.49-7.87-8.23-8.61-13.01,2.33-1.72,4.56-3.52,6.71-5.42,8.73-7.85,15.77-17.69,20.32-28.48,4.66-11.01,7.01-23.29,7.01-36.5,0-2.13-.08-4.33-.23-6.5.58-.58,1.21-1.16,1.8-1.8.28-.3.4-.76.3-1.19l-3.21-12.25c-.13-.46-.48-.78-.91-.91-.3-.08-.58,0-.86.13-3.19-12.3-9.14-23.92-17.31-33.77.51-.48,1.01-.96,1.49-1.44,2.38-2.4,4.43-4.48,7.87-4.53,7.67-.18,13.16,6.68,16.45,12.4.76,1.32,1.47,2.66,2.13,4.02,3.87,8,6.58,17.44,8.53,29.72,1.47,9.29,2.99,20.27,3.04,31.31h-.03Z"/>
      <path class="cls-2" d="M233.23,177.57l2.46,9.39c-11.54,12.15-25.97,20.02-38.8,25.08l-2.08-9.42c12.4-5.14,26.65-13.06,38.42-25.06Z"/>
      <path class="cls-8" d="M233.76,192.43c.08,1.34.15,2.71.15,4.05,0,12.88-2.28,24.83-6.81,35.51-4.43,10.45-11.24,19.97-19.69,27.56-10.12,9.09-22.73,15.79-36.95,19.89-.1.03-.2.05-.28.1-11.21,3.19-23.41,4.76-36.22,4.53-15.77-.23-54.49-3.32-73.35-26.58-5.29-6.5-7.69-14.91-6.81-23.67,0-.28.2-1.11.35-1.87.05-.25.1-.51.15-.73.71.33,1.42.66,2.15.94,4.91,1.92,10,2.91,14.83,2.91,2.61,0,5.16-.3,7.57-.89,6.68-1.59,11.54-5.29,13.85-10.4.13.03.25.03.4,0,0,0,3.04-.61,8.66.25h.2c.08,0,.15,0,.25-.05,3.67,10.2,15.82,16.55,30.22,16.55,3.87,0,7.9-.46,11.97-1.42,11.77-2.81,21.31-9.24,26.58-16.93,12.12-2.3,41.21-9.64,62.77-29.79v.03ZM96.27,232.63c2.46,0,4.45-2.3,4.45-3.92s-2-2.96-4.45-2.96-4.48,1.32-4.48,2.96,2,3.92,4.48,3.92Z"/>
      <path class="cls-8" d="M232.31,451.34c1.01.63,1.14,1.27,1.14,1.77-.1,4.13-10.3,11.47-12.48,12.73-5.92,3.44-15.16,7.97-25.59,10.07-4.23.86-6.96.46-8.12-1.14-1.27-1.75-.96-4.63.91-8.61,4.63-1.04,32.63-7.64,40.12-17.09.78.25,2.51,1.19,4.02,2.25Z"/>
      <path class="cls-8" d="M214.09,141.83c8.23,9.92,14.12,21.67,17.16,34.09-18.17,18.45-42.4,27.03-55.99,30.63-.08-.66-.15-1.32-.3-1.95-1.67-7.01-7.09-12.63-15.29-15.84-8.02-3.16-17.82-3.64-27.51-1.34-16.43,3.9-28.55,14.86-30.73,26.48-3.87-.61-6.45-.48-7.69-.33-.56-2.76-1.75-5.59-3.59-8.33-3.95-5.85-10.28-10.71-17.87-13.67-5.21-2.02-10.58-2.96-15.64-2.86,1.75-19.24,9.47-36.12,22.96-50.22.35-.03.71-.05,1.09-.08,6.61-.61,12.93-3.37,18.78-6.28,6.56-3.27,11.77-8.86,14.76-16,.18-.46.3-.91.4-1.34.1.05.2.13.33.13s.28-.03.43-.08c9.47-3.34,19.21-4.99,29.72-4.99,7.04,0,14.02.84,20.78,2.38,0,.18-.1.35-.15.53-1.39,6.35.38,13.31,4.61,18.17.99,1.11,2.02,2.13,3.01,3.06,11.36,10.76,27.77,18.12,40.75,7.82ZM112.29,185.32c3.8-.61,6.56-3.21,6.15-5.8-.43-2.56-3.87-4.15-7.69-3.52-3.82.61-6.56,3.19-6.15,5.77.43,2.58,3.87,4.18,7.69,3.54ZM86.75,180.61c.15-2.61-2.86-4.91-6.71-5.11-3.9-.23-7.14,1.72-7.26,4.3-.15,2.63,2.86,4.91,6.71,5.14,3.87.2,7.11-1.72,7.26-4.33Z"/>
      <path class="cls-10" d="M192.4,203.59l2.1,9.39c-3.04,1.14-5.95,2.1-8.71,2.96l-1.62-9.39c2.58-.84,5.37-1.85,8.23-2.96Z"/>
      <path class="cls-2" d="M181.74,207.31l1.62,9.34c-4.08,1.16-7.69,2.02-10.61,2.63,1.7-3.29,2.63-6.71,2.66-10.15,1.9-.51,4.02-1.11,6.33-1.82Z"/>
      <path class="cls-2" d="M172.48,205.19c3.06,12.88-9.8,27.03-28.65,31.49-18.86,4.48-36.7-2.38-39.76-15.29-3.06-12.91,9.8-27.03,28.68-31.51,3.87-.91,7.75-1.37,11.49-1.37,5.19,0,10.12.89,14.53,2.61,7.39,2.91,12.28,7.9,13.72,14.07ZM160.23,222.3c4.89-4.91,6.94-10.43,5.72-15.57s-5.52-9.16-12.1-11.36c-6.38-2.1-14.2-2.25-22.02-.4-7.82,1.85-14.73,5.49-19.49,10.25-4.89,4.91-6.91,10.43-5.7,15.57s5.49,9.16,12.07,11.36c3.42,1.11,7.24,1.7,11.26,1.7,3.49,0,7.11-.43,10.76-1.29,7.82-1.85,14.73-5.49,19.49-10.25Z"/>
      <path class="cls-17" d="M165.95,206.73c1.21,5.14-.84,10.66-5.72,15.57-4.76,4.76-11.67,8.4-19.49,10.25-3.64.86-7.26,1.29-10.76,1.29-4.02,0-7.85-.58-11.26-1.7-6.58-2.2-10.86-6.23-12.07-11.36s.81-10.66,5.7-15.57c4.76-4.76,11.67-8.4,19.49-10.25,7.82-1.85,15.64-1.7,22.02.4,6.58,2.2,10.88,6.23,12.1,11.36ZM158.43,220.53c4.25-4.28,6.05-8.96,5.04-13.21-.51-2.13-1.67-4.02-3.44-5.64s-4.13-2.94-6.99-3.9c-3.16-1.04-6.71-1.57-10.45-1.57-3.29,0-6.71.4-10.18,1.21-7.37,1.75-13.85,5.16-18.27,9.57-4.25,4.28-6.05,8.96-5.04,13.21s4.71,7.64,10.43,9.54c5.95,1.97,13.26,2.1,20.63.35,7.37-1.75,13.85-5.16,18.27-9.57Z"/>
      <path class="cls-10" d="M163.47,207.31c1.01,4.25-.78,8.93-5.04,13.21-4.43,4.4-10.91,7.82-18.27,9.57-7.37,1.75-14.68,1.62-20.63-.35-5.72-1.9-9.42-5.29-10.43-9.54s.78-8.93,5.04-13.21c4.43-4.4,10.91-7.82,18.27-9.57,3.47-.81,6.88-1.21,10.18-1.21,3.75,0,7.29.53,10.45,1.57,2.86.96,5.21,2.28,6.99,3.9s2.94,3.52,3.44,5.64Z"/>
      <path class="cls-17" d="M131.8,308.23c1.65,0,2.99,1.34,2.99,2.99s-1.34,2.96-2.99,2.96-2.96-1.32-2.96-2.96,1.34-2.99,2.96-2.99Z"/>
      <path class="cls-8" d="M131.75,472.17c.56,1.14.33,1.72.05,2.13-2.3,3.37-15.47,3.49-18.1,3.27-7.19-.63-17.95-2.3-28.42-6.68-4.3-1.8-6.58-3.77-6.76-5.85-.18-2.15,1.67-4.38,5.49-6.58,4.56,1.82,33.44,12.88,45.28,9.37.56.63,1.62,2.48,2.46,4.35h0Z"/>
      <path class="cls-17" d="M130.72,340.05c1.65,0,2.99,1.34,2.99,2.99s-1.34,2.99-2.99,2.99-2.96-1.34-2.96-2.99,1.32-2.99,2.96-2.99Z"/>
      <path class="cls-17" d="M128.84,375.1c1.65,0,2.96,1.34,2.96,2.99s-1.32,2.96-2.96,2.96-2.99-1.32-2.99-2.96,1.34-2.99,2.99-2.99Z"/>
      <path class="cls-10" d="M101.51,44.18l26.86,29.34-111.01,17.57L10.18,18.64,121.25,2.88l-19.95,39.89c-.23.46-.15,1.04.2,1.42Z"/>
      <path class="cls-2" d="M118.44,179.52c.4,2.58-2.35,5.19-6.15,5.8-3.82.63-7.26-.96-7.69-3.54-.4-2.58,2.33-5.16,6.15-5.77,3.82-.63,7.26.96,7.69,3.52Z"/>
      <path class="cls-2" d="M111.58,110.02c.89,1.54.99,3.29.23,5.34-2.68,6.38-7.47,11.52-13.49,14.5-5.24,2.61-11.36,5.44-17.87,6.02-.46.05-.86.08-1.24.1-.15-.03-.28,0-.4.03-2.05.08-3.39-.1-6-.48-2.46-.35-4.81.84-6.05,2.89-.68-11.62,4.68-19.64,8.38-23.77,5.92-6.56,14.07-10.43,21.57-10.43,1.09,0,2.18.08,3.24.25,6.05.99,10.07,2.89,11.64,5.54Z"/>
      <path class="cls-2" d="M101.13,216.4c-.1,1.7.05,3.39.4,5.06-3.9-.53-6.56-.43-7.9-.28.43-1.67.56-3.37.46-5.11,1.04-.1,3.44-.25,7.04.33Z"/>
      <path class="cls-10" d="M100.72,228.7c0,1.62-2,3.92-4.45,3.92s-4.48-2.3-4.48-3.92,2-2.96,4.48-2.96,4.45,1.32,4.45,2.96Z"/>
      <path class="cls-2" d="M88.04,206.63c3.54,5.29,4.48,10.81,2.66,15.52-1.85,4.71-6.25,8.1-12.45,9.59-6.35,1.52-13.77.84-20.88-1.92-14.5-5.67-23.19-18.3-19.34-28.2,1.82-4.71,6.25-8.12,12.45-9.62,2.2-.53,4.56-.78,6.96-.78,4.51,0,9.29.91,13.92,2.71,7.09,2.78,13.04,7.29,16.68,12.71ZM89.15,221.54c1.57-4.08.56-8.83-2.89-13.39-3.29-4.38-8.48-8.1-14.6-10.48-6.1-2.38-12.43-3.14-17.84-2.15-5.62,1.04-9.57,3.85-11.16,7.9-1.57,4.08-.56,8.81,2.89,13.39,3.29,4.38,8.48,8.1,14.58,10.48,4.43,1.72,8.88,2.56,12.93,2.56,7.69,0,14-2.96,16.1-8.3Z"/>
      <path class="cls-17" d="M86.27,208.15c3.44,4.56,4.45,9.31,2.89,13.39-2.1,5.34-8.4,8.3-16.1,8.3-4.05,0-8.5-.84-12.93-2.56-6.1-2.38-11.29-6.1-14.58-10.48-3.44-4.58-4.45-9.31-2.89-13.39,1.59-4.05,5.54-6.86,11.16-7.9,5.42-.99,11.74-.23,17.84,2.15,6.13,2.38,11.31,6.1,14.6,10.48ZM86.77,220.6c1.27-3.21.35-7.09-2.53-10.93-3.01-4-7.82-7.44-13.49-9.64-4.08-1.59-8.23-2.4-12.07-2.4-1.52,0-2.99.13-4.4.38-4.71.89-8,3.11-9.26,6.33-.35.96-.56,1.95-.56,3.01,0,2.51,1.06,5.21,3.11,7.92,3.01,4.02,7.8,7.44,13.49,9.67,11.52,4.48,23.06,2.56,25.72-4.33Z"/>
      <path class="cls-10" d="M84.24,209.67c2.89,3.85,3.8,7.72,2.53,10.93-2.66,6.88-14.2,8.81-25.72,4.33-5.7-2.23-10.48-5.64-13.49-9.67-2.05-2.71-3.11-5.42-3.11-7.92,0-1.06.2-2.05.56-3.01,1.27-3.21,4.56-5.44,9.26-6.33,1.42-.25,2.89-.38,4.4-.38,3.85,0,8,.81,12.07,2.4,5.67,2.2,10.48,5.64,13.49,9.64Z"/>
      <path class="cls-2" d="M80.04,175.5c3.85.2,6.86,2.51,6.71,5.11s-3.39,4.53-7.26,4.33c-3.85-.23-6.86-2.51-6.71-5.14.13-2.58,3.37-4.53,7.26-4.3Z"/>
      <path class="cls-10" d="M72.6,138.06c1.42.2,2.48.35,3.54.43-2.83,3.11-5.39,6.33-7.69,9.69-.18-.58-.3-1.14-.38-1.72,0-.08,0-.13-.03-.18-.2-1.65-.05-3.37.38-5.39.35-1.65,1.97-3.14,4.18-2.83Z"/>
      <path class="cls-8" d="M54.96,354.98c-.4.46-.76.91-1.16,1.47-.2.33-.46.68-.66,1.06-.25.2-.43.51-.48.86-.58,5.16-3.24,9.09-7.09,10.5-6.4,2.35-14.2-2.73-17.36-11.34-3.09-8.38-.63-17.06,5.42-19.67l1.04,10.07v.1c.03.08.05.13.08.2s.05.18.1.25c.05.05.08.1.13.15s.13.13.2.18c.05.05.1.08.18.1.08.05.15.08.25.1,0,0,.08.03.1.05.08,0,.51.05,1.14.05,1.54,0,4.23-.35,5.47-2.81.13-.28.15-.56.08-.84.05-.15.08-.28.05-.4l-.99-10.07s.23-.28.35-.43c9.97,9.97,12.6,18.27,13.14,20.4h.03ZM49.04,357.43c.05-.71-.46-1.32-1.16-1.39-.66-.05-1.29.46-1.37,1.16-.18,2.02-3.14,2.73-3.16,2.73-.68.15-1.11.84-.94,1.52.13.58.63.99,1.21.99h.28c.2-.05,4.78-1.14,5.14-4.99v-.03ZM43.85,352.75c.2-.66-.2-1.37-.86-1.54-.68-.2-1.37.2-1.57.86-.56,1.95-3.59,2.13-3.62,2.13-.68,0-1.24.61-1.21,1.32.05.68.61,1.21,1.27,1.21h.05c.2-.03,4.89-.23,5.95-3.97h0Z"/>
      <path class="cls-17" d="M47.87,356.04c.71.08,1.21.68,1.16,1.39-.35,3.85-4.94,4.94-5.14,4.99h-.28c-.58,0-1.09-.4-1.21-.99-.18-.68.25-1.37.94-1.52,0,0,2.99-.71,3.16-2.73.08-.71.71-1.21,1.37-1.16v.03Z"/>
      <path class="cls-17" d="M42.99,351.21c.66.18,1.06.89.86,1.54-1.06,3.75-5.75,3.95-5.95,3.97h-.05c-.66,0-1.21-.53-1.27-1.21,0-.71.53-1.29,1.21-1.32,0,0,3.06-.18,3.62-2.13.2-.66.89-1.06,1.57-.86h0Z"/>
      <path class="cls-11" d="M39.95,345.31h0c-.66,1.04-1.97,1.27-2.89,1.29L2.64,13.46l4.4-.84,32.9,332.69Z"/>
    </g>
    <path class="cls-17" d="M111.5,254.87c-4.96-5.97-1.77-10.96-1.62-11.19.38-.58.23-1.37-.33-1.75-.58-.38-1.37-.25-1.75.33,0,.03-1.16,1.8-1.47,4.48h-.15l-23.11,1.34c-.71.05-1.24.63-1.19,1.34.05.68.61,1.19,1.27,1.19h.08l23.08-1.34c.23,2.15,1.09,4.63,3.24,7.21.25.3.61.46.96.46.28,0,.58-.1.81-.3.53-.46.61-1.24.18-1.77Z"/>
  </g>
  <g id="__묒슜1-2" data-name="_???묒슜1">
    <ellipse class="cls-9" cx="399.49" cy="475.31" rx="39.51" ry="13.87"/>
    <ellipse class="cls-9" cx="535.07" cy="459.45" rx="32.96" ry="10" transform="translate(-82.89 119.56) rotate(-11.84)"/>
    <g>
      <path class="cls-15" d="M409.47,373.73c-.05.13-.1.28-.1.43l-.38,13.26c-10.48-5.75-15.06-11.67-16.1-13.11,1.09-4.68,2.25-8.91,3.16-12.02,1.97,2.68,6.05,7.14,13.41,11.44h0Z"/>
      <path class="cls-15" d="M557.31,369.33c.89,4.3,1.65,8.71,2.23,13.16-23.06,7.24-43.1,11.74-60.49,14.28l-1.16-13.97c16.98-2.43,36.68-6.73,59.43-13.47h0Z"/>
      <path class="cls-3" d="M495.37,383.15l1.16,13.97c-2.02.28-4.05.53-6,.76l-1.01-14c1.9-.23,3.85-.46,5.85-.73h0Z"/>
      <path class="cls-3" d="M417.09,377.53l-.35,13.57c-1.87-.78-3.62-1.57-5.26-2.38l.4-13.64c1.59.84,3.34,1.67,5.21,2.46Z"/>
      <path class="cls-15" d="M486.99,384.16l1.01,13.97c-32.04,3.32-54.04-.53-68.77-6.05l.35-13.54c10.3,3.95,24.48,6.94,43.91,6.94,7.11,0,14.93-.4,23.49-1.32Z"/>
      <path class="cls-3" d="M559.84,385.05c2.13,19.19.53,38.65-10.05,51.76h0v.05c-6.91,9.34-39.13,16.83-41.92,17.46-1.54-.18-14.6-2.15-25.94-21.06-.15-.38-1.37-3.21-1.87-5.87-.15-.68-.81-1.14-1.49-.99-.68.13-1.14.81-1.01,1.49.38,1.8,1.01,3.67,1.47,4.94-5.19.66-22.32,2.3-31.23-3.16-.3-.18-.68-.23-1.04-.13-.33.1-.61.35-.76.66-2.76,5.85-8.96,14.17-18.53,22.05.48-1.42.73-2.89.73-4.38-.03-8.1-5.64-15.52-11.16-21.69-8.07-9.09-16.83-17.52-26.73-20.53,0-.08.03-.13,0-.2-1.65-7.29-.18-18.2,1.87-27.84,5.34,6.61,24.2,24.55,72.14,24.55,23.94,0,55.15-4.48,95.55-17.11h-.03Z"/>
      <path class="cls-3" d="M567.94,265.38c1.62,3.39,7.04,13.87,14.98,19.95-7.39,7.69-22.27,22.25-40.24,34.65-.51.35-.68,1.01-.43,1.57.18.38,9.21,20.73,14.55,45.28-126.99,37.71-156.85-2.99-159.79-7.69.46-1.44.73-2.28.73-2.33,6.1-19.72,2.18-35.59,2-36.27s-.86-1.09-1.54-.91-1.09.86-.91,1.54c0,.03.08.3.18.78-17.46-13.16-32.63-28.15-39.13-34.83,8.88-8.76,12.12-16.1,13.26-19.77.56.58,1.16,1.16,1.95,1.54,28.5,14.66,52.04,7.14,53.03,6.81.18-.05.3-.15.46-.28,1.06,1.97,3.37,4.18,5.85,5.95,5.11,3.62,11.62,6.1,18.68,6.1,7.9,0,16.48-3.14,24.63-11.31,8.58-1.09,16.78-3.01,24.43-5.72,3.37.78,11.47,1.62,11.82,1.67.28.03,27.79,2.83,55.51-6.73h0ZM457.91,301.83c0-1.65-1.34-2.99-2.99-2.99s-2.96,1.34-2.96,2.99,1.32,2.99,2.96,2.99,2.99-1.34,2.99-2.99ZM456.82,333.64c0-1.65-1.34-2.96-2.99-2.96s-2.99,1.32-2.99,2.96,1.34,2.99,2.99,2.99,2.99-1.34,2.99-2.99ZM454.93,368.7c0-1.65-1.32-2.99-2.96-2.99s-2.99,1.34-2.99,2.99,1.34,2.99,2.99,2.99,2.96-1.34,2.96-2.99Z"/>
      <path class="cls-3" d="M415.95,200.99c-.13.91-.18,1.82-.15,2.71-3.39-.43-5.82-.38-7.21-.28.33-.86.58-1.75.78-2.63,1.06-.1,3.29-.2,6.58.2Z"/>
      <path class="cls-3" d="M406.81,194.13c2.61,10.28-7.54,21.79-22.63,25.64-15.11,3.85-29.51-1.39-32.15-11.69-2.63-10.28,7.52-21.77,22.63-25.61,15.09-3.85,29.51,1.37,32.15,11.67ZM384.94,216.1c13.34-3.39,22.43-13.06,20.25-21.57-1.06-4.23-4.66-7.49-10.12-9.21-5.24-1.62-11.62-1.65-17.97-.03-13.31,3.39-22.4,13.06-20.25,21.57,1.09,4.23,4.68,7.49,10.12,9.21,2.63.81,5.57,1.24,8.63,1.24s6.2-.4,9.34-1.21Z"/>
      <path class="cls-3" d="M498.16,199.82l1.59,9.19c-4.3,1.01-7.49,1.59-9.06,1.85.4-3.09,0-6.15-1.04-9.14,1.47-.28,4.45-.86,8.5-1.9Z"/>
      <path class="cls-3" d="M556.35,168.18l2.46,9.39c-13.49,14.22-31.23,22.63-45.41,27.46l-2.05-9.31c13.69-4.94,31.13-13.41,45-27.54Z"/>
      <path class="cls-3" d="M480.34,192.51c5.9,5.34,8.66,11.74,7.85,18.02-.84,6.28-5.19,11.74-12.25,15.39-7.21,3.72-16.38,5.09-25.77,3.85-19.21-2.56-33.44-15.31-31.71-28.45,1.54-11.59,14.98-19.67,31.34-19.67,2.18,0,4.43.13,6.68.43,9.39,1.24,17.87,4.94,23.87,10.43h0ZM481.5,209.64c1.39-10.55-11.01-20.93-27.69-23.13-7.95-1.06-15.72-.13-21.84,2.63-6.33,2.83-10.2,7.29-10.88,12.53-.71,5.21,1.87,10.53,7.26,14.91,5.19,4.25,12.45,7.16,20.4,8.23,2.13.28,4.2.4,6.25.4,6.96,0,13.29-1.59,18.02-4.33s7.87-6.63,8.48-11.24h0Z"/>
      <path class="cls-15" d="M508.94,196.58l2.05,9.26c-3.19,1.01-6.15,1.87-8.78,2.53l-1.59-9.24c2.51-.68,5.29-1.54,8.33-2.56h0Z"/>
      <path class="cls-15" d="M402.73,195.16c1.82,7.14-6.43,15.44-18.4,18.48-5.9,1.49-11.8,1.52-16.6,0-4.58-1.44-7.57-4.08-8.43-7.42-1.82-7.14,6.45-15.41,18.43-18.48,2.96-.76,5.9-1.14,8.71-1.14s5.49.38,7.87,1.14c4.58,1.44,7.59,4.08,8.43,7.42Z"/>
      <path class="cls-15" d="M453.48,189.01c15.29,2.02,26.73,11.14,25.51,20.3-1.21,9.19-14.63,14.98-29.92,12.98-7.49-1.01-14.3-3.72-19.14-7.67-4.66-3.82-6.94-8.3-6.35-12.63s3.92-8.07,9.42-10.55c4.15-1.85,9.16-2.83,14.48-2.83,1.97,0,3.97.15,6,.4h0Z"/>
      <path class="cls-16" d="M614.69,252.8c2.83,1.01,6.73,2.4,6.43,6.28-.23,2.73-2.53,4.83-5.01,6.68-1.19.68-3.42,2.33-3.54,3.62,0,.18-.08.58.56,1.16.23.23,3.54,3.9,1.82,7.37-2.1,4.23-10.45,5.57-25.51,4.15-1.11,1.21-4.25,4.66-8.91,9.34.63,6.48,5.97,68.39-17.64,118.28-.05.1-.13.15-.2.23-1.19,9.92-4.13,19.14-9.59,26.7,1.01.38,2.35,1.04,4.2,2.15,2.05,1.16,2.51,2.78,2.51,3.92,0,6.4-14.25,15.11-14.4,15.19-6.43,3.64-16.5,8.48-27.97,10.88-.96.2-2.86.58-4.89.58-2.35,0-4.91-.51-6.48-2.46-2.58-3.16-1.16-7.62,0-10.28-4.35-.89-15.72-4.73-25.92-21.36-4.15.58-22.05,2.68-32.5-2.73-3.85,7.42-12.38,18.07-25.69,27.03-.08.05-.18.1-.28.13-2.25,1.49-5.37,2.2-9.06,2.2-11.19,0-27.26-6.15-37.56-14.38-9.21-7.37-15.03-16.63-15.57-24.78-.28-4.23.94-7.85,3.52-10.53.08-.08.18-.15.28-.23.05-.1.08-.18.13-.25,1.82-2,4.43-3.72,7.8-5.06,3.09-1.21,6.56-1.95,10.3-2.13,2.1-.1,4.15.08,6.15.48-2.56-13.9,4.2-37.76,6.76-46.07,0-.03,0-.08.05-.1.48-1.59.81-2.61.89-2.81,4.02-12.98,3.47-24.45,2.71-30.45-22.3-16.45-41.43-36.52-44.52-39.81-14.05,1.42-21.94.1-24.1-4-1.82-3.52,1.42-7.29,1.54-7.44.63-.61.66-1.04.63-1.29-.15-1.29-2.05-2.86-3.21-3.57-2.48-1.95-4.66-4.05-4.86-6.78-.3-3.85,3.39-5.26,6.07-6.28,1.14-.46,2.23-.86,2.81-1.34.63-.51,1.62-1.57,1.14-3.06-.71-2.18-.35-4.86.05-6.71.46-2.05,1.42-3.57,2.81-4.43,1.19-.76,2.63-.96,4.18-.58,1.65.38,3.37,1.24,4.61,2.3,1.47,1.24,3.64,2.86,5.82,2.63.91-.08,1.44-.53,2.38-1.37l.48-.46c1.29-1.11,2.56-1.92,3.87-2.48,2.56-1.09,4.89-1.04,6.76.1,2.68,1.65,3.77,4.99,4.35,7.34.61,2.51.94,5.26,1.04,8.71v1.95c0,.3-.03.58-.05.89,0,.25-.05.51,0,.76,0,.43.28.81.71,1.42.48.68.91,1.24,1.37,1.75.25.28.51.58.73.89.68.81,1.29,1.57,2.05,1.95,25.06,12.86,46.55,7.9,50.42,6.86-15.69-3.59-32.58-10.5-43.36-23.79-5.7-7.04-8.3-16.1-7.34-25.51.03-.23.05-.43.08-.66h-.1c-12.25,0-22.48-5.7-24.8-14.83-2.96-11.64,8-24.53,24.45-28.7,1.06-.28,2.13-.51,3.16-.68,1.09-12.07,4.68-23.46,10.25-33.66-.91-2.02-2.33-10.33.18-16.58.2-.61,4.66-14.83,25.67-13.21.08,0,.15.03.25.05,15.34-11.26,34.35-17.95,54.67-17.95,42.04,0,78.03,27.29,88.26,66.59.25-.13.56-.2.84-.13.43.13.78.48.91.91l3.19,12.28c.13.4,0,.86-.28,1.16-.61.63-1.21,1.24-1.8,1.85.15,2.13.23,4.3.23,6.45,0,13.21-2.35,25.49-7.01,36.5-4.56,10.78-11.59,20.63-20.35,28.48-7.69,6.91-16.81,12.48-26.96,16.6,3.49.51,7.39.91,7.47.91.25.03,27.31,2.81,54.52-6.63,1.65-.56,3.09-1.37,3.8-2.13.3-.3.51-.66.73-.99.15-.23.3-.46.48-.71.08-.15.05-.76.03-1.09,0-.35-.03-.71,0-1.01,0-.23-.03-.48-.05-.71-.03-.3-.05-.61-.05-.91v-1.95c.08-3.42.43-6.18,1.09-8.68.61-2.35,1.77-5.67,4.61-7.31,1.95-1.11,4.35-1.14,7.01-.1,1.37.56,2.71,1.37,4.08,2.48l.53.43c.89.76,1.52,1.32,2.56,1.39,2.38.23,4.71-1.39,6.25-2.63,1.32-1.04,3.11-1.9,4.83-2.28,3.52-.78,6.4,1.16,7.29,4.96.43,1.87.81,4.56.05,6.76-.48,1.44.53,2.48,1.19,2.99.66.48,1.8.89,3.01,1.34h0ZM618.59,258.87c.15-1.82-1.8-2.63-4.76-3.7-1.39-.51-2.71-.99-3.67-1.7-2-1.52-2.78-3.7-2.05-5.82.43-1.27.38-3.16-.13-5.37-.35-1.42-1.37-3.72-4.28-3.09-1.37.3-2.78.99-3.8,1.8-1.9,1.52-4.83,3.49-8.07,3.19-1.85-.18-2.91-1.09-3.97-1.97l-.48-.43c-1.16-.94-2.28-1.62-3.39-2.08-1.34-.53-3.27-.96-4.83-.05-2.02,1.16-2.91,3.85-3.42,5.75-.61,2.3-.94,4.89-1.01,8.12v1.9c0,.2,0,.4.05.61,0,.4.08.78.05,1.19-.03.2,0,.46,0,.68.05.86.1,1.9-.53,2.73-.13.2-.28.38-.4.58-.3.46-.61.91-.99,1.32-.73.76-1.67,1.37-2.58,1.85,1.59,3.34,6.91,13.52,14.38,19.08,2.05-2.2,3.24-3.52,3.29-3.57.25-.3.68-.46,1.06-.43,19.19,1.9,22.93-1.27,23.64-2.71.96-1.9-1.29-4.4-1.32-4.43-1.24-1.11-1.42-2.38-1.32-3.24.33-2.94,4.25-5.21,4.71-5.47,1.09-.84,3.7-2.78,3.85-4.76h-.03ZM563.26,402.56c18.81-44.72,15.9-96.82,14.91-108.86-.86.84-1.77,1.72-2.71,2.61,2.66,43.46-10.99,87.02-12.6,91.96.43,4.81.58,9.59.4,14.3ZM582.92,285.32c-7.95-6.07-13.36-16.55-14.98-19.95-27.72,9.57-55.23,6.76-55.51,6.73-.35-.05-8.45-.89-11.82-1.67-7.64,2.71-15.84,4.63-24.43,5.72-8.15,8.18-16.73,11.31-24.63,11.31-7.06,0-13.57-2.48-18.68-6.1-2.48-1.77-4.78-3.97-5.85-5.95-.15.13-.28.23-.46.28-.99.33-24.53,7.85-53.03-6.81-.78-.38-1.39-.96-1.95-1.54-1.14,3.67-4.38,11.01-13.26,19.77,6.5,6.68,21.67,21.67,39.13,34.83-.1-.48-.18-.76-.18-.78-.18-.68.23-1.37.91-1.54s1.37.23,1.54.91,4.1,16.55-2,36.27c0,.05-.28.89-.73,2.33,2.94,4.71,32.8,45.41,159.79,7.69-5.34-24.55-14.38-44.9-14.55-45.28-.25-.56-.08-1.21.43-1.57,17.97-12.4,32.85-26.96,40.24-34.65h0ZM562.17,381.86c3.92-13.67,12.58-48.32,10.86-83.27-5.04,4.68-10.99,9.9-17.62,15.11-.1,2.53-.76,12.6-5.24,20.88,4.23,11.67,9.64,29.16,12,47.28h0ZM549.79,436.81c10.58-13.11,12.17-32.58,10.05-51.76-40.4,12.63-71.61,17.11-95.55,17.11-47.94,0-66.8-17.95-72.14-24.55-2.05,9.64-3.52,20.55-1.87,27.84.03.08,0,.13,0,.2,9.9,3.01,18.65,11.44,26.73,20.53,5.52,6.18,11.14,13.59,11.16,21.69,0,1.49-.25,2.96-.73,4.38,9.57-7.87,15.77-16.2,18.53-22.05.15-.3.43-.56.76-.66.35-.1.73-.05,1.04.13,8.91,5.47,26.05,3.82,31.23,3.16-.46-1.27-1.09-3.14-1.47-4.94-.13-.68.33-1.37,1.01-1.49.68-.15,1.34.3,1.49.99.51,2.66,1.72,5.49,1.87,5.87,11.34,18.91,24.4,20.88,25.94,21.06,2.78-.63,35.01-8.12,41.92-17.46v-.03h0l.03-.03ZM558.8,177.57l-2.46-9.39c-13.87,14.12-31.31,22.6-45,27.54l2.05,9.31c14.17-4.83,31.92-13.24,45.41-27.46ZM559.54,382.49c-.58-4.45-1.34-8.86-2.23-13.16-22.75,6.73-42.45,11.04-59.43,13.47l1.16,13.97c17.39-2.53,37.44-7.04,60.49-14.28h0ZM557.03,187.09c0-1.37-.08-2.71-.15-4.08-25.97,24.2-63.53,30.02-66.72,30.47-1.24,4.45-4.08,8.4-8.23,11.59,5.29,4.23,23.69,20.53,21.59,41.56,10.18-4.05,19.31-9.57,27.01-16.45,8.45-7.59,15.26-17.14,19.69-27.59,4.51-10.68,6.81-22.63,6.81-35.51ZM557.26,442.68c0-.48-.15-1.11-1.27-1.72-1.75-1.09-3.67-2.02-4.48-2.2-7.8,9.64-37.92,16.86-42.7,17.95-1.92,4-2.18,6.86-.81,8.58,1.32,1.59,4.3,1.95,8.88.99,11.16-2.33,20.98-7.06,27.26-10.61,2.3-1.32,13.11-8.88,13.11-12.98h0ZM548.96,331.31c2.56-5.72,3.47-12.02,3.77-15.54-2.51,1.92-5.09,3.82-7.75,5.7.71,1.62,2.18,5.09,3.97,9.85h0ZM554.37,166.54c-9.44-38.9-44.8-66.04-86.16-66.04-45.48,0-84.18,34.4-88.41,78.44,14.22-1.62,26.83,4.28,29.46,14.55.38,1.57.53,3.14.43,4.73,1.39-.1,3.67-.13,6.76.28,3.57-13.14,20.96-21.51,40.35-18.93,9.9,1.32,18.86,5.24,25.26,11.06,2.94,2.66,5.14,5.62,6.61,8.68,4.05-.68,40.78-7.49,65.71-32.78h0ZM510.99,205.85l-2.05-9.26c-3.04,1.01-5.82,1.87-8.33,2.56l1.59,9.24c2.63-.66,5.59-1.52,8.78-2.53h0ZM500.84,267.66c2.96-20.98-17.06-37.89-21.08-41.03-.84.53-1.72,1.06-2.68,1.54-5.82,3.01-12.83,4.58-20.2,4.58-2.3,0-4.68-.18-7.04-.48-13.72-1.82-25.01-8.66-30.47-17.29-.33-.1-1.06-.25-1.92-.23h0s-.08,0-.13-.03c.08-.3.13-.58.15-.86,0-.46-.1-.91-.33-1.34-.03-.08-.08-.15-.15-.23.13-.05.28-.08.43-.08h.48c-.91-1.92-1.57-3.92-1.87-5.97-5.32-.76-8.2-.2-8.23-.2-.13.03-.25.03-.35,0-.66,1.27-1.49,2.51-2.43,3.72-1.54.58-2.68,1.47-3.19,2.53-.18.33-.28.73-.28,1.11h0c-4.28,3.95-10.05,7.09-16.73,8.78-2.61.66-5.21,1.06-7.75,1.24-.05.33-.08.66-.13.99-.89,8.76,1.52,17.16,6.81,23.67,18.86,23.29,57.58,26.35,73.35,26.58,15.77.25,30.6-2.2,43.76-7.04l-.03.03ZM499.75,209.01l-1.59-9.19c-4.05,1.04-7.04,1.62-8.5,1.9,1.06,2.99,1.44,6.05,1.04,9.14,1.57-.25,4.76-.84,9.06-1.85ZM496.54,397.12l-1.16-13.97c-2,.28-3.95.51-5.85.73l1.01,14c1.95-.23,3.97-.48,6-.76h0ZM488.18,210.53c.81-6.28-1.95-12.68-7.85-18.02-6-5.49-14.48-9.19-23.87-10.43-2.25-.3-4.51-.43-6.68-.43-16.35,0-29.79,8.07-31.34,19.67-1.72,13.14,12.5,25.89,31.71,28.45,9.39,1.24,18.55-.13,25.77-3.85,7.06-3.64,11.42-9.11,12.25-15.39ZM488.01,398.13l-1.01-13.97c-8.56.91-16.38,1.32-23.49,1.32-19.44,0-33.61-2.99-43.91-6.94l-.35,13.54c14.73,5.52,36.73,9.37,68.77,6.05ZM472.04,276.62c-4.2.4-8.48.63-12.83.63-.73,0-1.44,0-2.18-.03-6.4-.1-16.55-.68-27.69-2.83,1.09,1.77,4.28,5.09,9.72,7.64,6.68,3.14,19.51,6.35,32.98-5.42h0ZM425.29,450.53c.23-.86.35-1.75.35-2.66-.03-7.24-5.34-14.17-10.53-20.02-9.97-11.19-20.93-21.49-33.49-20.81-1.87.1-3.67.35-5.39.73,8.12.23,17.9,3.95,26.42,10.76,10.25,8.2,21.41,22,22.63,31.99h0ZM421.29,456.81c1.19-1.27,1.72-3.01,1.59-5.24-.58-8.99-11.54-22.86-21.82-31.06-8.38-6.71-18-10.35-25.61-10.35-4.4,0-8.18,1.24-10.63,3.8-2.08,2.13-3.04,5.11-2.81,8.58.48,7.34,6.07,16.15,14.63,22.98,13.11,10.48,38.04,18.12,44.65,11.29h0ZM416.73,391.1l.35-13.57c-1.87-.78-3.62-1.62-5.21-2.46l-.4,13.64c1.65.81,3.39,1.59,5.26,2.38ZM415.79,203.69c-.03-.89,0-1.8.15-2.71-3.29-.4-5.52-.3-6.58-.2-.2.89-.46,1.77-.78,2.63,1.39-.1,3.82-.15,7.21.28ZM410.45,118.29c-5.9-.05-10.18,1.27-13.21,3.06,2.4-.43,5.32-.43,8.88.28.1,0,.18.05.25.1,1.32-1.19,2.68-2.33,4.08-3.44ZM409.37,374.17c0-.15.05-.3.1-.43-7.37-4.3-11.44-8.76-13.41-11.44-.91,3.11-2.08,7.34-3.16,12.02,1.04,1.44,5.62,7.37,16.1,13.11l.38-13.26h0ZM384.18,219.77c15.09-3.85,25.24-15.36,22.63-25.64-2.63-10.3-17.06-15.52-32.15-11.67-15.11,3.85-25.26,15.34-22.63,25.61,2.63,10.3,17.03,15.54,32.15,11.69ZM404.1,123.86c-5.8-.84-10.02.28-12.53,3.39-3.54,4.4-2.96,11.72-2.35,15.29,1.01-1.65,2.05-3.27,3.14-4.86-.86-2.71-.71-4.94.51-6.61,1.95-2.66,5.85-2.89,7.04-2.89,1.37-1.49,2.76-2.94,4.2-4.33h0ZM394.36,134.92c.96-1.32,1.97-2.61,3.04-3.85-.96.28-1.92.73-2.48,1.49-.46.61-.61,1.39-.56,2.35ZM369.63,265c-.38-.46-.76-.91-1.09-1.39-.58-.84-1.16-1.65-1.24-2.78-.03-.4,0-.78.05-1.19,0-.2.03-.4.03-.63v-1.9c-.08-3.24-.38-5.82-.96-8.15-.48-1.92-1.32-4.63-3.24-5.8-1.42-.89-3.21-.46-4.43.08-1.06.43-2.1,1.11-3.19,2.08l-.46.4c-.96.86-2.05,1.85-3.82,2.02-3.14.3-5.9-1.7-7.72-3.24-.94-.81-2.28-1.47-3.54-1.77-.89-.2-1.65-.13-2.25.25-.78.51-1.37,1.49-1.67,2.83-.51,2.2-.53,4.13-.13,5.42.68,2.13-.05,4.28-1.95,5.8-.91.73-2.18,1.21-3.49,1.72-2.89,1.09-4.61,1.9-4.45,3.72.13,1.8,1.87,3.42,3.75,4.91.28.15,3.97,2.43,4.3,5.34.1.86-.03,2.13-1.29,3.34,0,0-2.13,2.61-1.14,4.53.73,1.39,4.38,4.45,22.22,2.58.38-.05.78.1,1.06.4.03.03.63.68,1.62,1.72,10.25-10.12,12.6-18.27,13.04-20.3h0Z"/>
      <path class="cls-12" d="M613.83,255.18c2.96,1.06,4.91,1.87,4.76,3.7-.15,1.97-2.76,3.92-3.85,4.76-.46.25-4.38,2.53-4.71,5.47-.1.86.08,2.13,1.32,3.24.03.03,2.28,2.53,1.32,4.43-.71,1.44-4.45,4.61-23.64,2.71-.38-.03-.81.13-1.06.43-.05.05-1.24,1.37-3.29,3.57-7.47-5.57-12.78-15.74-14.38-19.08.91-.48,1.85-1.09,2.58-1.85.38-.4.68-.86.99-1.32.13-.2.28-.38.4-.58.63-.84.58-1.87.53-2.73,0-.23-.03-.48,0-.68,0-.4-.03-.78-.05-1.19-.03-.2-.05-.4-.05-.61v-1.9c.08-3.24.4-5.82,1.01-8.12.51-1.9,1.39-4.58,3.42-5.75,1.57-.91,3.49-.48,4.83.05,1.11.46,2.23,1.14,3.39,2.08l.48.43c1.06.89,2.13,1.8,3.97,1.97,3.24.3,6.18-1.67,8.07-3.19,1.01-.81,2.43-1.49,3.8-1.8,2.91-.63,3.92,1.67,4.28,3.09.51,2.2.56,4.1.13,5.37-.73,2.13.05,4.3,2.05,5.82.96.71,2.28,1.19,3.67,1.7h.03ZM599.05,271.12c3.39-2.43,3.04-8.71-.81-14.02-3.82-5.34-9.67-7.67-13.06-5.21-3.39,2.43-3.01,8.73.81,14.05,3.82,5.32,9.69,7.64,13.06,5.19Z"/>
      <path class="cls-8" d="M598.24,257.1c3.85,5.32,4.2,11.59.81,14.02-3.37,2.46-9.24.13-13.06-5.19-3.82-5.32-4.2-11.62-.81-14.05,3.39-2.46,9.24-.13,13.06,5.21Z"/>
      <path class="cls-15" d="M578.17,293.7c.99,12.05,3.9,64.14-14.91,108.86.18-4.71.03-9.49-.4-14.3,1.62-4.94,15.26-48.5,12.6-91.96.94-.89,1.85-1.77,2.71-2.61Z"/>
      <path class="cls-15" d="M573.03,298.59c1.72,34.95-6.94,69.61-10.86,83.27-2.35-18.12-7.77-35.61-12-47.28,4.48-8.28,5.14-18.35,5.24-20.88,6.63-5.21,12.58-10.43,17.62-15.11h0Z"/>
      <path class="cls-12" d="M556.88,183.02c.08,1.37.15,2.71.15,4.08,0,12.88-2.3,24.83-6.81,35.51-4.43,10.45-11.24,20-19.69,27.59-7.69,6.88-16.83,12.4-27.01,16.45,2.1-21.03-16.3-37.33-21.59-41.56,4.15-3.19,6.99-7.14,8.23-11.59,3.19-.46,40.75-6.28,66.72-30.47Z"/>
      <path class="cls-12" d="M555.99,440.96c1.11.61,1.27,1.24,1.27,1.72,0,4.1-10.81,11.67-13.11,12.98-6.28,3.54-16.1,8.28-27.26,10.61-4.58.96-7.57.61-8.88-.99-1.37-1.72-1.11-4.58.81-8.58,4.78-1.09,34.9-8.3,42.7-17.95.81.18,2.73,1.11,4.48,2.2h0Z"/>
      <path class="cls-16" d="M525.19,135.1c5.85,4.3,8.15,12.88,6.86,25.54-.05.63-.61,1.11-1.24,1.11h-.13c-.71-.08-1.21-.68-1.14-1.39,1.19-11.67-.78-19.49-5.85-23.24-7.29-5.37-18.86-.53-18.96-.48-.66.28-1.39-.03-1.67-.66-.25-.66,0-1.39.68-1.67.53-.23,13.01-5.44,21.44.78Z"/>
      <path class="cls-12" d="M468.21,100.5c41.36,0,76.72,27.13,86.16,66.04-24.93,25.29-61.66,32.09-65.71,32.78-1.47-3.06-3.67-6.02-6.61-8.68-6.4-5.82-15.36-9.74-25.26-11.06-19.39-2.58-36.78,5.8-40.35,18.93-3.09-.4-5.37-.38-6.76-.28.1-1.59-.05-3.16-.43-4.73-2.63-10.28-15.24-16.17-29.46-14.55,4.23-44.04,42.93-78.44,88.41-78.44h0ZM532.05,160.64c1.29-12.66-1.01-21.24-6.86-25.54-8.43-6.23-20.91-1.01-21.44-.78-.66.28-.94,1.01-.68,1.67.28.63,1.01.94,1.67.66.1-.05,11.67-4.89,18.96.48,5.06,3.75,7.04,11.57,5.85,23.24-.08.71.43,1.32,1.14,1.39h.13c.63,0,1.19-.48,1.24-1.11ZM523.9,156.34c.56-4.78-.38-8.35-2.76-10.66-3.39-3.29-8.38-2.58-8.61-2.56-.68.1-1.16.73-1.06,1.44.1.68.76,1.16,1.44,1.06.05,0,3.95-.56,6.45,1.87,1.8,1.72,2.46,4.61,2.02,8.56-.1.68.4,1.32,1.11,1.39h.13c.63,0,1.19-.46,1.27-1.11h0ZM431.66,171.45c1.95-2.66,2.4-5.67.99-6.68s-4.18.35-6.13,3.01-2.38,5.67-.96,6.71c1.42.99,4.18-.35,6.1-3.04ZM406.38,173.25c1.54-.84,1.49-3.85-.1-6.73-1.59-2.91-4.13-4.61-5.67-3.8-1.52.86-1.49,3.9.1,6.76,1.62,2.91,4.15,4.61,5.67,3.77Z"/>
      <path class="cls-8" d="M479.76,226.63c4.02,3.14,24.05,20.05,21.08,41.03-13.16,4.83-27.99,7.29-43.76,7.04-15.77-.23-54.49-3.29-73.35-26.58-5.29-6.5-7.69-14.91-6.81-23.67.05-.33.08-.66.13-.99,2.53-.18,5.14-.58,7.75-1.24,6.68-1.7,12.45-4.83,16.73-8.76,0,.46.08.89.28,1.42.91,2.3,3.9,4.83,7.52,4.94,3.72.1,6.94-2.46,7.87-4.76.05-.1.08-.23.1-.33.05.03.08.03.13.03h0c.86-.03,1.59.13,1.92.23,5.47,8.63,16.76,15.47,30.47,17.29,2.35.3,4.73.48,7.04.48,7.37,0,14.38-1.57,20.2-4.58.96-.48,1.85-1.01,2.68-1.54h.03Z"/>
      <path class="cls-16" d="M453.81,186.51c16.68,2.2,29.08,12.58,27.69,23.13-.61,4.61-3.75,8.5-8.48,11.24s-11.06,4.33-18.02,4.33c-2.05,0-4.13-.13-6.25-.4-7.95-1.06-15.21-3.97-20.4-8.23-5.39-4.38-7.97-9.69-7.26-14.91.68-5.24,4.56-9.69,10.88-12.53,6.13-2.76,13.9-3.7,21.84-2.63h0ZM479,209.31c1.21-9.16-10.23-18.27-25.51-20.3-2.02-.25-4.02-.4-6-.4-5.32,0-10.33.99-14.48,2.83-5.49,2.48-8.83,6.23-9.42,10.55s1.7,8.81,6.35,12.63c4.83,3.95,11.64,6.66,19.14,7.67,15.29,2,28.7-3.8,29.92-12.98h0Z"/>
      <path class="cls-12" d="M459.2,277.25c4.35,0,8.63-.23,12.83-.63-13.47,11.77-26.3,8.56-32.98,5.42-5.44-2.56-8.63-5.87-9.72-7.64,11.14,2.15,21.29,2.73,27.69,2.83.73.03,1.44.03,2.18.03h0Z"/>
      <path class="cls-16" d="M454.93,298.84c1.65,0,2.99,1.34,2.99,2.99s-1.34,2.99-2.99,2.99-2.96-1.34-2.96-2.99,1.32-2.99,2.96-2.99Z"/>
      <path class="cls-16" d="M453.84,330.68c1.65,0,2.99,1.32,2.99,2.96s-1.34,2.99-2.99,2.99-2.99-1.34-2.99-2.99,1.34-2.96,2.99-2.96Z"/>
      <path class="cls-16" d="M451.96,365.71c1.65,0,2.96,1.34,2.96,2.99s-1.32,2.99-2.96,2.99-2.99-1.34-2.99-2.99,1.34-2.99,2.99-2.99Z"/>
      <path class="cls-8" d="M432.65,164.77c1.42,1.01.96,4.02-.99,6.68-1.92,2.68-4.68,4.02-6.1,3.04-1.42-1.04-.99-4.05.96-6.71s4.71-4.02,6.13-3.01Z"/>
      <path class="cls-12" d="M425.64,447.87c0,.91-.13,1.8-.35,2.66-1.21-10-12.38-23.79-22.63-31.99-8.53-6.81-18.3-10.53-26.42-10.76,1.72-.38,3.52-.63,5.39-.73,12.55-.68,23.51,9.62,33.49,20.81,5.19,5.85,10.5,12.78,10.53,20.02h0Z"/>
      <path class="cls-4" d="M422.88,451.57c.13,2.23-.4,3.97-1.59,5.24-6.61,6.83-31.54-.81-44.65-11.29-8.56-6.83-14.15-15.64-14.63-22.98-.23-3.47.73-6.45,2.81-8.58,2.46-2.56,6.23-3.8,10.63-3.8,7.62,0,17.24,3.64,25.61,10.35,10.28,8.2,21.24,22.07,21.82,31.06h0Z"/>
      <path class="cls-12" d="M417.87,212.25h-.48c-.15,0-.3,0-.43.08-1.04-1.8-3.92-3.14-7.34-3.24-1.72-.05-3.32.23-4.63.73.94-1.21,1.77-2.46,2.43-3.72.1.03.23.03.35,0,.03,0,2.91-.56,8.23.2.3,2.05.96,4.05,1.87,5.97v-.03Z"/>
      <path class="cls-4" d="M397.24,121.36c3.04-1.8,7.31-3.11,13.21-3.06-1.39,1.11-2.76,2.25-4.08,3.44-.08-.05-.15-.1-.25-.1-3.57-.71-6.48-.71-8.88-.28Z"/>
      <path class="cls-8" d="M406.28,166.51c1.59,2.89,1.65,5.9.1,6.73-1.52.84-4.05-.86-5.67-3.77-1.59-2.86-1.62-5.9-.1-6.76,1.54-.81,4.08.89,5.67,3.8Z"/>
      <path class="cls-16" d="M405.19,194.53c2.18,8.5-6.91,18.17-20.25,21.57-3.14.81-6.3,1.21-9.34,1.21s-6-.43-8.63-1.24c-5.44-1.72-9.04-4.99-10.12-9.21-2.15-8.5,6.94-18.17,20.25-21.57,6.35-1.62,12.73-1.59,17.97.03,5.47,1.72,9.06,4.99,10.12,9.21ZM384.33,213.64c11.97-3.04,20.22-11.34,18.4-18.48-.84-3.34-3.85-5.97-8.43-7.42-2.38-.76-5.06-1.14-7.87-1.14s-5.75.38-8.71,1.14c-11.97,3.06-20.25,11.34-18.43,18.48.86,3.34,3.85,5.97,8.43,7.42,4.81,1.52,10.71,1.49,16.6,0Z"/>
      <path class="cls-15" d="M417.11,212.53s-.08-.15-.15-.23c-1.04-1.8-3.92-3.14-7.34-3.24-1.72-.05-3.32.23-4.63.73-1.54.58-2.68,1.47-3.19,2.53-.18.33-.28.73-.28,1.11h0c0,.48.08.91.28,1.44.91,2.3,3.9,4.83,7.52,4.94,3.72.1,6.94-2.46,7.87-4.76.05-.1.08-.23.1-.33.08-.3.13-.58.15-.86,0-.46-.1-.91-.33-1.34h0Z"/>
      <path class="cls-12" d="M391.57,127.25c2.51-3.11,6.73-4.23,12.53-3.39-1.44,1.39-2.83,2.83-4.2,4.33-1.19,0-5.09.23-7.04,2.89-1.21,1.67-1.37,3.9-.51,6.61-1.09,1.59-2.13,3.21-3.14,4.86-.61-3.57-1.19-10.88,2.35-15.29h0Z"/>
      <path class="cls-8" d="M397.39,131.08c-1.06,1.24-2.08,2.53-3.04,3.85-.05-.96.1-1.75.56-2.35.56-.76,1.52-1.21,2.48-1.49Z"/>
      <path class="cls-12" d="M368.54,263.61c.33.48.71.94,1.09,1.39-.43,2.02-2.78,10.18-13.04,20.3-.99-1.04-1.59-1.7-1.62-1.72-.28-.3-.68-.46-1.06-.4-17.84,1.87-21.49-1.19-22.22-2.58-.99-1.92,1.14-4.53,1.14-4.53,1.27-1.21,1.39-2.48,1.29-3.34-.33-2.91-4.02-5.19-4.3-5.34-1.87-1.49-3.62-3.11-3.75-4.91-.15-1.82,1.57-2.63,4.45-3.72,1.32-.51,2.58-.99,3.49-1.72,1.9-1.52,2.63-3.67,1.95-5.8-.4-1.29-.38-3.21.13-5.42.3-1.34.89-2.33,1.67-2.83.61-.38,1.37-.46,2.25-.25,1.27.3,2.61.96,3.54,1.77,1.82,1.54,4.58,3.54,7.72,3.24,1.77-.18,2.86-1.16,3.82-2.02l.46-.4c1.09-.96,2.13-1.65,3.19-2.08,1.21-.53,3.01-.96,4.43-.08,1.92,1.16,2.76,3.87,3.24,5.8.58,2.33.89,4.91.96,8.15v1.9c0,.23-.03.43-.03.63-.05.4-.08.78-.05,1.19.08,1.14.66,1.95,1.24,2.78ZM357.35,269.35c3.82-5.32,4.2-11.62.81-14.05-3.39-2.46-9.24-.1-13.06,5.21-3.85,5.32-4.2,11.59-.81,14.05,3.37,2.43,9.24.1,13.06-5.21Z"/>
      <path class="cls-8" d="M358.16,255.3c3.39,2.43,3.01,8.73-.81,14.05s-9.69,7.64-13.06,5.21c-3.39-2.46-3.04-8.73.81-14.05,3.82-5.32,9.67-7.67,13.06-5.21Z"/>
      <polygon class="cls-8" points="512.1 144.95 522.76 156.89 522.63 149.1 519.19 145.25 512.1 144.95"/>
      <path class="cls-16" d="M521.14,145.68c2.38,2.3,3.32,5.87,2.76,10.66-.08.66-.63,1.11-1.27,1.11h-.13c-.71-.08-1.21-.71-1.11-1.39.43-3.95-.23-6.83-2.02-8.56-2.51-2.43-6.4-1.87-6.45-1.87-.68.1-1.34-.38-1.44-1.06-.1-.71.38-1.34,1.06-1.44.23-.03,5.21-.73,8.61,2.56h0Z"/>
    </g>
    <path class="cls-16" d="M409.34,248.42c-1.92,0-3.85-.76-5.54-2.18-2.02-1.72-3.49-4.28-4.1-7.16-1.27-6.07,1.67-11.87,6.56-12.88,4.86-1.01,9.9,3.09,11.16,9.19h0c1.27,6.07-1.67,11.87-6.56,12.88-.51.1-1.01.15-1.52.15ZM407.77,228.55c-.33,0-.66.03-1.01.1-3.52.73-5.57,5.16-4.58,9.9.48,2.35,1.65,4.38,3.27,5.75,1.52,1.29,3.27,1.8,4.91,1.47,3.52-.73,5.57-5.16,4.58-9.9h0c-.89-4.28-3.97-7.34-7.16-7.34v.03Z"/>
  </g>
  <g id="_伊_묒슜1" data-name="_伊??묒슜1">
    <ellipse class="cls-9" cx="744.76" cy="475.31" rx="39.51" ry="13.87"/>
    <ellipse class="cls-9" cx="888.76" cy="462.44" rx="32.96" ry="10" transform="translate(-75.97 192.19) rotate(-11.84)"/>
    <g>
      <ellipse class="cls-18" cx="661.01" cy="261.51" rx="1.16" ry="2.81"/>
      <path class="cls-18" d="M673.36,308.84c.63,0,2.1,2.1,2.1,6.2s-1.47,6.2-2.1,6.2c-.71,0-2.08-2.4-2.08-6.2s1.37-6.2,2.08-6.2Z"/>
      <path class="cls-18" d="M709.88,370.01v.1c0,1.42-.56,2.83-1.54,3.95-1.04,1.16-2.4,1.9-3.85,2.05-1.42.15-2.76-.28-3.75-1.16-1.01-.89-1.57-2.15-1.59-3.57,0-1.47.53-2.91,1.57-4.08,1.01-1.16,2.38-1.87,3.85-2.02.18-.03.38-.03.56-.03,1.21,0,2.33.4,3.19,1.16.99.89,1.57,2.18,1.57,3.59h0Z"/>
      <path class="cls-18" d="M785.44,335.31c1.04,2.33.56,4.91-1.01,5.59-1.59.68-3.8-.71-4.83-3.04-1.01-2.35-.53-4.91,1.04-5.62.28-.1.56-.18.89-.18.48,0,1.04.18,1.57.48.99.56,1.82,1.54,2.35,2.76Z"/>
      <path class="cls-18" d="M739.12,332.5c.76,4.73-2.13,12.6-6.13,14.07-1.97.71-3.97.61-5.59-.33-1.75-.99-2.94-2.81-3.37-5.11,0,0-.03-.05-.03-.1.1-.3.1-.66-.05-.99-2.46-5.06-1.04-10.83,3.16-12.88,4.18-2.02,9.52.38,12,5.34Z"/>
      <path class="cls-18" d="M768.1,269.12c-.3.28-.63.48-1.09.63-2.23.76-4.89-.33-6.68-1.19-1.49-.73-3.42-1.14-5.19-1.14h-.03c-3.62,0-5.97,2.53-6,6.45-.03,1.92.23,4.61,1.44,6.58.78,1.32,0,2.56-.51,3.19-.43.51-1.19,1.04-2.05,1.59-2.13-5.42-3.47-12.38-1.37-17.26,1.11-2.63,3.16-4.51,6.07-5.57,5.95-2.2,12.4.71,15.39,6.71h0Z"/>
      <path class="cls-18" d="M701.73,284.97c2.46,5.06,1.04,10.83-3.16,12.88-2,.96-4.35.96-6.61-.03-2.33-1.04-4.28-2.96-5.47-5.47-2.46-5.06-1.04-10.83,3.16-12.86,1.01-.51,2.08-.73,3.16-.73,3.47,0,7.06,2.35,8.91,6.2h0Z"/>
      <path class="cls-18" d="M713,228.45c1.49,3.04,1.7,6.5.58,9.69-1.11,3.21-3.42,5.8-6.45,7.29-3.06,1.47-6.5,1.67-9.72.56s-5.8-3.39-7.29-6.45c-1.47-3.06-1.67-6.5-.56-9.72s3.39-5.8,6.45-7.26c1.75-.86,3.64-1.29,5.54-1.29,1.39,0,2.81.25,4.18.71,3.19,1.11,5.8,3.42,7.26,6.48Z"/>
      <path class="cls-8" d="M928.09,320.18c-.56,19.49-3.9,46.55-16.02,70.97-.56-6.43-1.54-12.5-2.56-17.79l-.08-.46c1.8-3.21,14.02-25.46,18.65-52.72Z"/>
      <path class="cls-11" d="M909.51,96.78c10.4,15.44,12.5,34.7,5.34,49.08-6.23,12.45-15.52,19.39-29.26,21.82-.68.1-1.14.76-1.01,1.44.1.63.63,1.06,1.24,1.06.08,0,.15-.03.23-.03,6.2-1.09,11.52-3.11,16.12-6.02.51,1.49.94,2.86,1.34,4.43-23.31,23.72-54.8,30.78-61.63,32.07l-.1-1.57c-.43-8.12-4.02-15.59-10.1-21.03-6.07-5.42-13.87-8.18-22.02-7.72l-11.09.61c-16.02.89-28.45,14.05-28.78,29.82-3.14-.4-5.47-.38-6.86-.28.66-13.57-9.47-25.41-23.13-26.68l-9.39-.86h-.3c4.02-21.34,15.87-39.59,32.4-52.17.13-.05.23-.13.33-.25,15.11-11.36,34.07-18.02,54.52-18.02,9.52,0,17.92,1.27,26.37,3.87-1.14,3.39-1.59,6.76-1.06,9.95.13.71.78,1.14,1.47,1.04s1.14-.76,1.04-1.44c-1.82-10.73,8.71-24.2,19.89-31.01,14.81-8.99,35.69-1.14,44.45,11.9h0ZM911.11,136.42c4.96-11.21,2.76-25.79-5.64-37.11-7.31-9.85-23.54-15.36-35.16-7.57-.58.38-.73,1.16-.35,1.75.4.58,1.19.73,1.77.35,10.12-6.81,25.08-1.95,31.69,6.96,7.87,10.63,9.97,24.2,5.37,34.6-4.13,9.31-8.68,16.3-17.44,20.07-.63.28-.94,1.04-.66,1.67.2.48.68.76,1.16.76.18,0,.33,0,.51-.1,10.07-4.33,14.96-12.83,18.76-21.39h0ZM796.58,163.63c0-2.78-3.24-5.04-7.21-5.04s-7.21,2.25-7.21,5.04,3.21,5.01,7.21,5.01,7.21-2.25,7.21-5.01ZM759.17,163.63c0-2.78-3.21-5.04-7.19-5.04s-7.21,2.25-7.21,5.04,3.21,5.01,7.21,5.01,7.19-2.25,7.19-5.01Z"/>
      <path class="cls-13" d="M909.11,387c1.72,14.4,1.57,31.31-5.87,45.28-1.27,2.35-2.71,4.56-4.3,6.53h0v.05c-6.91,9.31-39.16,16.83-41.92,17.46-1.57-.18-14.6-2.15-25.94-21.06-.18-.4-1.37-3.24-1.9-5.87-.13-.68-.78-1.14-1.47-.99-.68.13-1.14.78-1.01,1.47.38,1.82,1.01,3.7,1.47,4.94-5.19.68-22.32,2.33-31.23-3.14-.3-.2-.68-.25-1.04-.13-.33.1-.61.33-.78.66-2.73,5.85-8.93,14.17-18.5,22.05.48-1.42.73-2.89.73-4.4-.03-8.07-5.64-15.49-11.16-21.69-8.43-9.44-17.57-18.22-27.99-20.88-.53-6.1.48-15.16,3.16-27.64,5.37,6.63,24.25,24.53,72.11,24.53,23.97,0,55.23-4.51,95.68-17.16h-.03Z"/>
      <path class="cls-13" d="M905.49,170.18l2.43,9.39c-12.73,13.44-29.08,21.57-42.6,26.42l-2.13-8.93c12.78-4.86,28.88-13.16,42.29-26.88Z"/>
      <path class="cls-6" d="M907.03,373.84c.63,3.27,1.24,6.83,1.75,10.63-23.11,7.24-43.18,11.77-60.59,14.3l-1.16-13.9c17.01-2.48,36.7-6.81,59.48-13.57.18.84.38,1.67.53,2.53h0Z"/>
      <path class="cls-11" d="M906.38,444.68c.03,4.1-10.78,11.67-13.09,12.98-6.28,3.54-16.12,8.28-27.26,10.61-4.58.96-7.57.61-8.88-1.01-1.39-1.7-1.11-4.58.81-8.56,4.78-1.09,34.9-8.33,42.67-17.97.84.2,2.76,1.14,4.51,2.2,1.11.63,1.24,1.27,1.24,1.75Z"/>
      <path class="cls-11" d="M906.02,185.01c.05,1.37.15,2.73.15,4.08,0,12.86-2.3,24.83-6.81,35.51-4.43,10.45-11.24,19.97-19.72,27.56-18.86,16.93-42.22,22.4-58.95,23.97-1.44-3.32-4.02-6.1-7.47-8.07l-46.93-26.98v-6.35c3.8-.58,6.71-3.75,6.71-6.05,0-2.53-3.57-4.61-7.97-4.61s-7.95,2.08-7.95,4.61c0,2.3,2.91,5.44,6.68,6.05v4.89l-15.84-9.11c7.97-3.85,13.36-11.49,14.17-20.55l.18-1.7c.94-.13,3.64-.33,7.92.28.78,7.52,4.25,14.4,9.92,19.46,5.64,5.06,12.81,7.77,20.32,7.77.56,0,1.14,0,1.7-.05l11.09-.61c12.58-.68,22.96-8.93,27.01-20.07,3.39-.46,40.02-5.97,65.78-30.02Z"/>
      <path class="cls-13" d="M869.09,286.18c14.86,26.15,30.2,53.13,36.88,82.64-74.72,22.2-115.57,18.05-137.52,8.99-.23-.23-.53-.4-.91-.4h-.05c-2.56-1.09-4.83-2.25-6.88-3.42-.1-.1-.23-.18-.35-.23-2.89-1.7-5.26-3.47-7.26-5.16l48.5-24.5c4.99-2.53,8.15-7.21,9.39-13.92l.38-2c6.28,3.24,13.14,6.45,20.32,9.34.15.08.33.1.48.1.51,0,.96-.3,1.16-.81.25-.63-.05-1.39-.71-1.65-20.25-8.1-37.99-18.98-46.9-24.86,6.4-7.69,9.37-19.11,10.18-22.78,29.16,3.19,55.36-5.64,55.63-5.75.66-.23,1.01-.94.78-1.59s-.96-1.01-1.62-.78c-.18.05-13.39,4.51-31.36,5.9l1.21-6.61c11.04-.99,25.01-3.67,38.78-10.12,3.21,5.87,6.61,11.85,9.87,17.62h0ZM804.07,370.7c0-1.65-1.32-2.99-2.96-2.99s-2.99,1.34-2.99,2.99,1.34,2.96,2.99,2.96,2.96-1.32,2.96-2.96Z"/>
      <path class="cls-6" d="M860.82,197.95l2.13,8.88c-3.09,1.04-6.02,1.92-8.66,2.63l-1.75-8.83c2.48-.71,5.26-1.59,8.28-2.68h0Z"/>
      <path class="cls-13" d="M850.08,201.32l1.75,8.78c-5.04,1.27-8.83,1.95-10.78,2.25.76-2.91,1.11-6,.96-9.16,1.47-.28,4.3-.84,8.07-1.87Z"/>
      <path class="cls-13" d="M844.51,385.23l1.16,13.9c-2.05.25-4.05.53-6,.73l-1.01-13.9c1.9-.23,3.85-.48,5.85-.73Z"/>
      <path class="cls-13" d="M839.48,203.14c.86,15.39-10.99,28.6-26.37,29.44l-11.09.63c-15.41.84-28.6-10.99-29.46-26.37l-.23-3.92c-.84-15.39,10.99-28.6,26.37-29.46l11.11-.61c.51-.03,1.04-.05,1.57-.05,6.88,0,13.44,2.51,18.6,7.14,5.57,4.99,8.86,11.82,9.26,19.29,0,0,.23,3.92.23,3.92ZM823.66,218.5c3.85-4.3,5.77-9.77,5.42-15.41l-.15-2.78c-.76-12.1-11.77-21.46-24.58-20.81l-8.35.4c-6.45.3-12.3,3.04-16.48,7.69-3.85,4.3-5.77,9.77-5.44,15.41l.18,2.78c.71,11.72,11.09,20.86,23.36,20.86.4,0,.81-.03,1.21-.03l8.35-.43c6.45-.3,12.3-3.04,16.48-7.69h0Z"/>
      <path class="cls-6" d="M836.16,386.24l.99,13.9c-32.02,3.32-54.04-.51-68.77-6.02l.35-13.49c10.3,4.02,24.37,6.99,43.59,6.99,7.21,0,15.14-.43,23.84-1.37h0Z"/>
      <path class="cls-1" d="M829.07,203.09c.35,5.64-1.57,11.11-5.42,15.41-4.18,4.66-10.02,7.39-16.48,7.69l-8.35.43c-.4,0-.81.03-1.21.03-12.28,0-22.65-9.14-23.36-20.86l-.18-2.78c-.33-5.64,1.59-11.11,5.44-15.41,4.18-4.66,10.02-7.39,16.48-7.69l8.35-.4c12.81-.66,23.82,8.71,24.58,20.81l.15,2.78h0ZM821.76,216.81c3.39-3.8,5.11-8.61,4.81-13.57l-.18-2.78c-.63-10.38-9.87-18.48-20.83-18.48h-1.09l-8.35.43c-5.8.28-11.01,2.71-14.73,6.86-3.39,3.8-5.09,8.61-4.78,13.57l.18,2.78c.66,10.73,10.53,19.03,21.92,18.45l8.35-.43c5.77-.28,11.01-2.71,14.71-6.86v.03Z"/>
      <path class="cls-6" d="M826.57,203.24c.3,4.96-1.42,9.77-4.81,13.57-3.7,4.15-8.93,6.58-14.71,6.86l-8.35.43c-11.39.58-21.26-7.72-21.92-18.45l-.18-2.78c-.3-4.96,1.39-9.77,4.78-13.57,3.72-4.15,8.93-6.58,14.73-6.86l8.35-.43h1.09c10.96,0,20.2,8.1,20.83,18.48l.18,2.78v-.03Z"/>
      <path class="cls-14" d="M818.22,276.84l-1.59,8.63c-6.48.38-13.49.33-20.68-.48-1.72-.18-3.29-.63-4.18-1.24-.35-.23-.63-.51-.91-.78-.2-.18-.4-.38-.63-.56-.1-.15-.23-.76-.28-1.09s-.13-.68-.2-.96c-.08-.25-.1-.48-.13-.73-.05-.3-.08-.58-.15-.89l-.15-.68c-.1-.4-.2-.81-.3-1.19-.84-3.34-1.8-5.95-2.99-8.25-1.11-2.15-2.99-5.14-6.13-6.1-2.13-.66-4.51-.15-6.86,1.47-1.11.76-2.15,1.77-3.16,3.01-3.75-6.5-11.19-9.49-18.05-6.96-3.59,1.32-6.13,3.64-7.52,6.94-2.96,6.94,0,15.95,1.52,19.69-2.15,1.52-4.2,3.54-3.27,6.5.81,2.63,3.54,4.15,6.5,5.47,1.16.33,3.7,1.44,4.13,2.68.05.15.18.56-.38,1.37-.1.18-2.53,4.48-.08,7.47,2.99,3.67,11.44,3.14,25.82-1.59.46.33,1.21.86,2.2,1.54l-39.99,20.22c-3.32-5.44-9.64-7.9-14.73-5.44-5.14,2.48-7.11,9.06-4.78,15.09l-8.4,4.45c-5.26,2.66-11.59,2.76-16.93.3-4.4-2.05-7.47-5.62-8.48-9.8l-29.16-122.78c-1.24-5.19.81-10.38,5.49-13.87,4.99-3.72,13.39-5.54,20.91-1.21l127.29,73.17c2.89,1.65,5.01,3.92,6.25,6.61h0ZM715.96,238.98c1.34-3.85,1.09-7.97-.68-11.64-1.77-3.67-4.89-6.43-8.73-7.75-3.82-1.34-7.97-1.09-11.64.68-3.64,1.77-6.4,4.89-7.75,8.71-1.34,3.85-1.09,8,.68,11.67,1.8,3.64,4.89,6.4,8.73,7.75,1.65.56,3.32.84,5.01.84,2.28,0,4.53-.51,6.63-1.52,3.67-1.8,6.43-4.89,7.75-8.73ZM699.68,300.13c5.44-2.66,7.42-9.95,4.35-16.28-3.09-6.3-10-9.29-15.49-6.63-5.44,2.63-7.39,9.95-4.33,16.25,1.47,3.04,3.85,5.39,6.73,6.66,1.47.66,2.99.96,4.45.96s2.94-.3,4.28-.96h0Z"/>
      <path class="cls-14" d="M808.9,326.96l-.51,2.76c-1.11,5.97-3.75,9.92-8.05,12.1l-93.37,47.21c-4.08,2.08-8.83,2.48-13.21,1.29l3.19-42.47c2.3.78,4.71,1.19,7.11,1.19,3.42,0,6.83-.78,9.95-2.35l7.82-4.15c.68,2.61,2.18,4.68,4.3,5.92,1.32.76,2.78,1.14,4.3,1.14,1.14,0,2.28-.23,3.42-.63,5.16-1.87,8.5-10.38,7.85-16.28l41.46-20.96c5.34,3.54,14.48,9.31,25.74,15.24h0ZM785.44,343.23c2.89-1.27,3.92-5.29,2.33-8.93-.76-1.72-1.97-3.11-3.42-3.95-1.59-.91-3.27-1.06-4.73-.4-2.89,1.27-3.95,5.26-2.33,8.93,1.27,2.91,3.82,4.73,6.28,4.73.63,0,1.27-.13,1.87-.38ZM710.24,375.76c1.44-1.62,2.23-3.7,2.18-5.77-.03-2.15-.89-4.08-2.43-5.44s-3.54-2-5.7-1.8c-2.08.23-4.02,1.24-5.47,2.89-1.44,1.62-2.23,3.67-2.2,5.77.03,2.15.91,4.08,2.43,5.44,1.34,1.19,3.04,1.82,4.86,1.82.28,0,.56-.03.84-.05,2.1-.23,4.05-1.24,5.49-2.86h0Z"/>
      <path class="cls-6" d="M801.11,367.71c1.65,0,2.96,1.34,2.96,2.99s-1.32,2.96-2.96,2.96-2.99-1.32-2.99-2.96,1.34-2.99,2.99-2.99Z"/>
      <path class="cls-6" d="M789.36,158.59c3.97,0,7.21,2.25,7.21,5.04s-3.24,5.01-7.21,5.01-7.21-2.25-7.21-5.01,3.21-5.04,7.21-5.04Z"/>
      <path class="cls-11" d="M790.37,285.88c.86.58,1.92.96,2.91,1.21-.81,3.59-3.72,14.58-9.69,21.67-.08.03-.13.05-.2.05-2.43-1.62-3.82-2.63-3.87-2.68-.33-.25-.76-.3-1.16-.18-18.25,6.1-22.63,3.85-23.64,2.61-1.32-1.59.25-4.53.23-4.53.63-.86.84-1.7.84-2.38,0-.46-.1-.84-.2-1.16-.96-2.78-5.32-4.13-5.64-4.23-1.42-.63-4.35-1.95-4.96-3.85-.53-1.72,1.16-2.96,3.82-4.66,1.24-.81,2.43-1.57,3.21-2.48,1.62-1.92,1.87-4.2.71-6.13-.71-1.14-1.09-3.01-1.06-5.24,0-1.47.48-3.95,3.47-3.95h.03c1.39,0,2.91.33,4.08.89,2.2,1.06,5.47,2.35,8.58,1.32,1.77-.56,2.61-1.72,3.44-2.81l.38-.51c.94-1.19,1.85-2.1,2.86-2.78,1.16-.81,2.94-1.67,4.68-1.11,2.23.68,3.7,3.09,4.61,4.83,1.11,2.13,2,4.58,2.78,7.69.1.38.2.76.28,1.14l.18.71c.05.2.05.4.08.61.05.38.1.78.23,1.16.05.2.1.43.15.68.15.84.33,1.85,1.11,2.53.18.15.35.33.53.48.38.38.78.76,1.27,1.09Z"/>
      <path class="cls-6" d="M787.77,334.3c1.59,3.64.56,7.67-2.33,8.93-.61.25-1.24.38-1.87.38-2.46,0-5.01-1.82-6.28-4.73-1.62-3.67-.56-7.67,2.33-8.93,1.47-.66,3.14-.51,4.73.4,1.44.84,2.66,2.23,3.42,3.95ZM784.43,340.91c1.57-.68,2.05-3.27,1.01-5.59-.53-1.21-1.37-2.2-2.35-2.76-.53-.3-1.09-.48-1.57-.48-.33,0-.61.08-.89.18-1.57.71-2.05,3.27-1.04,5.62,1.04,2.33,3.24,3.72,4.83,3.04Z"/>
      <path class="cls-11" d="M774.78,449.87c0,.91-.13,1.8-.35,2.66-1.21-10-12.38-23.79-22.63-31.99-8.53-6.81-18.3-10.53-26.42-10.78,1.72-.38,3.52-.63,5.39-.71,12.6-.66,23.51,9.62,33.49,20.81,5.19,5.82,10.5,12.78,10.53,20.02h0Z"/>
      <path class="cls-7" d="M772,453.54c.15,2.25-.38,4-1.59,5.24-6.58,6.86-31.51-.78-44.62-11.26-8.56-6.83-14.17-15.64-14.63-22.98-.23-3.49.73-6.45,2.81-8.58,2.46-2.58,6.23-3.8,10.63-3.8,7.62,0,17.24,3.64,25.61,10.35,10.28,8.2,21.24,22.07,21.79,31.03h0Z"/>
      <path class="cls-6" d="M773.01,228.68c0,2.3-2.91,5.47-6.71,6.05v6.35l-2.53-1.47v-4.89c-3.77-.61-6.68-3.75-6.68-6.05,0-2.53,3.57-4.61,7.95-4.61s7.97,2.08,7.97,4.61Z"/>
      <path class="cls-13" d="M769.82,203.29l.15,2.66c-3.62-.48-6.13-.4-7.47-.28l.25-2.66c1.19-.1,3.57-.2,7.06.28Z"/>
      <polygon class="cls-1" points="766.3 241.08 766.3 241.74 763.77 240.85 763.77 239.61 766.3 241.08"/>
      <path class="cls-13" d="M766.23,379.58l-.35,13.54c-1.87-.78-3.64-1.57-5.26-2.38l.4-13.67c1.59.86,3.34,1.7,5.21,2.51h0Z"/>
      <path class="cls-11" d="M743.7,90.98c8.99,5.44,18.2,18.7,17.03,27.97-13.82,10.55-24.43,24.98-30.09,41.84-12.17-2.15-22.12-5.04-29.72-18.2-7.52-12.98-5.54-28.85,5.09-41.38,9.11-10.73,25.69-17.46,37.69-10.23h0ZM755.27,115.71c.68-10.15-10.45-17.67-17.14-20.5-10.86-4.58-27.29,2.1-31.94,13.04-.28.66.03,1.39.66,1.67s1.39-.03,1.67-.66c4.1-9.64,19.08-15.77,28.6-11.72,7.9,3.34,16.12,10.4,15.62,18-.05.71.48,1.32,1.19,1.37h.08c.66,0,1.21-.51,1.27-1.19h0Z"/>
      <path class="cls-13" d="M739.57,176.31c12.63,1.16,21.94,12.38,20.78,24.98l-.76,8.43c-.81,8.76-6.3,16.07-14.38,19.24l-6.66-3.85c9.47-1.21,17.64-8.35,18.55-17.06l.61-5.97c.46-4.56-.96-9.11-4-12.76-3.47-4.2-8.78-6.86-14.58-7.34l-7.44-.61c-11.34-.94-21.29,6.56-22.32,16.68l-.61,5.97c-.13,1.34-.1,2.71.1,4.02l-4.43-2.53.76-9.29c1.16-12.63,12.38-21.94,24.98-20.78l9.39.86h0Z"/>
      <path class="cls-6" d="M758.51,375.66l-.38,13.77c-10.38-5.67-14.96-11.52-16.07-13.09.2-.78.35-1.54.56-2.38v-.1l7.95-4.02c2.13,1.9,4.73,3.9,7.95,5.82h0Z"/>
      <path class="cls-6" d="M751.98,158.59c3.97,0,7.19,2.25,7.19,5.04s-3.21,5.01-7.19,5.01-7.21-2.25-7.21-5.01,3.21-5.04,7.21-5.04Z"/>
      <path class="cls-6" d="M751.77,190.94c2.61,3.14,3.82,6.99,3.42,10.88l-.61,5.97c-.89,8.68-10.25,15.62-20.17,14.93l-22.6-12.98c-.53-1.8-.71-3.62-.51-5.47l.61-5.97c.91-8.76,9.67-15.24,19.57-14.43l7.47.61c5.11.43,9.8,2.78,12.83,6.45h0Z"/>
      <path class="cls-1" d="M715.28,227.34c1.77,3.67,2.02,7.8.68,11.64-1.32,3.85-4.08,6.94-7.75,8.73-2.1,1.01-4.35,1.52-6.63,1.52-1.7,0-3.37-.28-5.01-.84-3.85-1.34-6.94-4.1-8.73-7.75-1.77-3.67-2.02-7.82-.68-11.67,1.34-3.82,4.1-6.94,7.75-8.71,3.67-1.77,7.82-2.02,11.64-.68,3.85,1.32,6.96,4.08,8.73,7.75ZM713.58,238.14c1.11-3.19.91-6.66-.58-9.69-1.47-3.06-4.08-5.37-7.26-6.48-1.37-.46-2.78-.71-4.18-.71-1.9,0-3.8.43-5.54,1.29-3.06,1.47-5.34,4.05-6.45,7.26s-.91,6.66.56,9.72c1.49,3.06,4.08,5.34,7.29,6.45s6.66.91,9.72-.56c3.04-1.49,5.34-4.08,6.45-7.29Z"/>
      <path class="cls-5" d="M712.42,369.99c.05,2.08-.73,4.15-2.18,5.77s-3.39,2.63-5.49,2.86c-.28.03-.56.05-.84.05-1.82,0-3.52-.63-4.86-1.82-1.52-1.37-2.4-3.29-2.43-5.44,0-2.1.76-4.15,2.2-5.77,1.44-1.65,3.39-2.66,5.47-2.89,2.15-.2,4.15.43,5.7,1.8,1.54,1.37,2.4,3.29,2.43,5.44h0ZM709.88,370.12v-.1c0-1.42-.58-2.71-1.57-3.59-.86-.76-1.97-1.16-3.19-1.16-.18,0-.38,0-.56.03-1.47.15-2.83.86-3.85,2.02-1.04,1.16-1.59,2.61-1.57,4.08.03,1.42.58,2.68,1.59,3.57.99.89,2.33,1.32,3.75,1.16,1.44-.15,2.81-.89,3.85-2.05.99-1.11,1.54-2.53,1.54-3.95h0Z"/>
      <path class="cls-1" d="M704.04,283.86c3.06,6.33,1.09,13.62-4.35,16.28-1.34.66-2.78.96-4.28.96s-2.99-.3-4.45-.96c-2.89-1.27-5.26-3.62-6.73-6.66-3.06-6.3-1.11-13.62,4.33-16.25,5.49-2.66,12.4.33,15.49,6.63h0ZM698.57,297.85c4.2-2.05,5.62-7.82,3.16-12.88-1.85-3.85-5.44-6.2-8.91-6.2-1.09,0-2.15.23-3.16.73-4.2,2.02-5.62,7.8-3.16,12.86,1.19,2.51,3.14,4.43,5.47,5.47,2.25.99,4.61.99,6.61.03h0Z"/>
      <path class="cls-14" d="M694.5,346.83l-3.21,42.62c-.13-.08-.25-.1-.38-.15-4.15-1.95-7.09-5.32-8.02-9.29l-14.63-61.58.81-.2c.58,3.09,2.05,5.54,4.3,5.54,3.04,0,4.63-4.38,4.63-8.73,0-1.09-.1-2.18-.3-3.19l1.57-.38,5.72,24.05c1.14,4.81,4.61,8.91,9.52,11.31h0Z"/>
      <path class="cls-14" d="M657.29,218.93l21.97,92.54-1.57.38c-.58-3.09-2.05-5.54-4.33-5.54-3.01,0-4.61,4.38-4.61,8.73,0,1.09.1,2.18.3,3.19l-.81.2-12.55-52.93c-1.42-5.87-.84-12.07-.3-18.1.15-1.8.33-3.59.43-5.39.13-1.9.28-3.8.46-5.7.3-3.8.63-7.75.63-11.52l.38-5.87ZM664.7,261.51c0-2.99-1.65-5.34-3.7-5.34s-3.7,2.35-3.7,5.34,1.62,5.34,3.7,5.34,3.7-2.33,3.7-5.34Z"/>
      <path class="cls-1" d="M677.69,311.85c.2,1.01.3,2.1.3,3.19,0,4.35-1.59,8.73-4.63,8.73-2.25,0-3.72-2.46-4.3-5.54-.2-1.01-.3-2.1-.3-3.19,0-4.35,1.59-8.73,4.61-8.73,2.28,0,3.75,2.46,4.33,5.54ZM675.46,315.04c0-4.1-1.47-6.2-2.1-6.2-.71,0-2.08,2.4-2.08,6.2s1.37,6.2,2.08,6.2c.63,0,2.1-2.1,2.1-6.2Z"/>
      <path class="cls-1" d="M661.01,256.16c2.05,0,3.7,2.35,3.7,5.34s-1.65,5.34-3.7,5.34-3.7-2.33-3.7-5.34,1.62-5.34,3.7-5.34ZM662.17,261.51c0-1.72-.78-2.81-1.16-2.81-.4,0-1.16,1.09-1.16,2.81s.76,2.81,1.16,2.81c.38,0,1.16-1.09,1.16-2.81Z"/>
      <path class="cls-8" d="M857.15,105.16c2.96-5.8,8.18-10.28,14.4-12.25,5.14-1.62,10.86-3.87,16.33-2.53,18.88,4.66,26.96,22.98,24.17,37.44-.96,5.01-3.32,9.59-5.54,14.45-1.44,3.16-3.82,6.13-6.76,8.78-3.97,3.59-9.82,9.72-15.49,5.59-1.8-1.32-3.06-3.21-4.3-5.06-4.35-6.53-9.11-13.06-15.52-17.74-5.52-4.02-11.47-7.54-10.25-15.44.73-4.66.71-8.88,2.94-13.29l.03.05Z"/>
      <path class="cls-8" d="M751.29,107.18c-1.59-3.59-4.94-7.75-10.2-9.54-5.14-1.75-11.62-4.28-16.55-3.06-16.2,4-23.13,19.82-20.73,32.3.84,4.3,2.83,8.25,4.76,12.48,1.24,2.73,3.27,5.29,5.8,7.57,2.33,2.1,4.91,4.58,8.58,5.75,1.19.38,9.19,4.18,10,3.52,4.28-3.39,4.13-9.47,7.11-13.36,3.67-4.81,5.75-9.29,10.1-14.88.63-.84,2.38-1.01,3.04-1.67s2.15-2.33,2.08-3.09c-.66-6.5-1.14-9.74-3.9-16h-.08Z"/>
      <path class="cls-1" d="M905.46,99.31c8.4,11.31,10.61,25.89,5.64,37.11-3.8,8.56-8.68,17.06-18.76,21.39-.18.08-.33.1-.51.1-.48,0-.96-.28-1.16-.76-.28-.63,0-1.39.66-1.67,8.76-3.77,13.31-10.76,17.44-20.07,4.61-10.4,2.51-23.97-5.37-34.6-6.61-8.91-21.57-13.77-31.69-6.96-.58.38-1.37.23-1.77-.35-.38-.58-.23-1.37.35-1.75,11.62-7.8,27.84-2.28,35.16,7.57h0Z"/>
      <path class="cls-1" d="M738.13,95.21c6.68,2.83,17.82,10.35,17.14,20.5-.05.68-.61,1.19-1.27,1.19h-.08c-.71-.05-1.24-.66-1.19-1.37.51-7.59-7.72-14.66-15.62-18-9.52-4.05-24.5,2.08-28.6,11.72-.28.63-1.04.94-1.67.66s-.94-1.01-.66-1.67c4.66-10.93,21.08-17.62,31.94-13.04h0Z"/>
      <path class="cls-1" d="M929.59,292.76c.08.56,7.54,57.43-17.19,103.29.58,12.45-.76,25.82-6.94,37.41-.96,1.82-2.08,3.52-3.27,5.14,1.04.38,2.38,1.04,4.23,2.15,2.05,1.16,2.48,2.76,2.48,3.9.03,6.4-14.22,15.11-14.38,15.21-6.43,3.64-16.53,8.48-27.97,10.88-.99.2-2.86.58-4.89.58-2.35,0-4.91-.53-6.5-2.48-2.56-3.16-1.14-7.62.03-10.25-4.35-.89-15.72-4.73-25.92-21.36-4.15.58-22.05,2.68-32.5-2.73-3.85,7.42-12.4,18.05-25.69,27.03-.1.05-.2.08-.3.13-2.23,1.49-5.34,2.2-9.04,2.2-11.19,0-27.26-6.15-37.56-14.38-9.21-7.37-15.03-16.65-15.57-24.8-.28-4.2.94-7.85,3.52-10.5.08-.08.18-.15.28-.25.05-.08.08-.15.13-.23,1.82-2.02,4.43-3.72,7.8-5.06,3.09-1.21,6.56-1.95,10.3-2.13,1.7-.1,3.34,0,4.96.25-.61-9.04,1.9-21.79,4.1-31.44l-31.59,15.95c-2.94,1.49-6.2,2.25-9.47,2.25-3.01,0-6.02-.66-8.81-1.95-4.86-2.25-8.3-6.25-9.42-10.99l-27.21-114.48c-1.49-6.28-.91-12.71-.35-18.93.18-1.77.33-3.54.43-5.32.13-1.92.3-3.82.46-5.77.3-3.75.63-7.62.63-11.36l1.01-15.95v-.15c.18-4.73,2.56-9.19,6.83-12.38,6.78-5.06,16.33-5.62,23.69-1.37l16.07,9.24.66-8.1c1.19-13.06,12.07-22.91,24.86-23.19.61-3.29,1.39-6.48,2.33-9.62-12.66-2.25-23.06-5.39-31.13-19.36-8.05-13.95-6-30.9,5.37-44.29,9.64-11.36,27.26-19.01,40.9-10.73,9.16,5.54,18.17,18.12,18.35,28.2,15.19-10.78,33.89-17.09,54.01-17.09,9.82,0,18.53,1.29,27.29,4,3.59-8.33,11.16-16.38,19.11-21.21,16-9.72,38.45-1.34,47.86,12.63,10.91,16.17,13.06,36.45,5.49,51.61-3.34,6.71-7.52,11.9-12.73,15.72l.13.43c.38,1.14.76,2.28,1.09,3.44.25-.13.56-.2.86-.13.43.13.78.46.91.91l3.19,12.25c.13.43,0,.89-.3,1.19-.58.63-1.19,1.24-1.8,1.85.18,2.15.25,4.33.25,6.45,0,13.21-2.35,25.49-7.01,36.5-4.58,10.78-11.59,20.63-20.35,28.48-6.25,5.62-13.01,10-19.84,13.41,3.21,5.82,6.56,11.72,9.8,17.44,15.09,26.55,30.65,53.99,37.33,84.18,5.16-9.8,20.91-42.67,18.43-76.09,0-.08,0-.15.05-.23v-.23c0-.08.05-.15.1-.23,0-.05.08-.13.13-.2.05-.05.1-.1.18-.15.05-.05.1-.1.18-.15s.18-.05.25-.08c.05-.03.13-.08.2-.08h.08s.15,0,.23.03c.08,0,.15,0,.2.03.1.03.18.08.25.13.08.03.13.05.18.1.08.05.13.1.18.18.05.05.1.13.15.18.03.08.05.18.08.25s.05.13.08.2h.05ZM912.07,391.15c12.12-24.43,15.47-51.48,16.02-70.97-4.63,27.26-16.86,49.51-18.65,52.72l.08.46c1.01,5.29,2,11.36,2.56,17.79h0ZM914.85,145.86c7.16-14.38,5.06-33.64-5.34-49.08-8.76-13.04-29.64-20.88-44.45-11.9-11.19,6.81-21.72,20.27-19.89,31.01.1.68-.35,1.34-1.04,1.44s-1.34-.33-1.47-1.04c-.53-3.19-.08-6.56,1.06-9.95-8.45-2.61-16.86-3.87-26.37-3.87-20.45,0-39.41,6.66-54.52,18.02-.1.13-.2.2-.33.25-16.53,12.58-28.37,30.83-32.4,52.17h.3l9.39.86c13.67,1.27,23.79,13.11,23.13,26.68,1.39-.1,3.72-.13,6.86.28.33-15.77,12.76-28.93,28.78-29.82l11.09-.61c8.15-.46,15.95,2.3,22.02,7.72,6.07,5.44,9.67,12.91,10.1,21.03l.1,1.57c6.83-1.29,38.32-8.35,61.63-32.07-.4-1.57-.84-2.94-1.34-4.43-4.61,2.91-9.92,4.94-16.12,6.02-.08,0-.15.03-.23.03-.61,0-1.14-.43-1.24-1.06-.13-.68.33-1.34,1.01-1.44,13.74-2.43,23.03-9.37,29.26-21.82h0ZM903.24,432.28c7.44-13.97,7.59-30.88,5.87-45.28-40.45,12.66-71.71,17.16-95.68,17.16-47.86,0-66.75-17.9-72.11-24.53-2.68,12.48-3.7,21.54-3.16,27.64,10.43,2.66,19.57,11.44,27.99,20.88,5.52,6.2,11.14,13.62,11.16,21.69,0,1.52-.25,2.99-.73,4.4,9.57-7.87,15.77-16.2,18.5-22.05.18-.33.46-.56.78-.66.35-.13.73-.08,1.04.13,8.91,5.47,26.05,3.82,31.23,3.14-.46-1.24-1.09-3.11-1.47-4.94-.13-.68.33-1.34,1.01-1.47.68-.15,1.34.3,1.47.99.53,2.63,1.72,5.47,1.9,5.87,11.34,18.91,24.37,20.88,25.94,21.06,2.76-.63,35.01-8.15,41.92-17.46h0c1.59-2,3.04-4.2,4.3-6.56l.03-.03ZM907.92,179.57l-2.43-9.39c-13.41,13.72-29.51,22.02-42.29,26.88l2.13,8.93c13.52-4.86,29.87-12.98,42.6-26.42ZM908.78,384.47c-.51-3.8-1.11-7.37-1.75-10.63-.15-.86-.35-1.7-.53-2.53-22.78,6.76-42.47,11.09-59.48,13.57l1.16,13.9c17.41-2.53,37.49-7.06,60.59-14.3h0ZM893.29,457.67c2.3-1.32,13.11-8.88,13.09-12.98,0-.48-.13-1.11-1.24-1.75-1.75-1.06-3.67-2-4.51-2.2-7.77,9.64-37.89,16.88-42.67,17.97-1.92,3.97-2.2,6.86-.81,8.56,1.32,1.62,4.3,1.97,8.88,1.01,11.14-2.33,20.98-7.06,27.26-10.61ZM906.17,189.09c0-1.34-.1-2.71-.15-4.08-25.77,24.05-62.39,29.56-65.78,30.02-4.05,11.14-14.43,19.39-27.01,20.07l-11.09.61c-.56.05-1.14.05-1.7.05-7.52,0-14.68-2.71-20.32-7.77-5.67-5.06-9.14-11.95-9.92-19.46-4.28-.61-6.99-.4-7.92-.28l-.18,1.7c-.81,9.06-6.2,16.71-14.17,20.55l15.84,9.11v1.24l2.53.89v-.66l46.93,26.98c3.44,1.97,6.02,4.76,7.47,8.07,16.73-1.57,40.09-7.04,58.95-23.97,8.48-7.59,15.29-17.11,19.72-27.56,4.51-10.68,6.81-22.65,6.81-35.51h0ZM905.97,368.82c-6.68-29.51-22.02-56.49-36.88-82.64-3.27-5.77-6.66-11.74-9.87-17.62-13.77,6.45-27.74,9.14-38.78,10.12l-1.21,6.61c17.97-1.39,31.18-5.85,31.36-5.9.66-.23,1.39.13,1.62.78s-.13,1.37-.78,1.59c-.28.1-26.48,8.93-55.63,5.75-.81,3.67-3.77,15.09-10.18,22.78,8.91,5.87,26.65,16.76,46.9,24.86.66.25.96,1.01.71,1.65-.2.51-.66.81-1.16.81-.15,0-.33,0-.48-.1-7.19-2.89-14.05-6.1-20.32-9.34l-.38,2c-1.24,6.71-4.4,11.39-9.39,13.92l-48.5,24.5c2,1.7,4.38,3.47,7.26,5.16.13.05.25.13.35.23,2.05,1.16,4.33,2.33,6.88,3.42h.05c.38,0,.68.18.91.4,21.94,9.06,62.8,13.21,137.52-8.99h0ZM862.94,206.83l-2.13-8.88c-3.01,1.09-5.8,1.97-8.28,2.68l1.75,8.83c2.63-.71,5.57-1.59,8.66-2.63h0ZM851.83,210.1l-1.75-8.78c-3.77,1.04-6.61,1.59-8.07,1.87.15,3.16-.2,6.25-.96,9.16,1.95-.3,5.75-.99,10.78-2.25ZM845.68,399.12l-1.16-13.9c-2,.25-3.95.51-5.85.73l1.01,13.9c1.95-.2,3.95-.48,6-.73ZM813.1,232.57c15.39-.84,27.23-14.05,26.37-29.44l-.23-3.92c-.4-7.47-3.7-14.3-9.26-19.29-5.16-4.63-11.72-7.14-18.6-7.14-.53,0-1.06,0-1.57.05l-11.11.61c-15.39.86-27.21,14.07-26.37,29.46l.23,3.92c.86,15.39,14.05,27.21,29.46,26.37,0,0,11.09-.63,11.09-.63ZM837.15,400.13l-.99-13.9c-8.71.94-16.63,1.37-23.84,1.37-19.21,0-33.28-2.96-43.59-6.99l-.35,13.49c14.73,5.52,36.75,9.34,68.77,6.02h0ZM816.62,285.47l1.59-8.63c-1.24-2.68-3.37-4.96-6.25-6.61l-127.29-73.17c-7.52-4.33-15.92-2.51-20.91,1.21-4.68,3.49-6.73,8.68-5.49,13.87l29.16,122.78c1.01,4.18,4.08,7.75,8.48,9.8,5.34,2.46,11.67,2.35,16.93-.3l8.4-4.45c-2.33-6.02-.35-12.6,4.78-15.09,5.09-2.46,11.42,0,14.73,5.44l39.99-20.22c-.99-.68-1.75-1.21-2.2-1.54-14.38,4.73-22.83,5.26-25.82,1.59-2.46-2.99-.03-7.29.08-7.47.56-.81.43-1.21.38-1.37-.43-1.24-2.96-2.35-4.13-2.68-2.96-1.32-5.7-2.83-6.5-5.47-.94-2.96,1.11-4.99,3.27-6.5-1.52-3.75-4.48-12.76-1.52-19.69,1.39-3.29,3.92-5.62,7.52-6.94,6.86-2.53,14.3.46,18.05,6.96,1.01-1.24,2.05-2.25,3.16-3.01,2.35-1.62,4.73-2.13,6.86-1.47,3.14.96,5.01,3.95,6.13,6.1,1.19,2.3,2.15,4.91,2.99,8.25.1.38.2.78.3,1.19l.15.68c.08.3.1.58.15.89,0,.25.05.48.13.73.08.28.15.63.2.96s.18.94.28,1.09c.23.18.43.38.63.56.28.28.56.56.91.78.89.61,2.46,1.06,4.18,1.24,7.19.81,14.2.86,20.68.48h0ZM808.4,329.72l.51-2.76c-11.26-5.92-20.4-11.69-25.74-15.24l-41.46,20.96c.66,5.9-2.68,14.4-7.85,16.28-1.14.4-2.28.63-3.42.63-1.52,0-2.99-.38-4.3-1.14-2.13-1.24-3.62-3.32-4.3-5.92l-7.82,4.15c-3.11,1.57-6.53,2.35-9.95,2.35-2.4,0-4.81-.4-7.11-1.19l-3.19,42.47c4.38,1.19,9.14.78,13.21-1.29l93.37-47.21c4.3-2.18,6.94-6.13,8.05-12.1h0ZM793.28,287.09c-.99-.25-2.05-.63-2.91-1.21-.48-.33-.89-.71-1.27-1.09-.18-.15-.35-.33-.53-.48-.78-.68-.96-1.7-1.11-2.53-.05-.25-.1-.48-.15-.68-.13-.38-.18-.78-.23-1.16-.03-.2-.03-.4-.08-.61l-.18-.71c-.08-.38-.18-.76-.28-1.14-.78-3.11-1.67-5.57-2.78-7.69-.91-1.75-2.38-4.15-4.61-4.83-1.75-.56-3.52.3-4.68,1.11-1.01.68-1.92,1.59-2.86,2.78l-.38.51c-.84,1.09-1.67,2.25-3.44,2.81-3.11,1.04-6.38-.25-8.58-1.32-1.16-.56-2.68-.89-4.08-.89h-.03c-2.99,0-3.47,2.48-3.47,3.95-.03,2.23.35,4.1,1.06,5.24,1.16,1.92.91,4.2-.71,6.13-.78.91-1.97,1.67-3.21,2.48-2.66,1.7-4.35,2.94-3.82,4.66.61,1.9,3.54,3.21,4.96,3.85.33.1,4.68,1.44,5.64,4.23.1.33.2.71.2,1.16,0,.68-.2,1.52-.84,2.38,0,0-1.54,2.94-.23,4.53,1.01,1.24,5.39,3.49,23.64-2.61.4-.13.84-.08,1.16.18.05.05,1.44,1.06,3.87,2.68.08,0,.13-.03.2-.05,5.97-7.09,8.88-18.07,9.69-21.67ZM774.43,452.53c.23-.86.35-1.75.35-2.66-.03-7.24-5.34-14.2-10.53-20.02-9.97-11.19-20.88-21.46-33.49-20.81-1.87.08-3.67.33-5.39.71,8.12.25,17.9,3.97,26.42,10.78,10.25,8.2,21.41,22,22.63,31.99h0ZM770.4,458.78c1.21-1.24,1.75-2.99,1.59-5.24-.56-8.96-11.52-22.83-21.79-31.03-8.38-6.71-18-10.35-25.61-10.35-4.4,0-8.18,1.21-10.63,3.8-2.08,2.13-3.04,5.09-2.81,8.58.46,7.34,6.07,16.15,14.63,22.98,13.11,10.48,38.04,18.12,44.62,11.26h0ZM769.97,205.95l-.15-2.66c-3.49-.48-5.87-.38-7.06-.28l-.25,2.66c1.34-.13,3.85-.2,7.47.28ZM767.01,269.76c.46-.15.78-.35,1.09-.63-2.99-6-9.44-8.91-15.39-6.71-2.91,1.06-4.96,2.94-6.07,5.57-2.1,4.89-.76,11.85,1.37,17.26.86-.56,1.62-1.09,2.05-1.59.53-.63,1.29-1.87.51-3.19-1.21-1.97-1.47-4.66-1.44-6.58,0-3.92,2.38-6.45,6-6.45h.03c1.77,0,3.7.4,5.19,1.14,1.8.86,4.45,1.95,6.68,1.19h0ZM765.87,393.12l.35-13.54c-1.87-.81-3.62-1.65-5.21-2.51l-.4,13.67c1.62.81,3.39,1.59,5.26,2.38h0ZM760.73,118.95c1.16-9.26-8.05-22.53-17.03-27.97-12-7.24-28.58-.51-37.69,10.23-10.63,12.53-12.6,28.4-5.09,41.38,7.59,13.16,17.54,16.05,29.72,18.2,5.67-16.86,16.28-31.28,30.09-41.84h0ZM760.36,201.29c1.16-12.6-8.15-23.82-20.78-24.98l-9.39-.86c-12.6-1.16-23.82,8.15-24.98,20.78l-.76,9.29,4.43,2.53c-.2-1.32-.23-2.68-.1-4.02l.61-5.97c1.04-10.12,10.99-17.62,22.32-16.68l7.44.61c5.8.48,11.11,3.14,14.58,7.34,3.04,3.64,4.45,8.2,4,12.76l-.61,5.97c-.91,8.71-9.09,15.84-18.55,17.06l6.66,3.85c8.07-3.16,13.57-10.48,14.38-19.24l.76-8.43h0ZM758.13,389.43l.38-13.77c-3.21-1.92-5.82-3.92-7.95-5.82l-7.95,4.02v.1c-.2.84-.35,1.59-.56,2.38,1.11,1.57,5.7,7.42,16.07,13.09h0ZM755.19,201.82c.4-3.9-.81-7.75-3.42-10.88-3.04-3.67-7.72-6.02-12.83-6.45l-7.47-.61c-9.9-.81-18.65,5.67-19.57,14.43l-.61,5.97c-.2,1.85,0,3.67.51,5.47l22.6,12.98c9.92.68,19.29-6.25,20.17-14.93l.61-5.97h0ZM732.99,346.58c4-1.47,6.88-9.34,6.13-14.07-2.48-4.96-7.82-7.37-12-5.34-4.2,2.05-5.62,7.82-3.16,12.88.15.33.15.68.05.99,0,.05.03.08.03.1.43,2.3,1.62,4.13,3.37,5.11,1.62.94,3.62,1.04,5.59.33ZM691.28,389.45l3.21-42.62c-4.91-2.4-8.38-6.5-9.52-11.31l-5.72-24.05-21.97-92.54-.38,5.87c0,3.77-.33,7.72-.63,11.52-.18,1.9-.33,3.8-.46,5.7-.1,1.8-.28,3.59-.43,5.39-.53,6.02-1.11,12.23.3,18.1l12.55,52.93,14.63,61.58c.94,3.97,3.87,7.34,8.02,9.29.13.05.25.08.38.15h0Z"/>
    </g>
  </g>
</svg>