<?xml version="1.0" encoding="UTF-8"?>
<svg id="_레이어_1" data-name="레이어 1" xmlns="http://www.w3.org/2000/svg" viewBox="0 0 449.76 538.28">
  <defs>
    <style>
      .cls-1 {
        fill: #2c281c;
      }

      .cls-1, .cls-2, .cls-3, .cls-4, .cls-5, .cls-6, .cls-7 {
        stroke-width: 0px;
      }

      .cls-2 {
        fill: #dedbd1;
      }

      .cls-3 {
        fill: #f8e99f;
      }

      .cls-4 {
        fill: #413b2a;
      }

      .cls-5 {
        fill: #f5da66;
      }

      .cls-6 {
        fill: #fff;
      }

      .cls-7 {
        fill: #edc834;
      }
    </style>
  </defs>
  <path class="cls-2" d="M342.61,168.82c0,.07,0,.13.03.2-4.91-19.28-22.33-33.58-43.11-33.58h-19.15c-23.89,0-43.41,18.98-44.44,42.64-13.47-1.92-21.01-1.03-24.39-.27-1.13-23.56-20.58-42.38-44.4-42.38h-19.15c-19.61,0-36.31,12.81-42.21,30.46l.27-6.74c0-17.69,3.12-34.52,10.88-49.38.7-6.34,6.72-13.6,12.23-19.08,21.44-27.25,55.93-43.01,94.5-43.01,36.5,0,71.52,16.46,93.65,44,1.73,2.16,3.38,4.38,4.91,6.64,1.23,2.29,2.62,4.48,4.18,6.54,4.25,7.13,7.63,14.7,10.09,22.63,2.79,8.96,3.72,18.48,4.58,27.71.43,4.45.86,9.06,1.53,13.61ZM261.97,125.51c0-4.08-4.75-7.37-10.59-7.37s-10.55,3.29-10.55,7.37,4.71,7.37,10.55,7.37,10.59-3.32,10.59-7.37ZM198.88,125.51c0-4.08-4.71-7.37-10.55-7.37s-10.55,3.29-10.55,7.37,4.71,7.37,10.55,7.37,10.55-3.32,10.55-7.37Z"/>
  <path class="cls-6" d="M132.71,71.68c.27,4.21-.03,8.46-.9,12.74,0,.07-.03.17-.07.23-8.2,9.09-14.9,19.41-19.78,30.6-12.44,9.29-29.14,13.41-46.16,9.96-30.63-6.21-50.74-34.55-44.9-63.29,1.46-7.13,4.35-13.64,8.36-19.28.76.23,1.56-.13,1.92-.83,2.12-4.25,5.97-8,9.72-10.88.33-.27.66-.53.96-.73,4.94-3.48,8.23-6.83,14.21-8.59.33-.1,2.95.49,3.28.39,11.32-2.46,22.96-1.53,33.42,2.72,4.78,1.96,9.52,4.78,15.43,9.19,6.7,5.01,11.65,10.25,15.17,16.06,2.92,4.78,6.5,12.18,7.2,20.31.07.86.8,1.49,1.63,1.49h.17c.1,0,.23-.03.33-.1Z"/>
  <path class="cls-5" d="M167.95,260.67c1.63,3.22,1.13,6.87-1.1,8s-5.48-.6-7.1-3.78c-1.63-3.22-1.13-6.87,1.1-8,.46-.23,1-.33,1.53-.33.66,0,1.36.17,2.06.5,1.43.7,2.69,1.99,3.52,3.62Z"/>
  <path class="cls-5" d="M331,332.75c.83,1.29,1.13,2.85.83,4.38-.66,3.15-3.75,5.18-6.9,4.51-1.53-.3-2.85-1.19-3.68-2.52-.86-1.29-1.16-2.85-.83-4.38.56-2.72,2.99-4.61,5.71-4.61.4,0,.8.03,1.19.1,1.53.33,2.82,1.23,3.68,2.52Z"/>
  <path class="cls-5" d="M309.52,371.28c4.05,0,7.37,4.78,7.43,10.69-.73,3.19-2.36,6.77-4.31,9.42-1.96,2.65-4.02,4.05-5.51,3.72-4.02-.86-6.24-6.31-4.98-12.15.07-.3,0-.56-.07-.83,0-5.97,3.35-10.85,7.43-10.85Z"/>
  <path class="cls-5" d="M271.43,406.69c2.62,0,4.55,1.29,4.55,2.46s-1.92,2.46-4.55,2.46-4.58-1.29-4.58-2.46,1.96-2.46,4.58-2.46Z"/>
  <path class="cls-5" d="M241.23,412.57c6.9,0,12.51,4.61,12.51,10.32s-5.61,10.29-12.51,10.29-12.48-4.61-12.48-10.29,5.61-10.32,12.48-10.32Z"/>
  <path class="cls-5" d="M222.08,315.5c6.27,1.03,10.15,4.75,9.72,7.4-.46,2.65-5.34,4.88-11.62,3.82-2.99-.5-5.67-1.63-7.53-3.22-.96-.8-2.49-2.39-2.19-4.18.4-2.19,3.78-4.08,8.5-4.08.96,0,2.02.07,3.12.27Z"/>
  <path class="cls-5" d="M116.62,324.09c7.9,0,14.3,5.77,14.3,12.84s-6.4,12.88-14.3,12.88-14.3-5.77-14.3-12.88,6.4-12.84,14.3-12.84Z"/>
  <path class="cls-3" d="M353.6,370.09c-3.15,19.58-11.81,52.57-35.18,71.08-19.31,15.8-67.43,13.21-120.46-6.47.4-.66,1-1.23,1.96-1.43,2.95-.66,5.71-2.92,7.5-4.68,3.65-3.62,3.88-8.13.6-11.55-1.63-1.66-3.82-3.12-5.84-3.85-2.46-.9-5.91-2.42-7.27-5.21-.6-1.23-.43-2.29-.17-3.82l.13-.9c.3-2.29.3-4.31-.03-6.24-.63-3.68-2.32-6.37-4.88-7.77-3.78-2.06-8.3-1.1-11.35-.17-3.25.96-6.57,2.46-10.49,4.71-.46.27-.93.53-1.39.83l-.76.46c-.33.2-.66.43-.96.66-.27.2-.5.4-.8.56-4.08,2.09-7.6.13-11.68-2.09l-1.06-.6c-5.54-3.02-10.95-6.4-16.13-10.12-.7-.5-1.63-.4-2.16.23l-38.69-19.28v-.03c-.07-.17-.2-.33-.33-.5-.63-.63-1.69-.66-2.36-.03s-1.29,1.33-1.92,2.09c-2.99-2.65-4.85-5.44-4.88-5.48-3.85-5.94-6.21-11.62-6.97-16.86l-.5-3.48c-4.48-34.98,14.1-62.89,26.38-77.12-6.14,27.78,39.82,71.05,106.26,98.76,31.76,13.27,62.36,21.01,88.47,22.4-.73,6.87,2.49,13.01,7.8,14.14.37.1.76.13,1.13.13,2.59,0,5.28-1.79,7.77-5.14,1.92-2.62,3.55-6.07,4.48-9.33,16.1-1.46,27.61-6.24,33.78-13.94ZM279.29,409.15c0-3.22-3.45-5.77-7.87-5.77s-7.9,2.56-7.9,5.77,3.48,5.77,7.9,5.77,7.87-2.56,7.87-5.77ZM257.06,422.89c0-7.53-7.1-13.64-15.83-13.64s-15.8,6.11-15.8,13.64,7.1,13.61,15.8,13.61,15.83-6.11,15.83-13.61ZM116.62,353.13c9.72,0,17.62-7.27,17.62-16.19s-7.9-16.16-17.62-16.16-17.62,7.23-17.62,16.16,7.9,16.19,17.62,16.19Z"/>
  <path class="cls-3" d="M355.35,354.32c0,.3-.1,2.16-.4,5.14-.23,1.29-.6,2.56-1.1,3.72-4.02,9.69-15.66,15.7-33.68,17.46-.6-7.1-5.11-12.68-10.65-12.68s-10.19,5.71-10.65,12.94c-25.79-1.36-55.98-9.03-87.44-22.13-67.73-28.27-114.09-72.31-103.31-98.16,1-2.36,2.46-4.51,4.31-6.44,1-.9,1.59-1.43,1.63-1.46.07-.03.07-.1.13-.13.9-.76,1.86-1.49,2.92-2.16.23-.1.5-.2.7-.4v-.03c22.63-13.77,76.33-8.46,132.74,15.07,33.05,13.81,61.99,31.76,81.54,50.58,14.9,14.3,22.83,27.68,23.26,38.69ZM335.04,337.83c.53-2.39.07-4.85-1.29-6.9-1.33-2.02-3.38-3.42-5.77-3.92-2.39-.53-4.85-.07-6.87,1.29-2.06,1.33-3.45,3.38-3.95,5.77s-.03,4.81,1.29,6.87c1.33,2.06,3.38,3.45,5.77,3.95.63.13,1.26.2,1.89.2,4.21,0,8.03-2.95,8.93-7.27ZM235.06,323.46c.83-5.01-4.61-9.92-12.41-11.25-7.83-1.29-14.6,1.56-15.43,6.54-.43,2.56.73,5.14,3.29,7.3,2.32,1.96,5.58,3.35,9.16,3.95,1.26.2,2.49.3,3.72.3,6.14,0,10.98-2.69,11.68-6.84ZM168.35,271.63c3.92-1.99,5.04-7.57,2.59-12.44-1.19-2.29-2.99-4.12-5.04-5.11-2.26-1.1-4.58-1.13-6.54-.13-3.88,1.99-5.04,7.57-2.56,12.44,1.86,3.68,5.31,5.94,8.56,5.94,1.03,0,2.06-.23,2.99-.7Z"/>
  <path class="cls-1" d="M94.48,364.45v.03c.23.63.1,1.36-.4,1.83-7.33,7-12.71,23.93-4.12,33.48,6.97,7.73,17.06,12.01,26.85,16.1,1.39.6,2.79,1.19,4.15,1.76,5.51,2.39,11.05,4.75,16.63,7.07,3.09,1.29,6.14,2.56,9.26,3.78l.43.13c1.73.5,2.79.86,3.25,1.79,10.98,22.77,17.16,24.79,19.15,24.62,2.75-.23,4.08-4.48,4.08-4.51.4-2.16,1.69-3.22,2.72-3.68,3.55-1.66,8.76,1.19,9.33,1.53,1.69.66,5.64,2.22,7.96,1.06,2.12-1.1,1.73-3.82.9-7.87-.4-1.89-.76-3.72-.6-5.28,0-.17.1-.33.1-.5,0-.23.03-.46.1-.7.03-.07.1-.1.1-.17.7-2.52,2.36-4.35,4.81-4.91,1.69-.37,3.78-1.73,5.91-3.78,1.36-1.36,3.25-4.05.53-6.9-1.29-1.29-2.99-2.46-4.61-3.02-2.99-1.1-7.2-2.99-9.06-6.87-1.06-2.16-.8-4.02-.5-5.77l.13-.83c.27-1.96.27-3.68,0-5.24-.33-1.83-1.13-4.28-3.22-5.44-2.72-1.46-6.31-.63-8.79.1-2.99.9-6.11,2.32-9.79,4.41-.43.27-.9.53-1.33.8l-.8.5c-.23.13-.43.3-.66.46-.4.3-.8.63-1.26.86-5.64,2.89-10.52.2-14.8-2.16l-1.06-.56c-5.64-3.09-11.18-6.57-16.49-10.35-.73-.53-.9-1.56-.37-2.29.03-.07.1-.13.17-.17.53-.63,1.46-.73,2.16-.23,5.18,3.72,10.59,7.1,16.13,10.12l1.06.6c4.08,2.22,7.6,4.18,11.68,2.09.3-.17.53-.37.8-.56.3-.23.63-.46.96-.66l.76-.46c.46-.3.93-.56,1.39-.83,3.92-2.26,7.23-3.75,10.49-4.71,3.05-.93,7.57-1.89,11.35.17,2.56,1.39,4.25,4.08,4.88,7.77.33,1.92.33,3.95.03,6.24l-.13.9c-.27,1.53-.43,2.59.17,3.82,1.36,2.79,4.81,4.31,7.27,5.21,2.02.73,4.21,2.19,5.84,3.85,3.29,3.42,3.05,7.93-.6,11.55-1.79,1.76-4.55,4.02-7.5,4.68-.96.2-1.56.76-1.96,1.43,53.03,19.68,101.15,22.27,120.46,6.47,23.36-18.52,32.02-51.5,35.18-71.08-6.17,7.7-17.69,12.48-33.78,13.94-.93,3.25-2.56,6.7-4.48,9.33-2.49,3.35-5.18,5.14-7.77,5.14-.37,0-.76-.03-1.13-.13-5.31-1.13-8.53-7.27-7.8-14.14-26.12-1.39-56.71-9.13-88.47-22.4-66.44-27.71-112.4-70.98-106.26-98.76-12.28,14.24-30.86,42.15-26.38,77.12l.5,3.48c.76,5.24,3.12,10.92,6.97,16.86.03.03,1.89,2.82,4.88,5.48.63-.76,1.26-1.46,1.92-2.09s1.73-.6,2.36.03c.13.17.27.33.33.5ZM442.2,223.21c3.45,1.53,8.16,3.65,7.5,8.66-.5,3.58-3.48,6.17-6.67,8.4-1.79.96-4.41,2.89-4.71,4.55-.03.33-.03.9.63,1.63.27.33,4.21,5.51,1.56,9.96-3.12,5.21-13.51,6.37-31.79,3.45-4.12,4.35-28.47,29.47-59.04,49.28-4.18,2.69-7.67,5.71-10.39,8.89-.03.03-.07.03-.1.07,12.41,13.14,19.05,25.55,19.48,36.17v.37c.03,1.73-.07,3.42-.37,5.04-.9,10.22-4.08,33.35-14.77,54.69.66,2.32,1.1,4.58,1.39,6.31,4.12,24.82-1.96,51.6-18.12,79.55-.66,1.16-1.49,2.49-2.42,3.92-3.78,6.01-8.93,14.17-7.93,19.81,1.46,1.33,3.19,3.78,2.22,6.44-.76,2.16-2.89,7.9-37.67,7.9-7.27,0-15.96-.27-26.38-.83-4.68-.27-8.46-3.72-9.89-8.99-9.52-35.74-20.38-33.85-20.44-33.82-7.43.43-16.29,21.01-20.21,33.88-.63,4.78-4.78,8.63-9.86,8.93-60.23,3.38-63.12-4.48-64.05-7.07-.96-2.65.76-5.11,2.22-6.44,1-5.64-4.15-13.81-7.93-19.81-.93-1.43-1.76-2.75-2.42-3.92l-.23-.43c-4.88-8.43-9.92-17.16-12.91-26.75-3.92-12.58-5.97-26.81-6.14-42.31-.07-5.61.13-11.42.56-17.29-5.84-2.95-11.45-6.54-15.86-11.45-8.36-9.33-5.64-23.99.43-33.29-3.45-3.02-5.58-6.21-5.67-6.34-4.15-6.37-6.64-12.51-7.5-18.19l-.5-3.55c-6.77-52.96,37.27-90.1,37.7-90.46.17-.13.33-.2.5-.27.53-.43,1.1-.86,1.66-1.26-8.63-8.83-14.37-18.72-17.46-30.2-2.09-7.8-.66-14.63.83-21.9.23-1.06.46-2.16.66-3.25,1.73-8.73,3.12-16.89,4.28-24.96l.33-9.23c0-5.64.46-11.22,1.29-16.63-10.35,4.61-20.94,6.94-31.36,6.94-14.63,0-28.87-4.55-41.42-13.57C14.77,123.98,3.95,105.76.8,84.49-2.82,60.1,6.01,35.97,24.46,19.94,38.8,7.43,56.78,0,72.58,0h.03c14.3,0,34.85,3.22,51.37,18.58,9.33,8.66,16.73,20.54,21.37,34.35,1.92,5.77,3.19,10.95,3.88,15.86,20.54-15.3,46.39-24.42,74.44-24.42s54.06,9.09,75.3,25.06c.66-5.08,1.96-10.49,3.98-16.49,4.65-13.81,12.05-25.69,21.37-34.35C340.85,3.22,361.39,0,375.7,0h.03c15.8,0,33.78,7.43,48.12,19.94,18.42,16.03,27.28,40.15,23.66,64.55-3.15,21.27-13.97,39.49-30.46,51.34-12.61,9.03-27.25,13.61-42.25,13.61-10.62.03-21.4-2.32-31.79-6.94.56,4.15,1,8.3,1.39,12.38.4,4.45.83,8.99,1.49,13.44,1.13,8.03,2.59,16.43,4.25,24.96.23,1.1.46,2.19.66,3.29,1.53,7.23,2.92,14.07.86,21.87-5.31,19.75-19.78,36.44-41.22,47.89,32.92-9.39,63.05-26.98,63.38-27.18,2.95-1.73,5.71-3.65,8.2-5.71,1.43-1.16,2.92-2.39,4.25-3.72.63-.66,1.26-1.33,1.83-2.06.7-.9,1.06-1.39,1.16-1.96.03-.3,0-.63,0-.96-.03-.4-.03-.8,0-1.19l.03-.86c.03-.56.07-1.13.13-1.66.37-4.51,1-8.1,1.99-11.35.96-3.02,2.62-7.3,6.27-9.26,2.56-1.36,5.58-1.23,8.86.37,1.66.83,3.25,1.99,4.88,3.58l.6.6c1.16,1.16,1.83,1.79,2.99,1.99,2.85.46,5.84-1.49,7.83-3.02,1.73-1.29,3.98-2.26,6.21-2.65,2.06-.37,3.95,0,5.44,1.06,1.73,1.23,2.89,3.32,3.32,6.01.4,2.49.63,6.01-.43,8.79-.73,1.92.46,3.42,1.23,4.12.76.66,2.12,1.29,3.58,1.96ZM446.42,231.44c.3-2.39-1.89-3.58-5.58-5.21-1.69-.76-3.32-1.49-4.45-2.52-2.36-2.12-3.15-5.04-2.09-7.73.8-2.12.56-5.04.23-7.1-.27-1.76-1-3.12-1.96-3.85-.76-.53-1.76-.7-2.95-.5-1.69.3-3.48,1.06-4.78,2.06-2.49,1.86-6.27,4.28-10.35,3.65-2.29-.37-3.58-1.69-4.81-2.95l-.56-.56c-1.36-1.33-2.69-2.29-4.02-2.95-1.59-.76-3.88-1.46-5.81-.43-2.59,1.39-3.92,4.85-4.68,7.33-.93,2.99-1.53,6.37-1.89,10.62l-.1,1.59-.03.9c-.03.27-.03.56,0,.83,0,.5.03,1.03-.03,1.53-.2,1.49-1.03,2.59-1.73,3.45-.76.96-1.46,1.73-2.19,2.49-1.46,1.43-3.09,2.75-4.48,3.95-2.65,2.16-5.54,4.18-8.63,5.97-.37.23-36.64,21.4-73.44,29.9v16.26c12.38,7.96,23.33,16.43,32.32,25.06.86.86,1.66,1.69,2.49,2.52,2.92-3.38,6.57-6.54,10.95-9.39,33.09-21.44,58.81-49.15,59.04-49.41.4-.4.93-.63,1.49-.5,23.2,3.78,28.21.07,29.27-1.73,1.46-2.46-1.19-6.11-1.23-6.14-1.46-1.56-1.56-3.22-1.36-4.31.66-3.82,5.67-6.5,6.24-6.8,1.39-1,4.75-3.35,5.11-6.01ZM444.23,83.99c3.45-23.26-4.98-46.26-22.57-61.56-13.54-11.78-31.13-19.12-45.93-19.12h-.03c-13.74,0-33.38,3.09-49.11,17.69-8.93,8.3-16.03,19.68-20.48,32.99-2.22,6.54-3.55,12.35-4.12,17.75v.03c5.71,4.58,11.02,9.66,15.76,15.23,1.03,4.02,2.56,7.8,4.48,11.32-1.53-2.26-3.19-4.48-4.91-6.64-22.13-27.54-57.15-44-93.65-44-38.56,0-72.84,17.69-94.28,44.93,1-2.56,1.79-5.21,2.36-7.96,4.41-4.91,9.26-9.42,14.47-13.57-.6-5.21-1.89-10.79-4.02-17.09-4.48-13.31-11.55-24.69-20.48-32.99C105.96,6.4,86.32,3.32,72.61,3.32h-.03c-14.8,0-32.42,7.33-45.96,19.12C9.06,37.73.63,60.73,4.05,83.99c3.05,20.38,13.37,37.83,29.14,49.15,21.07,15.13,47.12,17.06,71.55,5.34,1.56-8.06,3.98-15.83,7.23-23.23,2.22-1.63,4.31-3.42,6.24-5.38-7.77,14.87-12.15,31.59-12.15,49.28l-.27,6.74c5.91-17.65,22.6-30.46,42.21-30.46h19.15c23.83,0,43.27,18.82,44.4,42.38,3.38-.76,10.92-1.66,24.39.27,1.03-23.66,20.54-42.64,44.44-42.64h19.15c20.77,0,38.2,14.3,43.11,33.58-.03-.07-.03-.13-.03-.2-.66-4.55-1.1-9.16-1.53-13.61-.86-9.23-1.79-18.75-4.58-27.71-2.46-7.93-5.84-15.5-10.09-22.63,2.39,3.15,5.14,6.01,8.2,8.56,1.99,4.25,3.65,8.6,5.04,13.08,1.23,3.95,2.06,8,2.75,12.05,24.49,11.71,51.6,9.72,72.68-5.41,15.76-11.32,26.12-28.77,29.14-49.15ZM354.96,359.47c.3-2.99.4-4.85.4-5.14-.43-11.02-8.36-24.39-23.26-38.69-19.55-18.82-48.48-36.77-81.54-50.58-56.42-23.53-110.11-28.84-132.74-15.07v.03c-.2.2-.46.3-.7.4-1.06.66-2.02,1.39-2.92,2.16-.07.03-.07.1-.13.13-.03.03-.63.56-1.63,1.46-1.86,1.92-3.32,4.08-4.31,6.44-10.79,25.85,35.58,69.89,103.31,98.16,31.46,13.11,61.66,20.77,87.44,22.13.46-7.23,5.04-12.94,10.65-12.94s10.06,5.58,10.65,12.68c18.02-1.76,29.67-7.77,33.68-17.46.5-1.16.86-2.42,1.1-3.72ZM348.45,217.57c1.89-7.04.6-13.21-.9-20.34-.2-1.1-.43-2.19-.66-3.32-1.13-5.71-2.09-11.32-2.99-16.83.07.96.13,1.89.13,2.89v7.1c0,24.56-19.94,44.54-44.5,44.54h-19.15c-22.63,0-41.35-16.99-44.1-38.89-15.46-2.26-22.9-.76-24.96-.17-2.72,21.97-21.47,39.06-44.17,39.06h-19.15c-24.56,0-44.5-19.98-44.5-44.54v-4.51c-.66,3.72-1.36,7.47-2.12,11.35-.2,1.13-.43,2.22-.66,3.32-1.49,7.13-2.75,13.31-.86,20.34,2.99,11.12,8.6,20.71,17.12,29.27,24.49-13.57,78.48-8.36,134.83,15.17,9.19,3.85,18.09,8,26.52,12.41,7.6-1.83,13.21-3.22,20.38-6.21,26.25-10.85,43.9-28.84,49.75-50.64ZM323.93,498.55c15.76-27.28,21.74-53.3,17.72-77.32-.13-.73-.27-1.56-.43-2.42-5.11,9.09-11.68,17.62-20.11,24.49l-.1.1c-.13.13-.33.23-.46.37-.3.23-.6.5-.93.73-.03.03-.1.03-.17.07-9.03,6.77-23.26,10.15-40.85,10.15-22.83,0-51.27-5.67-81.17-16.69.1.86.3,1.86.5,2.89.8,3.88,1.89,9.19-2.65,11.48-3.22,1.63-7.13.46-10.88-1.03-1.56-.86-4.94-2.22-6.5-1.49-.17.07-.66.3-.9,1.43-.1.4-1.92,6.6-7,7.04-.17.03-.37.03-.53.03-6.11,0-13.21-8.56-21.7-26.12-.4-.13-1.1-.33-1.39-.43-.33-.1-.6-.2-.73-.23-3.12-1.23-6.21-2.52-9.33-3.82-5.54-2.29-11.12-4.68-16.66-7.07-1.33-.56-2.72-1.16-4.12-1.73-2.89-1.23-5.94-2.52-8.96-3.95-.33,5.31-.5,10.59-.46,15.66.17,15.17,2.16,29.07,5.97,41.35,2.89,9.26,7.83,17.82,12.61,26.08l.27.43c.63,1.13,1.46,2.42,2.32,3.82,4.25,6.7,10.02,15.86,8.26,22.9-.1.37-.3.7-.63.93,0,0-2.09,1.69-1.59,3.05.7,1.89,7.13,7.9,60.73,4.88,3.48-.2,6.37-2.85,6.84-6.31,1.16-3.92,11.12-35.58,22.8-36.44.7-.13,2.85-.33,5.74,1.33,4.98,2.79,12.21,11.12,18.55,34.88.8,3.02,3.02,6.31,6.87,6.54,53.56,3.02,60.03-2.99,60.73-4.88.5-1.36-1.59-3.05-1.63-3.05-.3-.23-.5-.56-.6-.93-1.76-7.04,4.02-16.19,8.26-22.9.86-1.39,1.69-2.69,2.32-3.82ZM340.72,187.07v-7.1c0-22.73-18.48-41.22-41.18-41.22h-19.15c-22.73,0-41.18,18.48-41.18,41.22v7.1c0,22.73,18.45,41.22,41.18,41.22h19.15c22.7,0,41.18-18.48,41.18-41.22ZM316.96,381.97c-.07-5.91-3.38-10.69-7.43-10.69s-7.43,4.88-7.43,10.85c.07.27.13.53.07.83-1.26,5.84.96,11.28,4.98,12.15,1.49.33,3.55-1.06,5.51-3.72,1.96-2.65,3.58-6.24,4.31-9.42ZM298.77,286.06v-13.44c-1.59.33-3.19.66-4.78.93-.03.03-.07,0-.1,0-3.68,1.26-7.2,2.22-11.15,3.19,5.58,3.02,10.92,6.11,16.03,9.33ZM235.99,189.32c-.03-.76-.1-1.49-.1-2.26v-5.67c-14.4-2.06-21.74-.83-24.19-.2v5.87c0,.66-.07,1.33-.1,1.99,3.35-.76,10.92-1.66,24.39.27ZM208.37,187.07v-7.1c0-22.73-18.48-41.22-41.22-41.22h-19.15c-22.7,0-41.18,18.48-41.18,41.22v7.1c0,22.73,18.48,41.22,41.18,41.22h19.15c22.73,0,41.22-18.48,41.22-41.22Z"/>
  <path class="cls-2" d="M440.84,226.23c3.68,1.63,5.87,2.82,5.58,5.21-.37,2.65-3.72,5.01-5.11,6.01-.56.3-5.58,2.99-6.24,6.8-.2,1.1-.1,2.75,1.36,4.31.03.03,2.69,3.68,1.23,6.14-1.06,1.79-6.07,5.51-29.27,1.73-.56-.13-1.1.1-1.49.5-.23.27-25.95,27.98-59.04,49.41-4.38,2.85-8.03,6.01-10.95,9.39-.83-.83-1.63-1.66-2.49-2.52-8.99-8.63-19.94-17.09-32.32-25.06v-16.26c36.8-8.5,73.08-29.67,73.44-29.9,3.09-1.79,5.97-3.82,8.63-5.97,1.39-1.19,3.02-2.52,4.48-3.95.73-.76,1.43-1.53,2.19-2.49.7-.86,1.53-1.96,1.73-3.45.07-.5.03-1.03.03-1.53-.03-.27-.03-.56,0-.83l.03-.9.1-1.59c.37-4.25.96-7.63,1.89-10.62.76-2.49,2.09-5.94,4.68-7.33,1.92-1.03,4.21-.33,5.81.43,1.33.66,2.65,1.63,4.02,2.95l.56.56c1.23,1.26,2.52,2.59,4.81,2.95,4.08.63,7.87-1.79,10.35-3.65,1.29-1,3.09-1.76,4.78-2.06,1.19-.2,2.19-.03,2.95.5.96.73,1.69,2.09,1.96,3.85.33,2.06.56,4.98-.23,7.1-1.06,2.69-.27,5.61,2.09,7.73,1.13,1.03,2.75,1.76,4.45,2.52ZM421.53,246.4c4.71-2.72,5.08-10.98.8-18.42-4.31-7.43-11.65-11.25-16.36-8.53-4.75,2.72-5.11,10.98-.8,18.42,4.28,7.47,11.62,11.28,16.36,8.53Z"/>
  <path class="cls-2" d="M421.66,22.43c17.59,15.3,26.02,38.3,22.57,61.56-3.02,20.38-13.37,37.83-29.14,49.15-21.07,15.13-48.19,17.12-72.68,5.41-.7-4.05-1.53-8.1-2.75-12.05-1.39-4.48-3.05-8.83-5.04-13.08,12.68,10.55,30.43,15.46,48.55,11.78,30.63-6.21,50.74-34.55,44.9-63.29-1.46-7.23-4.45-13.84-8.56-19.51.7-.43.93-1.33.56-2.09-5.48-10.95-20.58-18.48-21.37-18.85l-1.36-.5c-14.3-5.08-29.6-4.81-43.11.7-5.01,2.06-9.99,5.01-16.13,9.59-7.04,5.24-12.28,10.82-16.03,16.99-3.09,5.08-6.94,12.98-7.67,21.74-.07.93.63,1.73,1.53,1.79h.13c.07,0,.13,0,.2-.03-.27,4.18.03,8.43.9,12.68.17.86.37,1.73.6,2.59-4.75-5.58-10.06-10.65-15.76-15.23v-.03c.56-5.41,1.89-11.22,4.12-17.75,4.45-13.31,11.55-24.69,20.48-32.99,15.73-14.6,35.38-17.69,49.11-17.69h.03c14.8,0,32.39,7.33,45.93,19.12Z"/>
  <path class="cls-6" d="M428.06,61.92c5.84,28.74-14.27,57.08-44.9,63.29-18.12,3.68-35.87-1.23-48.55-11.78-3.82-8.46-8.76-16.43-14.7-23.83-.7-.86-1.43-1.73-2.16-2.59-.23-.86-.43-1.73-.6-2.59-.86-4.25-1.16-8.5-.9-12.68.8-.07,1.39-.66,1.46-1.46.66-8.13,4.28-15.53,7.17-20.31,3.55-5.81,8.5-11.05,15.2-16.06,5.91-4.41,10.65-7.23,15.4-9.19,11.88-4.81,25.51-5.68,38.25-1.87,2.39.83,4.39,1.59,6.65,2.75,4.58,2.72,13.11,9.04,16.69,16.21.43.8,1.39,1.13,2.22.73.07-.03.13-.07.2-.13,4.12,5.67,7.1,12.28,8.56,19.51Z"/>
  <path class="cls-6" d="M422.32,227.99c4.28,7.43,3.92,15.7-.8,18.42-4.75,2.75-12.08-1.06-16.36-8.53-4.31-7.43-3.95-15.7.8-18.42,4.71-2.72,12.05,1.1,16.36,8.53Z"/>
  <path class="cls-1" d="M420.07,40.32c.37.76.13,1.66-.56,2.09-4.94-6.84-11.52-12.38-19.12-16.23-1.79-1.06-2.99-1.66-3.02-1.69l-1.13-.4c-.93-.33-1.86-.63-2.82-.9-9.62-3.38-20.44-4.28-31.36-2.06-26.08,5.28-44.54,26.65-45.8,50.61-.07.03-.13.03-.2.03h-.13c-.9-.07-1.59-.86-1.53-1.79.73-8.76,4.58-16.66,7.67-21.74,3.75-6.17,8.99-11.75,16.03-16.99,6.14-4.58,11.12-7.53,16.13-9.59,13.51-5.51,28.81-5.77,43.11-.7l1.36.5c.8.37,15.9,7.9,21.37,18.85Z"/>
  <path class="cls-1" d="M419.5,42.41c-.07.07-.13.1-.2.13-.83.4-1.79.07-2.22-.73-3.58-7.17-12.11-12.91-16.69-15.63,7.6,3.85,14.17,9.39,19.12,16.23Z"/>
  <path class="cls-1" d="M393.42,23.2c-12.74-3.82-26.05-3.29-37.93,1.53-4.75,1.96-9.49,4.78-15.4,9.19-6.7,5.01-11.65,10.25-15.2,16.06-2.89,4.78-6.5,12.18-7.17,20.31-.07.8-.66,1.39-1.46,1.46,1.26-23.96,19.71-45.33,45.8-50.61,10.92-2.22,21.74-1.33,31.36,2.06Z"/>
  <path class="cls-2" d="M347.56,197.22c1.49,7.13,2.79,13.31.9,20.34-5.84,21.8-23.5,39.79-49.75,50.64-7.17,2.99-12.78,4.38-20.38,6.21-8.43-4.41-17.32-8.56-26.52-12.41-56.35-23.53-110.34-28.74-134.83-15.17-8.53-8.56-14.14-18.15-17.12-29.27-1.89-7.04-.63-13.21.86-20.34.23-1.1.46-2.19.66-3.32.76-3.88,1.46-7.63,2.12-11.35v4.51c0,24.56,19.94,44.54,44.5,44.54h19.15c22.7,0,41.45-17.09,44.17-39.06,2.06-.6,9.49-2.09,24.96.17,2.75,21.9,21.47,38.89,44.1,38.89h19.15c24.56,0,44.5-19.98,44.5-44.54v-7.1c0-1-.07-1.92-.13-2.89.9,5.51,1.86,11.12,2.99,16.83.23,1.13.46,2.22.66,3.32ZM235.75,249.29c.63-.66.56-1.73-.13-2.32l-10.82-9.52v-13.51c4.98-.76,8.79-4.91,8.79-7.93,0-3.32-4.68-6.04-10.45-6.04s-10.42,2.72-10.42,6.04c0,3.02,3.82,7.13,8.76,7.93v13.54s.03.07.03.1l-6.64,7.33c-.6.7-.56,1.73.13,2.36.66.6,1.73.56,2.32-.13l5.97-6.6,10.12,8.93c.3.27.7.4,1.1.4.46,0,.93-.17,1.23-.56Z"/>
  <path class="cls-7" d="M341.65,421.23c4.02,24.03-1.96,50.04-17.72,77.32-.63,1.13-1.46,2.42-2.32,3.82-4.25,6.7-10.02,15.86-8.26,22.9.1.37.3.7.6.93.03,0,2.12,1.69,1.63,3.05-.7,1.89-7.17,7.9-60.73,4.88-3.85-.23-6.07-3.52-6.87-6.54-6.34-23.76-13.57-32.09-18.55-34.88-2.89-1.66-5.04-1.46-5.74-1.33-11.68.86-21.64,32.52-22.8,36.44-.46,3.45-3.35,6.11-6.84,6.31-53.6,3.02-60.03-2.99-60.73-4.88-.5-1.36,1.59-3.05,1.59-3.05.33-.23.53-.56.63-.93,1.76-7.04-4.02-16.19-8.26-22.9-.86-1.39-1.69-2.69-2.32-3.82l-.27-.43c-4.78-8.26-9.72-16.83-12.61-26.08-3.82-12.28-5.81-26.18-5.97-41.35-.03-5.08.13-10.35.46-15.66,3.02,1.43,6.07,2.72,8.96,3.95,1.39.56,2.79,1.16,4.12,1.73,5.54,2.39,11.12,4.78,16.66,7.07,3.12,1.29,6.21,2.59,9.33,3.82.13.03.4.13.73.23.3.1,1,.3,1.39.43,8.5,17.56,15.6,26.12,21.7,26.12.17,0,.37,0,.53-.03,5.08-.43,6.9-6.64,7-7.04.23-1.13.73-1.36.9-1.43,1.56-.73,4.94.63,6.5,1.49,3.75,1.49,7.67,2.65,10.88,1.03,4.55-2.29,3.45-7.6,2.65-11.48-.2-1.03-.4-2.02-.5-2.89,29.9,11.02,58.34,16.69,81.17,16.69,17.59,0,31.83-3.38,40.85-10.15.07-.03.13-.03.17-.07.33-.23.63-.5.93-.73.13-.13.33-.23.46-.37l.1-.1c8.43-6.87,15-15.4,20.11-24.49.17.86.3,1.69.43,2.42Z"/>
  <path class="cls-7" d="M340.72,179.97v7.1c0,22.73-18.48,41.22-41.18,41.22h-19.15c-22.73,0-41.18-18.48-41.18-41.22v-7.1c0-22.73,18.45-41.22,41.18-41.22h19.15c22.7,0,41.18,18.48,41.18,41.22ZM327.98,189.23v-9.96c0-17.46-14.2-31.66-31.66-31.66h-15.66c-17.46,0-31.66,14.2-31.66,31.66v9.96c0,17.46,14.2,31.66,31.66,31.66h15.66c17.46,0,31.66-14.2,31.66-31.66Z"/>
  <path class="cls-1" d="M333.75,330.93c1.36,2.06,1.83,4.51,1.29,6.9-.9,4.31-4.71,7.27-8.93,7.27-.63,0-1.26-.07-1.89-.2-2.39-.5-4.45-1.89-5.77-3.95-1.33-2.06-1.79-4.48-1.29-6.87s1.89-4.45,3.95-5.77c2.02-1.36,4.48-1.83,6.87-1.29,2.39.5,4.45,1.89,5.77,3.92ZM331.83,337.13c.3-1.53,0-3.09-.83-4.38-.86-1.29-2.16-2.19-3.68-2.52-.4-.07-.8-.1-1.19-.1-2.72,0-5.14,1.89-5.71,4.61-.33,1.53-.03,3.09.83,4.38.83,1.33,2.16,2.22,3.68,2.52,3.15.66,6.24-1.36,6.9-4.51Z"/>
  <path class="cls-1" d="M327.98,179.27v9.96c0,17.46-14.2,31.66-31.66,31.66h-15.66c-17.46,0-31.66-14.2-31.66-31.66v-9.96c0-17.46,14.2-31.66,31.66-31.66h15.66c17.46,0,31.66,14.2,31.66,31.66ZM324.66,189.23v-9.96c0-15.63-12.71-28.34-28.34-28.34h-15.66c-15.63,0-28.34,12.71-28.34,28.34v9.96c0,15.63,12.71,28.34,28.34,28.34h15.66c15.63,0,28.34-12.71,28.34-28.34Z"/>
  <path class="cls-1" d="M334.61,113.43c-3.05-2.56-5.81-5.41-8.2-8.56-1.29-2.22-2.69-4.41-4.18-6.54-1.92-3.52-3.45-7.3-4.48-11.32.73.86,1.46,1.73,2.16,2.59,5.94,7.4,10.88,15.37,14.7,23.83Z"/>
  <rect class="cls-4" x="252.31" y="150.93" width="72.35" height="66.64" rx="28.34" ry="28.34"/>
  <path class="cls-6" d="M322.24,98.33c1.49,2.12,2.89,4.31,4.18,6.54-1.56-2.06-2.95-4.25-4.18-6.54Z"/>
  <path class="cls-7" d="M298.77,272.62v13.44c-5.11-3.22-10.45-6.31-16.03-9.33,3.95-.96,7.47-1.92,11.15-3.19.03,0,.07.03.1,0,1.59-.27,3.19-.6,4.78-.93Z"/>
  <path class="cls-1" d="M271.43,403.37c4.41,0,7.87,2.56,7.87,5.77s-3.45,5.77-7.87,5.77-7.9-2.56-7.9-5.77,3.48-5.77,7.9-5.77ZM275.97,409.15c0-1.16-1.92-2.46-4.55-2.46s-4.58,1.29-4.58,2.46,1.96,2.46,4.58,2.46,4.55-1.29,4.55-2.46Z"/>
  <path class="cls-4" d="M251.38,118.14c5.84,0,10.59,3.29,10.59,7.37s-4.75,7.37-10.59,7.37-10.55-3.32-10.55-7.37,4.71-7.37,10.55-7.37Z"/>
  <path class="cls-1" d="M241.23,409.25c8.73,0,15.83,6.11,15.83,13.64s-7.1,13.61-15.83,13.61-15.8-6.11-15.8-13.61,7.1-13.64,15.8-13.64ZM253.74,422.89c0-5.71-5.61-10.32-12.51-10.32s-12.48,4.61-12.48,10.32,5.61,10.29,12.48,10.29,12.51-4.61,12.51-10.29Z"/>
  <path class="cls-4" d="M235.62,246.97c.7.6.76,1.66.13,2.32-.3.4-.76.56-1.23.56-.4,0-.8-.13-1.1-.4l-10.12-8.93-5.97,6.6c-.6.7-1.66.73-2.32.13-.7-.63-.73-1.66-.13-2.36l6.64-7.33s-.03-.07-.03-.1v-13.54c-4.94-.8-8.76-4.91-8.76-7.93,0-3.32,4.68-6.04,10.42-6.04s10.45,2.72,10.45,6.04c0,3.02-3.82,7.17-8.79,7.93v13.51l10.82,9.52Z"/>
  <path class="cls-7" d="M235.89,187.07c0,.76.07,1.49.1,2.26-13.47-1.92-21.04-1.03-24.39-.27.03-.66.1-1.33.1-1.99v-5.87c2.46-.63,9.79-1.86,24.19.2v5.67Z"/>
  <path class="cls-1" d="M222.64,312.21c7.8,1.33,13.24,6.24,12.41,11.25-.7,4.15-5.54,6.84-11.68,6.84-1.23,0-2.46-.1-3.72-.3-3.58-.6-6.84-1.99-9.16-3.95-2.56-2.16-3.72-4.75-3.29-7.3.83-4.98,7.6-7.83,15.43-6.54ZM231.8,322.9c.43-2.65-3.45-6.37-9.72-7.4-1.1-.2-2.16-.27-3.12-.27-4.71,0-8.1,1.89-8.5,4.08-.3,1.79,1.23,3.38,2.19,4.18,1.86,1.59,4.55,2.72,7.53,3.22,6.27,1.06,11.15-1.16,11.62-3.82Z"/>
  <path class="cls-7" d="M208.37,179.97v7.1c0,22.73-18.48,41.22-41.22,41.22h-19.15c-22.7,0-41.18-18.48-41.18-41.22v-7.1c0-22.73,18.48-41.22,41.18-41.22h19.15c22.73,0,41.22,18.48,41.22,41.22ZM198.55,189.32v-9.99c0-17.46-14.2-31.66-31.66-31.66h-15.66c-17.46,0-31.66,14.2-31.66,31.66v9.99c0,17.46,14.2,31.66,31.66,31.66h15.66c17.46,0,31.66-14.2,31.66-31.66Z"/>
  <path class="cls-2" d="M205.62,419.34c2.72,2.85.83,5.54-.53,6.9-2.12,2.06-4.21,3.42-5.91,3.78-2.46.56-4.12,2.39-4.81,4.91,0,.07-.07.1-.1.17-.07.23-.1.46-.1.7,0,.17-.1.33-.1.5-.17,1.56.2,3.38.6,5.28.83,4.05,1.23,6.77-.9,7.87-2.32,1.16-6.27-.4-7.96-1.06-.56-.33-5.77-3.19-9.33-1.53-1.03.46-2.32,1.53-2.72,3.68,0,.03-1.33,4.28-4.08,4.51-1.99.17-8.16-1.86-19.15-24.62-.46-.93-1.53-1.29-3.25-1.79l-.43-.13c-3.12-1.23-6.17-2.49-9.26-3.78-5.58-2.32-11.12-4.68-16.63-7.07-1.36-.56-2.75-1.16-4.15-1.76-9.79-4.08-19.88-8.36-26.85-16.1-8.6-9.56-3.22-26.48,4.12-33.48.5-.46.63-1.19.4-1.83l38.69,19.28c-.07.03-.13.1-.17.17-.53.73-.37,1.76.37,2.29,5.31,3.78,10.85,7.27,16.49,10.35l1.06.56c4.28,2.36,9.16,5.04,14.8,2.16.46-.23.86-.56,1.26-.86.23-.17.43-.33.66-.46l.8-.5c.43-.27.9-.53,1.33-.8,3.68-2.09,6.8-3.52,9.79-4.41,2.49-.73,6.07-1.56,8.79-.1,2.09,1.16,2.89,3.62,3.22,5.44.27,1.56.27,3.29,0,5.24l-.13.83c-.3,1.76-.56,3.62.5,5.77,1.86,3.88,6.07,5.77,9.06,6.87,1.63.56,3.32,1.73,4.61,3.02Z"/>
  <path class="cls-1" d="M198.55,179.34v9.99c0,17.46-14.2,31.66-31.66,31.66h-15.66c-17.46,0-31.66-14.2-31.66-31.66v-9.99c0-17.46,14.2-31.66,31.66-31.66h15.66c17.46,0,31.66,14.2,31.66,31.66ZM195.23,189.32v-9.99c0-15.63-12.71-28.34-28.34-28.34h-15.66c-15.63,0-28.34,12.71-28.34,28.34v9.99c0,15.63,12.71,28.34,28.34,28.34h15.66c15.63,0,28.34-12.71,28.34-28.34Z"/>
  <ellipse class="cls-4" cx="188.33" cy="125.51" rx="10.55" ry="7.37"/>
  <rect class="cls-4" x="122.89" y="151" width="72.35" height="66.67" rx="28.34" ry="28.34"/>
  <path class="cls-1" d="M170.94,259.18c2.46,4.88,1.33,10.45-2.59,12.44-.93.46-1.96.7-2.99.7-3.25,0-6.7-2.26-8.56-5.94-2.49-4.88-1.33-10.45,2.56-12.44,1.96-1,4.28-.96,6.54.13,2.06,1,3.85,2.82,5.04,5.11ZM166.86,268.67c2.22-1.13,2.72-4.78,1.1-8-.83-1.63-2.09-2.92-3.52-3.62-.7-.33-1.39-.5-2.06-.5-.53,0-1.06.1-1.53.33-2.22,1.13-2.72,4.78-1.1,8,1.63,3.19,4.88,4.91,7.1,3.78Z"/>
  <path class="cls-2" d="M142.2,53.99c2.12,6.31,3.42,11.88,4.02,17.09-5.21,4.15-10.06,8.66-14.47,13.57.03-.07.07-.17.07-.23.86-4.28,1.16-8.53.9-12.74.73-.17,1.26-.9,1.16-1.69-.73-8.76-4.55-16.66-7.63-21.74-3.75-6.17-8.99-11.71-16.03-16.99-6.14-4.58-11.12-7.53-16.16-9.59-13.47-5.51-28.77-5.77-43.08-.7l-1.53.56c-.63.3-15.73,7.83-21.21,18.78-.4.83-.07,1.83.73,2.22.1.07.2.1.3.1-4.02,5.64-6.9,12.15-8.36,19.28-5.84,28.74,14.27,57.08,44.9,63.29,17.02,3.45,33.72-.66,46.16-9.96-3.25,7.4-5.67,15.17-7.23,23.23-24.42,11.71-50.48,9.79-71.55-5.34-15.76-11.32-26.08-28.77-29.14-49.15C.63,60.73,9.06,37.73,26.62,22.43,40.16,10.65,57.78,3.32,72.58,3.32h.03c13.71,0,33.35,3.09,49.11,17.69,8.93,8.3,16,19.68,20.48,32.99Z"/>
  <path class="cls-1" d="M133.87,69.99c.1.8-.43,1.53-1.16,1.69-1.29-23.93-19.75-45.27-45.8-50.54-9.52-1.92-18.92-1.53-27.54.86-.33.1-.63.17-.96.27-2.12.46-4.25,1.1-6.34,1.83l-1.29.46s-4.21,2.12-8.89,5.64c-.3.2-.63.46-.96.73-4.48,3.25-8.4,7.2-11.65,11.71-.1,0-.2-.03-.3-.1-.8-.4-1.13-1.39-.73-2.22,5.48-10.95,20.58-18.48,21.21-18.78l1.53-.56c14.3-5.08,29.6-4.81,43.08.7,5.04,2.06,10.02,5.01,16.16,9.59,7.04,5.28,12.28,10.82,16.03,16.99,3.09,5.08,6.9,12.98,7.63,21.74Z"/>
  <path class="cls-1" d="M132.71,71.68c-.1.07-.23.1-.33.1h-.17c-.83,0-1.56-.63-1.63-1.49-.7-8.13-4.28-15.53-7.2-20.31-3.52-5.81-8.46-11.05-15.17-16.06-5.91-4.41-10.65-7.23-15.43-9.19-10.45-4.25-22.1-5.18-33.42-2.72,8.63-2.39,18.02-2.79,27.54-.86,26.05,5.28,44.5,26.62,45.8,50.54Z"/>
  <path class="cls-1" d="M134.24,336.94c0,8.93-7.9,16.19-17.62,16.19s-17.62-7.27-17.62-16.19,7.9-16.16,17.62-16.16,17.62,7.23,17.62,16.16ZM130.92,336.94c0-7.07-6.4-12.84-14.3-12.84s-14.3,5.77-14.3,12.84,6.4,12.88,14.3,12.88,14.3-5.77,14.3-12.88Z"/>
  <path class="cls-1" d="M131.75,84.66c-.56,2.75-1.36,5.41-2.36,7.96-4.28,5.41-8.03,11.18-11.18,17.26-1.92,1.96-4.02,3.75-6.24,5.38,4.88-11.18,11.58-21.5,19.78-30.6Z"/>
  <path class="cls-1" d="M40.92,30.93c-3.75,2.89-7.6,6.64-9.72,10.88-.37.7-1.16,1.06-1.92.83,3.25-4.51,7.17-8.46,11.65-11.71Z"/>
</svg>