<?xml version="1.0" encoding="UTF-8"?>
<svg id="_레이어_1" data-name="레이어 1" xmlns="http://www.w3.org/2000/svg" viewBox="0 0 665.81 770.16">
  <defs>
    <style>
      .cls-1 {
        fill: #b87676;
      }

      .cls-1, .cls-2, .cls-3, .cls-4, .cls-5, .cls-6 {
        stroke-width: 0px;
      }

      .cls-2 {
        fill: #f2c8c7;
      }

      .cls-3 {
        fill: #fff;
      }

      .cls-4 {
        fill: #5d9935;
      }

      .cls-5 {
        fill: #ed7a3b;
      }

      .cls-6 {
        fill: #3e3738;
      }
    </style>
  </defs>
  <path class="cls-4" d="M123.86,446.96c.1.05.15,0,.25.05-1.11,3.67-2.16,7.39-2.97,11.17-.86,3.77-1.41,7.65-1.81,11.52-.75-.1-1.56.1-2.11.7-3.57,3.57-6.99,7.44-10.31,11.22-9.56,10.82-18.56,21.08-31.19,25.3-8.25,2.77-17.56,1.91-26.26-2.46-9.21-4.63-16.1-12.42-18.96-21.33-3.72-11.37-1.76-20.98,5.78-28.47,6.69-6.64,16.85-10.92,27.87-13.33,7.6-1.66,15.54-2.46,23.04-2.46,9.05,0,17.46,1.16,23.59,3.17,5.84,1.91,7.14,2.46,13.08,4.93Z"/>
  <path class="cls-4" d="M154.95,372.92c2.11,4.53,4.07,8.85,5.78,13.98-3.52,3.47-6.84,7.09-10.01,10.97-19.97-17.86-36.02-37.93-50.3-63.08-5.28-9.21-10.16-19.27-9.96-29.88.2-9.91,5.89-20.98,14.84-28.87,5.63-4.98,12.93-6.64,19.01-4.28,7.65,2.92,12.73,11.87,14.74,18.66,2.72,9.05,3.07,19.01,3.42,28.62l.2,5.23c.6,13.58,2.92,25.6,7.14,36.72,1.66,4.43,3.42,8.25,5.13,11.92Z"/>
  <path class="cls-4" d="M34.42,377.49c22.99-5.28,56.49,13.63,71.98,28.07,8.55,8.05,18.06,16,25.6,21.53-2.41,4.93-4.53,10.01-6.34,15.19-.1,0-.15-.1-.2-.1-5.63-2.31-7.14-2.97-13.08-4.93-12.07-3.97-31.59-4.78-49.3-.86-3.57-.55-7.24-.96-10.82-1.31-10.36-1.11-21.03-2.21-29.58-7.9-9.86-6.59-13.73-18.96-9.41-30.13,4.12-10.71,11.22-17.3,21.13-19.57Z"/>
  <path class="cls-4" d="M134.27,422.52c-7.24-5.43-16.25-12.98-24.45-20.62-14.69-13.68-43.31-30.33-67.05-30.33-18.96-9.1-28.77-19.72-35.01-37.63-3.92-11.47-3.62-22.74.86-31.04,3.47-6.44,9.26-10.71,17.15-12.68,23.09-5.84,42.71,9.21,60.87,25.05,1.81,7.85,5.48,15.14,9.41,22.03,14.64,25.7,31.09,46.23,51.56,64.54-4.98,6.49-9.46,13.38-13.33,20.67Z"/>
  <path class="cls-5" d="M372.3,556.72c-5.48,23.64-19.52,43.51-19.67,43.71-.8,1.16-.55,2.72.6,3.52.45.3.96.45,1.46.45.75,0,1.56-.35,2.06-1.06.6-.86,14.74-20.83,20.42-45.52.3-1.31-.5-2.67-1.86-3.02-1.36-.3-2.72.55-3.02,1.91ZM126.02,459.24c5.78-26.36,19.92-51.06,39.14-69.62.1-.05.15-.15.25-.2,8.3-8,17.56-14.84,27.47-20.12,38.98-20.88,86.07-17.61,122.84,8.4,6.84,4.83,13.28,10.36,19.42,16.3.1,4.23-5.94,26.16-28.67,52.42-.91,1.01-.8,2.62.25,3.52.45.4,1.06.6,1.66.6.7,0,1.41-.25,1.91-.86,18.86-21.73,27.11-41.25,29.28-51.31,4.12,4.23,8.15,8.55,12.07,12.98-.4,1.96-2.52,8.65-12.68,27.11-.7,1.21-.25,2.77.96,3.42.4.25.8.3,1.21.3.91,0,1.76-.45,2.21-1.26,6.19-11.22,10.31-19.77,12.22-25.15,2.97,3.42,5.99,6.84,8.9,10.26,3.52,4.12,7.04,8.2,10.51,12.12,29.78,33.7,58.95,68.86,87.17,102.82,16.4,19.77,33.35,40.19,50.25,60.11l24.25,28.57c1.16,1.36.45,2.87.25,3.27-.5.91-1.61,1.81-3.07,1.61l-182-23.74c-4.98-.6-9.76-1.21-14.44-1.76,5.03-5.73,16.6-21.03,24.95-48.19.4-1.31-.35-2.72-1.66-3.17-1.36-.4-2.77.35-3.17,1.71-10.21,33.3-25.86,48.44-26.01,48.59-.1.1-.15.2-.2.3-3.57-.45-7.09-.86-10.56-1.26-16.6-1.96-32.34-3.77-50.81-6.64.3-3.47-.75-7.29-1.66-10.46-.7-2.46-1.36-4.78-1.36-6.39.05-1.61.55-4.48,3.47-5.38,4.38-1.36,8.3-5.03,10.82-7.9,5.08-5.89,4.93-12.78-.45-17.56-2.62-2.31-6.09-4.28-9.26-5.13-3.82-1.06-9.16-2.97-11.57-7.04-1.01-1.76-.91-3.42-.7-5.73l.1-1.36c.2-3.52-.05-6.59-.75-9.46-1.36-5.48-4.23-9.36-8.3-11.17-5.94-2.72-12.63-.7-17.1,1.01-4.83,1.86-9.66,4.53-15.34,8.35-.65.45-1.36.96-2.01,1.41l-1.11.8c-.5.35-.96.75-1.41,1.16-.35.3-.7.65-1.11.91-5.94,3.62-11.47,1.11-17.91-1.81l-1.66-.75c-8.7-3.92-17.3-8.45-25.55-13.48-15.85-9.61-30.23-20.88-42.76-33.5-.2-.2-.4-.45-.6-.65,0-.1.05-.2.05-.3.35-5.58,1.11-11.22,2.26-16.7Z"/>
  <path class="cls-3" d="M315.46,279c0,3.22,3.97,7.8,8.9,7.8s8.85-4.58,8.85-7.8-3.97-5.89-8.85-5.89-8.9,2.62-8.9,5.89ZM139.4,239.61c6.79,23.24,29.43,45.47,60.61,56.34,12.63,4.43,25.3,6.49,37.22,6.49,28.37,0,52.47-11.77,61.67-32.14l6.79-.91c12.98-1.76,26.21-1.76,39.14,0l4.58.8c6.09,13.68,18.86,23.94,36.57,28.97,7.8,2.21,16.2,3.32,24.85,3.32,12.22,0,24.95-2.21,37.37-6.54,30.68-10.71,53.12-32.34,60.31-55.08.5,2.41.91,4.83,1.36,7.29.35,1.71.7,3.37,1.06,5.03,2.21,10.82,4.18,20.17,1.31,30.84-8.85,33.05-35.61,60.31-75.35,76.76-7.85,3.22-15.85,6.04-24.15,8.5-.4,0-.8.1-1.16.3-24.04,6.94-50.65,10.66-83,11.77-3.27-2.72-6.54-5.33-9.96-7.75-33.9-23.99-76.16-29.38-113.63-15.34-26.96-11.32-44.37-25.6-57.85-47.54-.4-7.29-1.16-14.69-3.27-21.78-1.66-5.58-4.98-12.02-9.86-16.7,0-6.19,1.16-11.77,2.52-18.21.4-1.91.86-3.82,1.26-5.89.55-2.87,1.06-5.73,1.61-8.55ZM387.8,342.08c.3-1.36-.6-2.72-1.96-2.97-22.89-4.68-43.01-7.95-64.44-9.26.45-4.18.8-9.46-1.06-14.34-1.96-5.13-6.74-8.7-13.03-9.76-9.66-1.56-22.08,2.57-25.3,12.02-1.36,4.07-.86,8.3-.05,12.02-2.62.1-5.18.2-7.9.4-1.36.1-2.41,1.31-2.31,2.67.1,1.41,1.31,2.41,2.67,2.36,41.95-2.97,72.23,1.01,110.41,8.8.15,0,.35.05.5.05,1.16,0,2.21-.86,2.46-2.01Z"/>
  <path class="cls-3" d="M144.83,195.5c0-33.3,9.46-63.88,28.02-90.9,28.32,12.48,57.04-6.99,75.35-30.94,1.66-2.21,3.42-4.58,4.98-7.04,5.28-8.5,7.14-18.91,5.48-28.72,20.32-7.7,40.85-11.37,64.44-11.37s46.68,4.33,68.41,13.08c-1.16,9.31.8,19.01,5.73,27.01,1.56,2.52,3.32,4.88,4.98,7.04,17.61,22.99,44.82,41.9,72.03,32.24,8.65,12.88,15.04,26.16,19.87,41.6,4.23,13.58,5.63,28.02,6.94,42,.3,2.97.6,5.99.91,9-17.1-22.49-55.58-30.33-93.66-17.05-21.33,7.44-39.34,20.27-50.76,36.22-6.14,8.55-9.91,17.4-11.37,26.16l-2.26-.3c-12.32-1.86-24.9-1.86-37.22,0l-4.58.65c-1.41-8.85-5.23-17.86-11.42-26.51-11.42-15.95-29.43-28.77-50.76-36.22-21.33-7.44-43.41-8.55-62.27-3.17-14.74,4.18-26.11,12.02-33.05,22.49l.2-5.28ZM385.03,167.23c8.8-1.41,15.14-7.39,14.19-13.33s-8.9-9.61-17.71-8.15c-8.8,1.41-15.14,7.39-14.19,13.33.96,5.94,8.9,9.61,17.71,8.15ZM281.71,157.42c.35-6.04-6.59-11.32-15.49-11.82-8.95-.5-16.45,3.97-16.75,9.96-.35,6.04,6.59,11.32,15.49,11.82,8.9.5,16.4-3.97,16.75-9.96Z"/>
  <path class="cls-3" d="M110.68,484.94c2.31-2.62,4.68-5.23,7.04-7.75.1.1.15.25.25.35.91.96,1.86,1.91,2.77,2.87,12.78,12.93,27.52,24.5,43.71,34.31,8.45,5.13,17.2,9.71,26.11,13.73l1.66.75c6.74,3.07,14.39,6.59,22.59,1.51.65-.4,1.26-.91,1.86-1.41.3-.3.6-.55.96-.8l1.11-.8c.65-.45,1.31-.96,1.96-1.36,5.28-3.62,9.81-6.09,14.24-7.8,3.67-1.41,9.05-3.07,13.28-1.16,3.27,1.46,4.83,5.08,5.48,7.85.6,2.31.8,4.88.6,7.9l-.1,1.26c-.2,2.72-.45,5.53,1.41,8.7,3.32,5.63,9.86,8,14.54,9.31,2.46.7,5.18,2.21,7.29,4.07,4.43,3.92,1.86,8.25-.05,10.46-2.92,3.37-5.94,5.63-8.45,6.39-4.28,1.31-6.89,5.08-7.04,10.11-.05,2.36.75,5.03,1.56,7.9,1.71,5.99,2.62,10.11-.45,11.97-3.42,2.01-9.51.1-12.17-.7-.91-.4-9.16-4.12-14.29-1.21-1.46.8-3.32,2.57-3.67,5.84,0,.1-1.51,6.64-5.63,7.29-3.12.55-12.58-1.86-31.79-35.01-.8-1.36-2.46-1.76-5.13-2.31l-.65-.15c-4.83-1.51-9.66-3.07-14.44-4.63-8.65-2.87-17.3-5.78-25.96-8.8-3.47-1.21-7.24-2.31-11.02-3.42-14.29-4.28-29.02-8.65-37.63-19.72-8.6-11.12-9.71-27.06-3.02-41.7,4.63-4.33,8.9-9.1,13.08-13.83Z"/>
  <path class="cls-3" d="M410.23,375.18v70.42c0,7.09-1.96,13.28-5.73,18.91-8.55-9.96-17.1-19.92-25.75-29.68-3.47-3.92-6.94-7.95-10.46-12.07-3.92-4.58-7.95-9.21-11.97-13.78l-.15-.15c-7.04-7.95-14.34-15.64-22.08-22.69,29.18-1.31,53.77-4.78,76.16-10.97Z"/>
  <path class="cls-3" d="M598.56,287.5c-7.19,4.18-7.75,16.65-1.21,27.97,6.49,11.27,17.61,17.05,24.8,12.88,7.19-4.12,7.7-16.65,1.21-27.92-6.54-11.27-17.61-17.05-24.8-12.93ZM500.98,561.4c-5.38.5-10.46.4-15.14-.45-.15-.05-.35,0-.55,0-6.44-7.75-12.93-15.54-19.27-23.19-6.54-7.85-13.08-15.74-19.72-23.69-5.18-20.02-4.33-37.93-4.33-38.28v-109.36c55.79-12.93,110.77-45.02,111.32-45.37,4.68-2.72,9.05-5.78,13.08-9.05,2.26-1.91,4.63-3.82,6.79-5.99,1.11-1.16,2.16-2.31,3.32-3.77,1.06-1.31,2.31-2.97,2.62-5.23.1-.75.1-1.56.05-2.31,0-.4-.05-.86,0-1.26l.05-1.36c.05-.8.1-1.61.2-2.41.5-6.44,1.41-11.57,2.82-16.1,1.16-3.77,3.17-9,7.09-11.12,2.97-1.56,6.39-.5,8.8.65,2.01,1.01,4.02,2.46,6.09,4.48l.86.86c1.86,1.91,3.82,3.92,7.34,4.48,6.14.96,11.87-2.67,15.64-5.53,1.96-1.51,4.68-2.67,7.29-3.12,1.76-.3,3.27-.05,4.43.8,1.51,1.06,2.57,3.12,2.97,5.78.5,3.17.86,7.55-.35,10.76-1.61,4.12-.4,8.5,3.17,11.72,1.71,1.56,4.18,2.67,6.74,3.82,5.58,2.52,8.95,4.28,8.45,7.9-.55,4.02-5.63,7.6-7.75,9.1-.86.45-8.45,4.53-9.46,10.31-.3,1.66-.15,4.23,2.06,6.54.05.1,4.12,5.58,1.86,9.31-1.61,2.72-9.21,8.4-44.37,2.62-.86-.15-1.66.15-2.26.75-.35.45-39.39,42.46-89.44,74.9-24.6,15.95-33.9,37.83-27.01,63.33,6.74,24.75,13.18,51.16,16.6,79.48Z"/>
  <path class="cls-2" d="M286.79,319.39c2.06-6.09,11.07-10.11,19.67-8.65,4.53.75,7.85,3.17,9.21,6.59,1.36,3.62,1.16,7.7.7,12.22-4.02-.15-8.05-.3-12.17-.35-.45-2.97-.6-8.75-.45-11.07.05-1.36-.96-2.57-2.36-2.67-1.41-.1-2.57.96-2.67,2.36-.15,2.26,0,7.8.4,11.47-3.92,0-7.9.05-12.02.2-.8-3.37-1.36-6.94-.3-10.11Z"/>
  <path class="cls-1" d="M112.54,266.53c-1.01-4.48-1.71-8.2-2.46-12.63-3.57-21.58-4.28-43.66-4.43-62.38-.25-24.7,2.01-44.17,7.09-61.12.86-2.92,1.81-5.78,2.87-8.6,4.63-12.32,13.43-27.52,28.77-29.93,6.89-1.11,11.72,2.26,17.25,6.14,1.41.96,2.77,1.96,4.28,2.87.8.55,1.66.91,2.46,1.41-18.91,27.77-28.57,59.06-28.57,93.11l-.5,13.98c-.3,1.96-.6,3.87-.86,5.84-.55,2.16-.91,4.38-1.06,6.59-1.36,8.25-2.82,16.6-4.58,25.4-.35,2.01-.8,3.92-1.21,5.78-1.11,5.23-2.11,10.21-2.52,15.49-.96-.55-1.91-1.06-2.97-1.46-4.28-1.61-9-1.71-13.58-.5Z"/>
  <path class="cls-1" d="M540.36,253.9c-4.78,28.62-14.29,55.63-29.07,82.6-.05.1-.05.2-.05.3-16.25,7.34-36.07,15.29-56.59,21.13,32.5-17.35,54.43-42.66,62.48-72.59,3.12-11.82,1.01-22.18-1.31-33.15-.3-1.66-.65-3.27-1.01-4.98-1.41-7.19-2.67-14.29-3.82-21.33.05-5.13-.65-10.26-2.36-15.19-.05-.05-.05-.1-.1-.2-.05-.35-.1-.7-.15-1.11-.96-6.74-1.66-13.63-2.26-20.37-1.36-14.19-2.77-28.92-7.19-43.01-4.83-15.54-11.27-28.97-19.92-42,1.86-.91,3.72-1.91,5.58-3.12,1.46-.91,2.87-1.91,4.23-2.87,5.53-3.87,10.36-7.24,17.25-6.14,15.39,2.41,24.15,17.61,28.77,29.93,1.06,2.82,2.01,5.68,2.87,8.6,5.08,16.95,7.34,36.42,7.09,61.12-.15,18.71-.8,40.8-4.43,62.38Z"/>
  <path class="cls-1" d="M350.72,615.78c-7.39,1.81-16.05,2.52-26.81,2.11-16.7-.6-31.39-4.33-43.16-10.82,13.78,1.96,26.31,3.42,39.44,4.93,9.66,1.16,19.62,2.31,30.53,3.77Z"/>
  <path class="cls-1" d="M485.58,222.36c3.37,9.61.4,20.83-8.25,31.64-8.95,11.12-22.84,20.37-39.09,26.06-33.2,11.57-65.9,4.48-72.99-15.74-7.04-20.27,14.19-46.18,47.39-57.75,10.51-3.67,21.23-5.53,31.24-5.53,5.43,0,10.66.55,15.54,1.66,13.53,3.07,22.84,10.06,26.16,19.67Z"/>
  <path class="cls-1" d="M235.63,206.57c33.2,11.57,54.43,37.48,47.33,57.75-7.04,20.22-39.74,27.31-72.94,15.74-33.2-11.57-54.43-37.43-47.33-57.7,3.32-9.61,12.63-16.6,26.11-19.67,4.93-1.11,10.16-1.66,15.59-1.66,10.01,0,20.72,1.86,31.24,5.53Z"/>
  <path class="cls-2" d="M494.89,566.78c2.16,0,4.38-.15,6.64-.4.55,5.13.96,10.26,1.31,15.49-4.33-5.08-8.6-10.21-12.88-15.34,1.61.15,3.22.25,4.93.25Z"/>
  <path class="cls-2" d="M237.84,608.03c.15-1.71.91-2.11,1.16-2.26,2.31-1.26,7.55.4,10.01,1.51,5.84,1.86,11.87,3.17,16.6.3,1.11-.65,1.91-1.51,2.57-2.36.25,0,.5.05.7.1,13.73,10.71,32.65,16.8,54.88,17.61,2.01.05,3.92.1,5.84.1,13.38,0,23.54-1.86,32.39-5.78l139.79,18.21c-1.41,12.12-3.62,22.89-7.19,34.31-4.38,14.03-11.87,27.01-19.12,39.54l-.4.65c-.96,1.71-2.16,3.67-3.52,5.78-6.44,10.16-15.19,24.04-12.53,34.71.15.55.5,1.06.96,1.41,0,0,3.22,2.57,2.41,4.63-1.06,2.92-10.82,11.97-92.05,7.39-5.84-.35-9.21-5.33-10.41-9.91-9.61-35.97-20.57-48.64-28.12-52.87-4.38-2.52-7.65-2.16-8.7-2.01-17.71,1.31-32.8,49.3-34.56,55.23-.7,5.23-5.08,9.26-10.36,9.56-81.19,4.58-91-4.48-92.05-7.39-.75-2.06,2.41-4.63,2.41-4.63.5-.35.8-.86.96-1.41,2.67-10.66-6.09-24.55-12.53-34.71-1.31-2.11-2.57-4.07-3.52-5.78l-.4-.65c-7.24-12.53-14.74-25.5-19.12-39.54-5.78-18.61-8.8-39.69-9.05-62.68-.1-12.37.55-25.5,2.01-38.93.25.1.5.15.75.25,8.65,2.97,17.3,5.94,26.01,8.8,4.83,1.56,9.66,3.12,14.49,4.63.2.1.6.2,1.16.3.45.1,1.51.3,2.11.5,14.49,24.85,25.96,36.97,35.06,36.97.5,0,1.06,0,1.56-.1,7.65-1.26,9.66-10.87,9.81-11.47Z"/>
  <path class="cls-2" d="M439.31,505.72c-10.36-12.42-20.88-24.85-31.44-37.27,4.88-6.74,7.39-14.24,7.39-22.84v-71.83c4.93-1.46,9.71-3.12,14.44-4.83,2.41-.45,4.83-.91,7.24-1.46v108.2c0,.65-.6,13.58,2.36,30.03Z"/>
  <path class="cls-2" d="M157.91,220.7c-7.95,22.89,14.64,51.66,50.45,64.14,11.22,3.87,22.38,5.73,32.75,5.73,22.64,0,41.15-8.9,46.63-24.65,7.95-22.84-14.64-51.61-50.45-64.09-17.15-5.99-34.76-7.39-49.6-4.02-15.24,3.47-25.86,11.57-29.78,22.89ZM201.68,291.23c-36.87-12.88-61.17-42-59.31-68.61.3-2.11.65-4.28.96-6.39.35-1.31.6-2.62,1.06-3.87,4.83-13.83,17.15-24.25,34.71-29.23,17.81-5.13,38.88-3.97,59.21,3.07,20.37,7.09,37.53,19.32,48.34,34.41,10.61,14.84,13.78,30.63,8.95,44.47-10.06,28.92-52.21,40.69-93.92,26.16Z"/>
  <path class="cls-2" d="M300.82,264.97c1.56-5.08,2.21-10.41,1.91-15.8l4.68-.65c11.87-1.76,23.94-1.76,35.82,0l2.31.3c-.35,5.43.3,10.76,1.81,15.9l-1.71-.3c-13.53-1.81-27.16-1.81-40.64,0l-4.18.55Z"/>
  <path class="cls-2" d="M410.99,201.84c-35.82,12.48-58.45,41.25-50.45,64.14,5.48,15.69,23.99,24.6,46.63,24.6,10.36,0,21.53-1.86,32.75-5.73,17.15-5.99,31.84-15.85,41.35-27.72,9.81-12.17,13.03-25.15,9.1-36.42-3.97-11.32-14.54-19.42-29.78-22.89-14.84-3.37-32.5-1.96-49.6,4.02ZM352.63,265.07c-4.83-13.83-1.61-29.63,9-44.47,10.82-15.09,27.97-27.31,48.34-34.41,12.12-4.23,24.3-6.24,35.71-6.24,27.52,0,50.55,11.67,57.95,31.84.7,4.83,1.46,9.71,2.31,14.64-.6,25.5-24.3,52.52-59.41,64.79-20.32,7.09-41.35,8.2-59.21,3.12-17.56-5.03-29.83-15.39-34.71-29.28Z"/>
  <path class="cls-2" d="M562.45,233.73c-4.83,30.84-14.39,62.48-27.52,91.6-4.63,2.36-10.11,5.08-16.3,8,13.33-25.6,22.13-51.41,26.66-78.62,3.67-21.93,4.38-44.22,4.53-63.13.25-25.25-2.06-45.12-7.29-62.63-.86-3.02-1.86-5.99-2.97-8.9-7.34-19.47-18.66-30.94-32.7-33.15-8.95-1.41-15.04,2.87-20.93,6.99-1.36.91-2.67,1.86-4.07,2.77-27.57,17.61-57.14-1.91-75.6-26.06-1.61-2.06-3.27-4.33-4.73-6.64-5.99-9.66-7.04-22.13-2.72-32.65,6.49-15.95,23.24-25.75,44.72-26.26,20.77-.5,39.84,6.79,58.5,22.23,13.83,11.42,26.01,27.01,37.22,47.59,30.94,56.74,29.68,117.71,23.19,158.86Z"/>
  <path class="cls-2" d="M97.6,276.69c-4.12-14.49-7.39-28.87-9.61-42.96-6.49-41.15-7.75-102.11,23.19-158.86,11.27-20.57,23.44-36.17,37.22-47.59,18.66-15.44,37.63-22.64,58.5-22.23,21.48.5,38.23,10.31,44.77,26.26,4.28,10.51,3.22,22.99-2.77,32.65-1.46,2.31-3.12,4.53-4.68,6.64-18.51,24.15-48.04,43.71-75.66,26.06-1.41-.91-2.72-1.86-4.07-2.77-5.89-4.12-11.97-8.4-20.93-6.99-14.03,2.21-25.35,13.68-32.7,33.15-1.11,2.92-2.06,5.89-2.97,8.9-5.23,17.51-7.55,37.37-7.29,62.63.15,18.91.86,41.2,4.53,63.13.75,4.73,1.51,8.7,2.67,13.58-2.06,1.06-4.02,2.36-5.89,3.97-1.51,1.41-2.97,2.87-4.33,4.43Z"/>
  <path class="cls-2" d="M623.36,300.43c6.49,11.27,5.99,23.79-1.21,27.92-7.19,4.18-18.31-1.61-24.8-12.88-6.54-11.32-5.99-23.79,1.21-27.97,7.19-4.12,18.26,1.66,24.8,12.93Z"/>
  <path class="cls-2" d="M399.21,153.9c.96,5.94-5.38,11.92-14.19,13.33-8.8,1.46-16.75-2.21-17.71-8.15-.96-5.94,5.38-11.92,14.19-13.33,8.8-1.46,16.75,2.21,17.71,8.15Z"/>
  <path class="cls-6" d="M365.26,264.31c7.09,20.22,39.79,27.31,72.99,15.74,16.25-5.68,30.13-14.94,39.09-26.06,8.65-10.82,11.62-22.03,8.25-31.64-3.32-9.61-12.63-16.6-26.16-19.67-4.88-1.11-10.11-1.66-15.54-1.66-10.01,0-20.72,1.86-31.24,5.53-33.2,11.57-54.43,37.48-47.39,57.75ZM360.53,265.97c-8-22.89,14.64-51.66,50.45-64.14,17.1-5.99,34.76-7.39,49.6-4.02,15.24,3.47,25.81,11.57,29.78,22.89,3.92,11.27.7,24.25-9.1,36.42-9.51,11.87-24.2,21.73-41.35,27.72-11.22,3.87-22.38,5.73-32.75,5.73-22.64,0-41.15-8.9-46.63-24.6Z"/>
  <path class="cls-6" d="M352.63,600.44c.15-.2,14.19-20.07,19.67-43.71.3-1.36,1.66-2.21,3.02-1.91,1.36.35,2.16,1.71,1.86,3.02-5.68,24.7-19.82,44.67-20.42,45.52-.5.7-1.31,1.06-2.06,1.06-.5,0-1.01-.15-1.46-.45-1.16-.8-1.41-2.36-.6-3.52Z"/>
  <path class="cls-1" d="M333.22,279c0,3.22-3.97,7.8-8.85,7.8s-8.9-4.58-8.9-7.8,3.97-5.89,8.9-5.89,8.85,2.62,8.85,5.89Z"/>
  <path class="cls-2" d="M266.21,145.6c8.9.5,15.85,5.78,15.49,11.82-.35,5.99-7.85,10.46-16.75,9.96-8.9-.5-15.85-5.78-15.49-11.82.3-5.99,7.8-10.46,16.75-9.96Z"/>
  <path class="cls-6" d="M384.83,344.04c-38.18-7.8-68.46-11.77-110.41-8.8-1.36.05-2.57-.96-2.67-2.36-.1-1.36.96-2.57,2.31-2.67,2.72-.2,5.28-.3,7.9-.4-.8-3.72-1.31-7.95.05-12.02,3.22-9.46,15.64-13.58,25.3-12.02,6.29,1.06,11.07,4.63,13.03,9.76,1.86,4.88,1.51,10.16,1.06,14.34,21.43,1.31,41.55,4.58,64.44,9.26,1.36.25,2.26,1.61,1.96,2.97-.25,1.16-1.31,2.01-2.46,2.01-.15,0-.35-.05-.5-.05ZM306.46,310.74c-8.6-1.46-17.61,2.57-19.67,8.65-1.06,3.17-.5,6.74.3,10.11,4.12-.15,8.1-.2,12.02-.2-.4-3.67-.55-9.21-.4-11.47.1-1.41,1.26-2.46,2.67-2.36,1.41.1,2.41,1.31,2.36,2.67-.15,2.31,0,8.1.45,11.07,4.12.05,8.15.2,12.17.35.45-4.53.65-8.6-.7-12.22-1.36-3.42-4.68-5.84-9.21-6.59Z"/>
  <path class="cls-6" d="M188.8,202.69c-13.48,3.07-22.79,10.06-26.11,19.67-7.09,20.27,14.14,46.13,47.33,57.7,33.2,11.57,65.9,4.48,72.94-15.74,7.09-20.27-14.14-46.18-47.33-57.75-10.51-3.67-21.23-5.53-31.24-5.53-5.43,0-10.66.55-15.59,1.66ZM208.37,284.84c-35.82-12.48-58.4-41.25-50.45-64.14,3.92-11.32,14.54-19.42,29.78-22.89,14.84-3.37,32.45-1.96,49.6,4.02,35.82,12.48,58.4,41.25,50.45,64.09-5.48,15.74-23.99,24.65-46.63,24.65-10.36,0-21.53-1.86-32.75-5.73Z"/>
  <path class="cls-6" d="M501.53,566.38c-2.26.25-4.48.4-6.64.4-1.71,0-3.32-.1-4.93-.25,4.28,5.13,8.55,10.26,12.88,15.34-.35-5.23-.75-10.36-1.31-15.49ZM454.65,357.93c20.52-5.84,40.34-13.78,56.59-21.13,0-.1,0-.2.05-.3,14.79-26.96,24.3-53.97,29.07-82.6,3.62-21.58,4.28-43.66,4.43-62.38.25-24.7-2.01-44.17-7.09-61.12-.86-2.92-1.81-5.78-2.87-8.6-4.63-12.32-13.38-27.52-28.77-29.93-6.89-1.11-11.72,2.26-17.25,6.14-1.36.96-2.77,1.96-4.23,2.87-1.86,1.21-3.72,2.21-5.58,3.12,8.65,13.03,15.09,26.46,19.92,42,4.43,14.08,5.84,28.82,7.19,43.01.6,6.74,1.31,13.63,2.26,20.37.05.4.1.75.15,1.11.05.1.05.15.1.2,1.71,4.93,2.41,10.06,2.36,15.19,1.16,7.04,2.41,14.14,3.82,21.33.35,1.71.7,3.32,1.01,4.98,2.31,10.97,4.43,21.33,1.31,33.15-8.05,29.93-29.98,55.23-62.48,72.59ZM553.29,321.05c-.55.35-55.53,32.45-111.32,45.37v109.36c0,.35-.86,18.26,4.33,38.28,6.64,7.95,13.18,15.85,19.72,23.69,6.34,7.65,12.83,15.44,19.27,23.19.2,0,.4-.05.55,0,4.68.86,9.76.96,15.14.45-3.42-28.32-9.86-54.73-16.6-79.48-6.89-25.5,2.41-47.39,27.01-63.33,50.05-32.45,89.09-74.45,89.44-74.9.6-.6,1.41-.91,2.26-.75,35.16,5.78,42.76.1,44.37-2.62,2.26-3.72-1.81-9.21-1.86-9.31-2.21-2.31-2.36-4.88-2.06-6.54,1.01-5.78,8.6-9.86,9.46-10.31,2.11-1.51,7.19-5.08,7.75-9.1.5-3.62-2.87-5.38-8.45-7.9-2.57-1.16-5.03-2.26-6.74-3.82-3.57-3.22-4.78-7.6-3.17-11.72,1.21-3.22.86-7.6.35-10.76-.4-2.67-1.46-4.73-2.97-5.78-1.16-.86-2.67-1.11-4.43-.8-2.62.45-5.33,1.61-7.29,3.12-3.77,2.87-9.51,6.49-15.64,5.53-3.52-.55-5.48-2.57-7.34-4.48l-.86-.86c-2.06-2.01-4.07-3.47-6.09-4.48-2.41-1.16-5.84-2.21-8.8-.65-3.92,2.11-5.94,7.34-7.09,11.12-1.41,4.53-2.31,9.66-2.82,16.1-.1.8-.15,1.61-.2,2.41l-.05,1.36c-.05.4,0,.86,0,1.26.05.75.05,1.56-.05,2.31-.3,2.26-1.56,3.92-2.62,5.23-1.16,1.46-2.21,2.62-3.32,3.77-2.16,2.16-4.53,4.07-6.79,5.99-4.02,3.27-8.4,6.34-13.08,9.05ZM436.94,367.48c-2.41.55-4.83,1.01-7.24,1.46-4.73,1.71-9.51,3.37-14.44,4.83v71.83c0,8.6-2.52,16.1-7.39,22.84,10.56,12.42,21.08,24.85,31.44,37.27-2.97-16.45-2.36-29.38-2.36-30.03v-108.2ZM443.53,5.05c-21.48.5-38.23,10.31-44.72,26.26-4.33,10.51-3.27,22.99,2.72,32.65,1.46,2.31,3.12,4.58,4.73,6.64,18.46,24.15,48.04,43.66,75.6,26.06,1.41-.91,2.72-1.86,4.07-2.77,5.89-4.12,11.97-8.4,20.93-6.99,14.03,2.21,25.35,13.68,32.7,33.15,1.11,2.92,2.11,5.89,2.97,8.9,5.23,17.51,7.55,37.37,7.29,62.63-.15,18.91-.86,41.2-4.53,63.13-4.53,27.21-13.33,53.02-26.66,78.62,6.19-2.92,11.67-5.63,16.3-8,13.13-29.13,22.69-60.77,27.52-91.6,6.49-41.15,7.75-102.11-23.19-158.86-11.22-20.57-23.39-36.17-37.22-47.59-18.66-15.44-37.73-22.74-58.5-22.23ZM361.64,220.6c-10.61,14.84-13.83,30.63-9,44.47,4.88,13.88,17.15,24.25,34.71,29.28,17.86,5.08,38.88,3.97,59.21-3.12,35.11-12.27,58.8-39.29,59.41-64.79-.86-4.93-1.61-9.81-2.31-14.64-7.39-20.17-30.43-31.84-57.95-31.84-11.42,0-23.59,2.01-35.71,6.24-20.37,7.09-37.53,19.32-48.34,34.41ZM410.23,375.18c-22.38,6.19-46.98,9.66-76.16,10.97,7.75,7.04,15.04,14.74,22.08,22.69l.15.15c4.02,4.58,8.05,9.21,11.97,13.78,3.52,4.12,6.99,8.15,10.46,12.07,8.65,9.76,17.2,19.72,25.75,29.68,3.77-5.63,5.73-11.82,5.73-18.91v-70.42ZM302.73,249.17c.3,5.38-.35,10.71-1.91,15.8l4.18-.55c13.48-1.81,27.11-1.81,40.64,0l1.71.3c-1.51-5.13-2.16-10.46-1.81-15.9l-2.31-.3c-11.87-1.76-23.94-1.76-35.82,0l-4.68.65ZM280.75,607.08c11.77,6.49,26.46,10.21,43.16,10.82,10.76.4,19.42-.3,26.81-2.11-10.92-1.46-20.88-2.62-30.53-3.77-13.13-1.51-25.65-2.97-39.44-4.93ZM153.94,669.75c4.38,14.03,11.87,27.01,19.12,39.54l.4.65c.96,1.71,2.21,3.67,3.52,5.78,6.44,10.16,15.19,24.04,12.53,34.71-.15.55-.45,1.06-.96,1.41,0,0-3.17,2.57-2.41,4.63,1.06,2.92,10.87,11.97,92.05,7.39,5.28-.3,9.66-4.33,10.36-9.56,1.76-5.94,16.85-53.92,34.56-55.23,1.06-.15,4.33-.5,8.7,2.01,7.55,4.23,18.51,16.9,28.12,52.87,1.21,4.58,4.58,9.56,10.41,9.91,81.24,4.58,91-4.48,92.05-7.39.8-2.06-2.41-4.63-2.41-4.63-.45-.35-.8-.86-.96-1.41-2.67-10.66,6.09-24.55,12.53-34.71,1.36-2.11,2.57-4.07,3.52-5.78l.4-.65c7.24-12.53,14.74-25.5,19.12-39.54,3.57-11.42,5.78-22.18,7.19-34.31l-139.79-18.21c-8.85,3.92-19.01,5.78-32.39,5.78-1.91,0-3.82-.05-5.84-.1-22.23-.8-41.15-6.89-54.88-17.61-.2-.05-.45-.1-.7-.1-.65.86-1.46,1.71-2.57,2.36-4.73,2.87-10.76,1.56-16.6-.3-2.46-1.11-7.7-2.77-10.01-1.51-.25.15-1.01.55-1.16,2.26-.15.6-2.16,10.21-9.81,11.47-.5.1-1.06.1-1.56.1-9.1,0-20.57-12.12-35.06-36.97-.6-.2-1.66-.4-2.11-.5-.55-.1-.96-.2-1.16-.3-4.83-1.51-9.66-3.07-14.49-4.63-8.7-2.87-17.35-5.84-26.01-8.8-.25-.1-.5-.15-.75-.25-1.46,13.43-2.11,26.56-2.01,38.93.25,22.99,3.27,44.07,9.05,62.68ZM154.49,359.18c1.61,4.28,3.37,8,5.03,11.62,1.81,3.82,3.62,7.8,5.23,12.32,7.9-7.14,16.55-13.38,25.75-18.26,2.62-1.46,5.33-2.77,8.05-3.97-22.54-10.11-38.43-22.64-51.01-40.39l.15,3.57c.55,13.03,2.82,24.5,6.79,35.11ZM142.37,222.61c-1.86,26.61,22.43,55.74,59.31,68.61,41.7,14.54,83.85,2.77,93.92-26.16,4.83-13.83,1.66-29.63-8.95-44.47-10.82-15.09-27.97-27.31-48.34-34.41-20.32-7.04-41.4-8.2-59.21-3.07-17.56,4.98-29.88,15.39-34.71,29.23-.45,1.26-.7,2.57-1.06,3.87-.3,2.11-.65,4.28-.96,6.39ZM172.85,104.6c-18.56,27.01-28.02,57.6-28.02,90.9l-.2,5.28c6.94-10.46,18.31-18.31,33.05-22.49,18.86-5.38,40.95-4.28,62.27,3.17,21.33,7.44,39.34,20.27,50.76,36.22,6.19,8.65,10.01,17.66,11.42,26.51l4.58-.65c12.32-1.86,24.9-1.86,37.22,0l2.26.3c1.46-8.75,5.23-17.61,11.37-26.16,11.42-15.95,29.43-28.77,50.76-36.22,38.08-13.28,76.56-5.43,93.66,17.05-.3-3.02-.6-6.04-.91-9-1.31-13.98-2.72-28.42-6.94-42-4.83-15.44-11.22-28.72-19.87-41.6-27.21,9.66-54.43-9.26-72.03-32.24-1.66-2.16-3.42-4.53-4.98-7.04-4.93-8-6.89-17.71-5.73-27.01-21.73-8.75-44.12-13.08-68.41-13.08s-44.12,3.67-64.44,11.37c1.66,9.81-.2,20.22-5.48,28.72-1.56,2.46-3.32,4.83-4.98,7.04-18.31,23.94-47.03,43.41-75.35,30.94ZM124.31,476.89c12.53,12.63,26.91,23.89,42.76,33.5,8.25,5.03,16.85,9.56,25.55,13.48l1.66.75c6.44,2.92,11.97,5.43,17.91,1.81.4-.25.75-.6,1.11-.91.45-.4.91-.8,1.41-1.16l1.11-.8c.65-.45,1.36-.96,2.01-1.41,5.68-3.82,10.51-6.49,15.34-8.35,4.48-1.71,11.17-3.72,17.1-1.01,4.07,1.81,6.94,5.68,8.3,11.17.7,2.87.96,5.94.75,9.46l-.1,1.36c-.2,2.31-.3,3.97.7,5.73,2.41,4.07,7.75,5.99,11.57,7.04,3.17.86,6.64,2.82,9.26,5.13,5.38,4.78,5.53,11.67.45,17.56-2.52,2.87-6.44,6.54-10.82,7.9-2.92.91-3.42,3.77-3.47,5.38,0,1.61.65,3.92,1.36,6.39.91,3.17,1.96,6.99,1.66,10.46,18.46,2.87,34.21,4.68,50.81,6.64,3.47.4,6.99.8,10.56,1.26.05-.1.1-.2.2-.3.15-.15,15.8-15.29,26.01-48.59.4-1.36,1.81-2.11,3.17-1.71,1.31.45,2.06,1.86,1.66,3.17-8.35,27.16-19.92,42.46-24.95,48.19,4.68.55,9.46,1.16,14.44,1.76l182,23.74c1.46.2,2.57-.7,3.07-1.61.2-.4.91-1.91-.25-3.27l-24.25-28.57c-16.9-19.92-33.85-40.34-50.25-60.11-28.22-33.95-57.4-69.12-87.17-102.82-3.47-3.92-6.99-8-10.51-12.12-2.92-3.42-5.94-6.84-8.9-10.26-1.91,5.38-6.04,13.93-12.22,25.15-.45.8-1.31,1.26-2.21,1.26-.4,0-.8-.05-1.21-.3-1.21-.65-1.66-2.21-.96-3.42,10.16-18.46,12.27-25.15,12.68-27.11-3.92-4.43-7.95-8.75-12.07-12.98-2.16,10.06-10.41,29.58-29.28,51.31-.5.6-1.21.86-1.91.86-.6,0-1.21-.2-1.66-.6-1.06-.91-1.16-2.52-.25-3.52,22.74-26.26,28.77-48.19,28.67-52.42-6.14-5.94-12.58-11.47-19.42-16.3-36.77-26.01-83.85-29.28-122.84-8.4-9.91,5.28-19.17,12.12-27.47,20.12-.1.05-.15.15-.25.2-19.22,18.56-33.35,43.26-39.14,69.62-1.16,5.48-1.91,11.12-2.26,16.7,0,.1-.05.2-.05.3.2.2.4.45.6.65ZM136.53,254.05c-1.36,6.44-2.52,12.02-2.52,18.21,4.88,4.68,8.2,11.12,9.86,16.7,2.11,7.09,2.87,14.49,3.27,21.78,13.48,21.93,30.89,36.22,57.85,47.54,37.48-14.03,79.73-8.65,113.63,15.34,3.42,2.41,6.69,5.03,9.96,7.75,32.34-1.11,58.95-4.83,83-11.77.35-.2.75-.3,1.16-.3,8.3-2.46,16.3-5.28,24.15-8.5,39.74-16.45,66.5-43.71,75.35-76.76,2.87-10.66.91-20.02-1.31-30.84-.35-1.66-.7-3.32-1.06-5.03-.45-2.46-.86-4.88-1.36-7.29-7.19,22.74-29.63,44.37-60.31,55.08-12.42,4.33-25.15,6.54-37.37,6.54-8.65,0-17.05-1.11-24.85-3.32-17.71-5.03-30.48-15.29-36.57-28.97l-4.58-.8c-12.93-1.76-26.16-1.76-39.14,0l-6.79.91c-9.21,20.37-33.3,32.14-61.67,32.14-11.92,0-24.6-2.06-37.22-6.49-31.19-10.87-53.82-33.1-60.61-56.34-.55,2.82-1.06,5.68-1.61,8.55-.4,2.06-.86,3.97-1.26,5.89ZM100.62,540.48c8.6,11.07,23.34,15.44,37.63,19.72,3.77,1.11,7.55,2.21,11.02,3.42,8.65,3.02,17.3,5.94,25.96,8.8,4.78,1.56,9.61,3.12,14.44,4.63l.65.15c2.67.55,4.33.96,5.13,2.31,19.22,33.15,28.67,35.56,31.79,35.01,4.12-.65,5.63-7.19,5.63-7.29.35-3.27,2.21-5.03,3.67-5.84,5.13-2.92,13.38.8,14.29,1.21,2.67.8,8.75,2.72,12.17.7,3.07-1.86,2.16-5.99.45-11.97-.8-2.87-1.61-5.53-1.56-7.9.15-5.03,2.77-8.8,7.04-10.11,2.52-.75,5.53-3.02,8.45-6.39,1.91-2.21,4.48-6.54.05-10.46-2.11-1.86-4.83-3.37-7.29-4.07-4.68-1.31-11.22-3.67-14.54-9.31-1.86-3.17-1.61-5.99-1.41-8.7l.1-1.26c.2-3.02,0-5.58-.6-7.9-.65-2.77-2.21-6.39-5.48-7.85-4.23-1.91-9.61-.25-13.28,1.16-4.43,1.71-8.95,4.18-14.24,7.8-.65.4-1.31.91-1.96,1.36l-1.11.8c-.35.25-.65.5-.96.8-.6.5-1.21,1.01-1.86,1.41-8.2,5.08-15.85,1.56-22.59-1.51l-1.66-.75c-8.9-4.02-17.66-8.6-26.11-13.73-16.2-9.81-30.94-21.38-43.71-34.31-.91-.96-1.86-1.91-2.77-2.87-.1-.1-.15-.25-.25-.35-2.36,2.52-4.73,5.13-7.04,7.75-4.18,4.73-8.45,9.51-13.08,13.83-6.69,14.64-5.58,30.58,3.02,41.7ZM110.08,253.9c.75,4.43,1.46,8.15,2.46,12.63,4.58-1.21,9.31-1.11,13.58.5,1.06.4,2.01.91,2.97,1.46.4-5.28,1.41-10.26,2.52-15.49.4-1.86.86-3.77,1.21-5.78,1.76-8.8,3.22-17.15,4.58-25.4.15-2.21.5-4.43,1.06-6.59.25-1.96.55-3.87.86-5.84l.5-13.98c0-34.05,9.66-65.34,28.57-93.11-.8-.5-1.66-.86-2.46-1.41-1.51-.91-2.87-1.91-4.28-2.87-5.53-3.87-10.36-7.24-17.25-6.14-15.34,2.41-24.15,17.61-28.77,29.93-1.06,2.82-2.01,5.68-2.87,8.6-5.08,16.95-7.34,36.42-7.09,61.12.15,18.71.86,40.8,4.43,62.38ZM87.99,233.73c2.21,14.08,5.48,28.47,9.61,42.96,1.36-1.56,2.82-3.02,4.33-4.43,1.86-1.61,3.82-2.92,5.89-3.97-1.16-4.88-1.91-8.85-2.67-13.58-3.67-21.93-4.38-44.22-4.53-63.13-.25-25.25,2.06-45.12,7.29-62.63.91-3.02,1.86-5.99,2.97-8.9,7.34-19.47,18.66-30.94,32.7-33.15,8.95-1.41,15.04,2.87,20.93,6.99,1.36.91,2.67,1.86,4.07,2.77,27.62,17.66,57.14-1.91,75.66-26.06,1.56-2.11,3.22-4.33,4.68-6.64,5.99-9.66,7.04-22.13,2.77-32.65-6.54-15.95-23.29-25.75-44.77-26.26-20.88-.4-39.84,6.79-58.5,22.23-13.78,11.42-25.96,27.01-37.22,47.59-30.94,56.74-29.68,117.71-23.19,158.86ZM90.46,304.91c-.2,10.61,4.68,20.67,9.96,29.88,14.29,25.15,30.33,45.22,50.3,63.08,3.17-3.87,6.49-7.5,10.01-10.97-1.71-5.13-3.67-9.46-5.78-13.98-1.71-3.67-3.47-7.5-5.13-11.92-4.23-11.12-6.54-23.14-7.14-36.72l-.2-5.23c-.35-9.61-.7-19.57-3.42-28.62-2.01-6.79-7.09-15.74-14.74-18.66-6.09-2.36-13.38-.7-19.01,4.28-8.95,7.9-14.64,18.96-14.84,28.87ZM64.15,441.33c-11.02,2.41-21.18,6.69-27.87,13.33-7.55,7.5-9.51,17.1-5.78,28.47,2.87,8.9,9.76,16.7,18.96,21.33,8.7,4.38,18.01,5.23,26.26,2.46,12.63-4.23,21.63-14.49,31.19-25.3,3.32-3.77,6.74-7.65,10.31-11.22.55-.6,1.36-.8,2.11-.7.4-3.87.96-7.75,1.81-11.52.8-3.77,1.86-7.5,2.97-11.17-.1-.05-.15,0-.25-.05-5.94-2.46-7.24-3.02-13.08-4.93-6.14-2.01-14.54-3.17-23.59-3.17-7.5,0-15.44.8-23.04,2.46ZM34.42,377.49c-9.91,2.26-17,8.85-21.13,19.57-4.33,11.17-.45,23.54,9.41,30.13,8.55,5.68,19.22,6.79,29.58,7.9,3.57.35,7.24.75,10.82,1.31,17.71-3.92,37.22-3.12,49.3.86,5.94,1.96,7.44,2.62,13.08,4.93.05,0,.1.1.2.1,1.81-5.18,3.92-10.26,6.34-15.19-7.55-5.53-17.05-13.48-25.6-21.53-15.49-14.44-48.99-33.35-71.98-28.07ZM25.77,290.22c-7.9,1.96-13.68,6.24-17.15,12.68-4.48,8.3-4.78,19.57-.86,31.04,6.24,17.91,16.05,28.52,35.01,37.63,23.74,0,52.37,16.65,67.05,30.33,8.2,7.65,17.2,15.19,24.45,20.62,3.87-7.29,8.35-14.19,13.33-20.67-20.47-18.31-36.92-38.83-51.56-64.54-3.92-6.89-7.6-14.19-9.41-22.03-18.16-15.85-37.78-30.89-60.87-25.05ZM33.72,372.51c-15.74-9-24.9-20.12-30.68-36.97-4.43-12.73-3.97-25.55,1.16-35.06,4.12-7.6,11.17-12.83,20.32-15.14,23.54-5.94,43.11,7.14,61.02,22.38-.05-.96-.1-1.96-.1-2.92.15-7.7,3.22-15.95,8.3-23.24-4.68-15.85-8.3-31.64-10.71-47.03-6.59-41.95-7.85-104.08,23.79-162.08,11.52-21.13,24.09-37.17,38.38-49.05C164.85,7.12,185.13-.43,207.01.02c23.59.55,42,11.57,49.3,29.38.5,1.21.86,2.41,1.21,3.62,20.72-7.85,41.6-11.52,65.59-11.52s47.33,4.33,69.37,13.08c.45-1.76.96-3.47,1.66-5.18C401.43,11.59,419.89.58,443.43.02c21.78-.5,42.15,7.09,61.82,23.39,14.29,11.87,26.86,27.92,38.43,49.05,31.59,58,30.33,120.12,23.74,162.08-4.58,29.23-13.38,59.11-25.4,87.02,5.43-2.92,8.6-4.73,8.75-4.83,4.43-2.62,8.6-5.53,12.37-8.6,2.16-1.81,4.43-3.67,6.44-5.68.96-.96,1.91-2.01,2.77-3.12,1.06-1.36,1.66-2.11,1.76-2.97.05-.45,0-.96,0-1.46,0-.6-.05-1.21,0-1.81l.1-1.31c.05-.86.1-1.71.15-2.52.55-6.84,1.51-12.27,3.07-17.2,1.41-4.58,3.92-11.07,9.51-14.03,3.82-2.06,8.45-1.86,13.38.55,2.52,1.26,4.93,3.02,7.39,5.43l.91.91c1.76,1.81,2.77,2.72,4.53,3.02,4.28.65,8.85-2.26,11.87-4.58,2.62-1.96,6.04-3.42,9.41-4.02,3.12-.55,5.99,0,8.25,1.61,2.62,1.86,4.38,5.03,5.03,9.1.6,3.77.96,9.1-.65,13.38-1.11,2.87.7,5.13,1.86,6.19,1.16,1.01,3.22,1.96,5.43,2.97,5.23,2.31,12.37,5.53,11.37,13.13-.7,5.43-5.28,9.36-10.11,12.78-2.72,1.41-6.69,4.33-7.14,6.84-.05.5-.05,1.36.96,2.46.4.5,6.39,8.35,2.36,15.09-4.73,7.95-20.52,9.61-48.19,5.23-6.24,6.59-43.16,44.67-89.49,74.7-22.89,14.84-31.24,34.26-24.85,57.8,8.9,32.8,17.35,68.56,19.06,107.8,2.62,3.12,5.28,6.29,7.9,9.41l24.25,28.57c2.11,2.57,2.41,6.09.8,8.95-1.46,2.67-4.12,4.28-7.04,4.28-.35,0-.7-.05-1.06-.1l-26.36-3.42c-1.51,12.42-3.77,23.44-7.44,35.16-4.53,14.54-12.17,27.77-19.57,40.54l-.35.65c-1.01,1.76-2.26,3.77-3.67,5.94-5.73,9.1-13.53,21.48-12.02,30.03,2.21,2.01,4.88,5.73,3.37,9.76-1.16,3.27-4.38,11.97-57.04,11.97-11.02,0-24.25-.35-40.04-1.26-7.09-.4-12.83-5.63-14.99-13.63-14.44-54.18-30.84-51.31-30.99-51.21-11.22.6-24.65,31.79-30.63,51.31-.91,7.24-7.24,13.08-14.94,13.53-91.3,5.13-95.68-6.79-97.08-10.71-1.46-4.02,1.16-7.75,3.37-9.76,1.51-8.55-6.29-20.93-12.02-30.03-1.41-2.16-2.67-4.18-3.67-5.94l-.35-.65c-7.39-12.78-15.04-26.01-19.57-40.54-5.94-19.06-9.05-40.64-9.31-64.14-.1-12.88.6-26.56,2.16-40.54-1.71-.55-3.47-1.06-5.23-1.56-14.34-4.28-30.58-9.1-40.14-21.48-8.1-10.46-10.31-24.7-6.54-38.58-3.92,2.82-8.1,5.18-12.78,6.74-3.67,1.26-7.55,1.86-11.47,1.86-6.24,0-12.58-1.56-18.66-4.63-10.41-5.23-18.21-14.08-21.53-24.25-4.23-13.18-1.81-24.8,7.09-33.6,4.78-4.73,11.12-8.4,18.16-11.12-10.71-1.11-21.68-2.36-31.04-8.6-11.82-7.9-16.5-22.74-11.32-36.12,4.78-12.37,13.13-19.97,24.7-22.64.15-.05.3-.05.45-.1Z"/>
</svg>