<?xml version="1.0" encoding="UTF-8"?>
<svg id="_레이어_1" data-name="레이어 1" xmlns="http://www.w3.org/2000/svg" viewBox="0 0 414.99 440.47">
  <defs>
    <style>
      .cls-1 {
        fill: #e5a729;
      }

      .cls-1, .cls-2 {
        stroke-width: 0px;
      }

      .cls-2 {
        fill: #fff;
      }
    </style>
  </defs>
  <g>
    <path class="cls-1" d="M111.38,186.06c0-1.34.15-2.53.15-3.72-1.34,0-2.67-.15-3.86-.3-19.02-1.49-28.09-4.9-31.06-12.33-3.12-8.47-3.12-20.21,0-28.68,2.97-7.58,10.55-11.15,23.03-12.04,11.15-.59,64.2-.74,75.34-.15,12.33.59,19.32,3.42,19.32,9.36s-6.24,9.36-19.32,9.36h-51.27c1.34,2.82,1.78,6.54,1.19,9.21-4.31.89-7.13,1.19-10.25,2.23-1.93.59-1.19,3.86,1.34,3.27,20.51-4.31,46.66-6.69,57.51-6.69,13.37,0,22.44,3.12,23.93,12.04,1.04,6.54-2.67,12.19-16.05,13.52-6.09.59-12.78,1.04-19.76,1.34,0,1.04.15,2.23.15,3.57v.89c9.51-.3,18.87-.74,27.64-1.34,8.62-.45,13.82,4.16,13.82,9.96,0,6.84-5.2,10.25-13.97,10.85-32.84,2.23-73.71,2.23-105.51,0-8.47-.74-13.67-4.01-13.67-10.85,0-5.8,5.2-10.4,13.67-9.96,8.62.59,17.98,1.04,27.64,1.34v-.89ZM136.64,211.47c37.75,0,60.63,5.65,60.63,26.15s-22.88,26.15-60.63,26.15-60.78-6.54-60.78-26.15,22.89-26.15,60.78-26.15ZM133.37,248.77c5.8-4.46,9.06-12.04,11.29-19.17,1.19-3.27-3.12-4.16-4.01-1.93-2.23,6.84-5.35,12.48-10.85,18.13-1.63,1.49,1.04,4.9,3.57,2.97Z"/>
    <path class="cls-1" d="M231.31,230.34c-10.85.59-15.01-4.61-15.01-11.44,0-6.39,4.16-11,12.19-10.55,7.73.59,15.9.89,24.22,1.19-.15-1.34-.15-2.67-.15-4.16v-2.08c-9.66-.3-19.02-.74-27.64-1.49-8.47-.59-13.67-3.72-13.67-10.4,0-5.65,5.2-10.25,13.67-9.66,31.8,2.08,72.67,1.93,105.66,0,8.62-.59,13.82,4.01,13.82,9.66,0,6.69-5.2,9.96-13.97,10.4-8.77.74-17.98,1.19-27.49,1.49v2.08c0,1.49,0,2.97-.15,4.31,8.47-.3,16.64-.74,24.37-1.34,8.17-.45,12.04,3.27,12.04,9.06,0,4.9-3.71,9.06-9.06,9.21-16.5.3-32.4,4.9-42.8,12.19-1.93,1.34-.74,4.31,1.63,2.82,9.21-5.35,20.36-10.25,32.4-10.7,11.89-.15,19.02,5.5,19.02,14.42,0,9.36-7.13,13.37-20.51,14.27-28.83,1.93-61.37,1.63-88.57-.15-10.25-.59-16.35-3.42-16.35-11.15,0-8.92,7.43-13.82,17.83-14.56,9.21-.89,17.68-1.93,27.04-5.05,2.08-.74,1.04-4.31-1.04-3.42-8.62,2.82-18.28,4.61-27.49,5.05ZM217.04,141.62c1.49-6.39,5.2-8.77,12.93-9.96,28.98-4.01,66.72-4.01,95.7,0,7.88,1.19,11.44,3.57,12.78,9.96,1.63,7.13,1.78,17.68-.45,25.71-1.63,6.39-4.46,8.92-12.33,9.66-29.42,3.27-66.28,3.27-95.7,0-7.73-.74-10.7-3.27-12.48-9.66-2.08-8.02-1.93-18.58-.45-25.71ZM267.27,155.29c6.69,3.72,14.56,3.57,21.25,0,1.34-.74,2.08-1.78,1.63-3.27-.45-1.19-1.93-2.23-3.42-1.49-5.2,2.97-12.78,2.82-18.13-.15-.89-.59-2.67-.15-3.27,1.19-.89,1.49-.15,2.67,1.93,3.71Z"/>
    <path class="cls-1" d="M19.54,341.5c-11.29-.45-16.94-5.8-16.94-12.48s5.65-12.04,16.94-12.48c1.19,0,2.53-.15,3.72-.15-1.93-1.93-2.38-4.31-2.38-6.09,0-5.35,8.32-9.66,20.81-9.66s20.8,4.31,20.8,9.66c0,1.78-.45,4.01-2.08,5.94,2.23.15,4.61.15,6.98.3,11.29.45,16.5,6.09,16.5,12.48s-5.2,12.04-16.5,12.48c-.74,0-1.63.15-2.38.15,2.82,2.53,6.84,4.61,11.15,6.98,5.8,3.12,10.11,8.62,9.06,22.59-1.04,15.46-5.94,18.13-16.64,18.13-13.67,0-18.43-2.38-18.43-18.13,0-9.21-1.34-15.01-7.73-20.06-2.67-2.08-4.9,1.19-2.08,3.12,4.46,2.82,5.35,9.06,5.35,18.13,0,14.27-5.65,16.64-22.14,16.64-14.27,0-22.89-5.05-23.48-18.58-.59-11.89,2.38-17.83,11-21.84,4.61-2.23,8.17-4.16,10.1-6.98-.59,0-1.04-.15-1.63-.15ZM24,391.73c11.74-1.78,24.37.89,28.23,10.4,2.53,6.24,2.23,16.35-3.42,20.51-2.08,1.34-.45,4.31,1.63,2.67,15.75-10.85,34.18-22.29,56.47-22.29,11,0,20.66,3.27,21.99,13.97,1.19,11.44-5.05,18.43-22.44,20.51-18.58,2.38-46.22,2.67-74.3,1.04-17.39-1.19-26.6-10.4-26.6-22.59,0-15.01,7.43-22.44,18.43-24.22ZM88.49,321.44c-1.49-12.19,6.24-17.54,18.28-17.54,10.4,0,17.68,4.61,19.02,14.56,2.67,16.79,2.67,49.63,0,66.28-1.34,9.96-8.62,14.56-19.02,14.56-12.04,0-19.76-5.35-18.43-16.2,2.38-16.5,2.38-46.37.15-61.67Z"/>
    <path class="cls-1" d="M154.33,409.86c-8.47-.59-13.67-6.54-13.67-15.6,0-7.43,5.2-15.01,13.67-14.27,17.98,1.78,38.64,2.53,59.29,2.23-.89-2.08-1.34-4.16-1.19-6.69.59-9.06,2.82-15.16,6.54-21.55,4.01-.74,7.28-1.63,10.4-2.67,2.82-.89,1.63-4.75-1.04-3.86-23.93,7.73-41.16,6.69-59.44,3.86-11.89-1.93-23.03-7.88-23.03-19.76,0-23.63,24.82-25.11,53.65-25.11,25.26,0,50.23,2.68,57.96,18.58,9.21,18.72,7.28,39.83-.15,55.28.89-.15,1.78-.15,2.67-.3,8.62-.59,13.82,6.84,13.82,14.27,0,9.06-5.2,15.01-13.97,15.6-9.07.74-18.58,1.49-28.53,1.78.74,2.53,1.04,5.65,1.04,9.66,0,16.64-5.65,19.17-25.11,19.17s-25.26-2.53-25.26-19.17c0-4.01.3-7.13,1.04-9.66-10.11-.3-19.76-.89-28.68-1.78Z"/>
    <path class="cls-1" d="M295.51,361.27c31.8,2.08,72.67,1.93,105.66,0,8.62-.59,13.82,4.31,13.82,9.66,0,6.84-5.2,10.11-13.97,10.55-32.84,2.38-73.71,2.38-105.51,0-8.47-.59-13.67-3.71-13.67-10.55,0-5.35,5.2-10.25,13.67-9.66ZM301.9,408.67c-10.85.59-15.01-4.61-15.01-11.44,0-6.39,4.16-11,12.19-10.55,30.46,2.23,68.21,2.23,98.67,0,8.17-.45,12.04,3.27,12.04,9.07,0,4.9-3.71,9.06-9.07,9.21-16.5.3-32.4,4.9-42.8,12.19-1.93,1.34-.74,4.31,1.63,2.82,9.21-5.35,20.36-10.25,32.4-10.7,11.89-.15,19.02,5.5,19.02,14.42,0,9.36-7.13,13.37-20.51,14.27-28.83,1.93-61.38,1.63-88.57-.15-10.25-.59-16.35-3.42-16.35-11.15,0-8.92,7.43-13.82,17.83-14.56,9.21-.89,17.68-1.93,27.05-5.05,2.08-.74,1.04-4.31-1.04-3.42-8.62,2.82-18.28,4.61-27.49,5.05ZM326.42,335.56c-1.93.59-1.19,3.86,1.34,3.27,20.51-4.46,46.66-6.69,57.51-6.69,13.37,0,22.44,2.53,23.92,11.29,1.04,6.24-2.67,11.44-16.05,12.78-23.48,2.53-56.32,2.23-73.71.74-19.02-1.34-27.94-4.31-31.06-11.89-2.97-7.58-2.97-18.28,0-26.01,3.12-7.43,10.55-10.85,23.03-11.74,11.15-.59,64.2-.74,75.34-.15,12.33.59,19.32,2.97,19.32,8.62s-6.24,8.77-19.32,8.77h-51.27c1.34,2.67,1.78,6.09,1.19,8.62-4.31.89-7.13,1.19-10.25,2.38Z"/>
  </g>
  <g>
    <path class="cls-2" d="M41.09,35.67c12.81-5.58,22.26-1.91,27.16,9.33,4.87,11.17,1.13,20.66-11.67,26.23-12.74,5.55-22.29,1.85-27.16-9.33-4.9-11.24-1.07-20.69,11.67-26.24ZM54.27,75.23l6.44,14.78c.47,1.09,1.58,1.58,2.67,1.11l38.9-16.94,1.36,3.13-48.3,21.03c-4.5,1.96-8.83.2-10.79-4.3l-5.34-12.26,15.06-6.56ZM53.26,51.52c-4.9-11.24-7.4-14.93-11.07-13.33-3.61,1.57-2.61,5.92,2.29,17.16,4.87,11.17,7.4,14.93,11.01,13.36,3.68-1.6,2.65-6.02-2.22-17.19ZM63.32,26.79l15.06-6.56,7.56,17.37,5.31-2.31,1.66,3.81-5.31,2.31,10.62,24.39-15.06,6.56-19.84-45.58Z"/>
    <path class="cls-2" d="M103.73,44.28c-4.21-21.36.03-33.25,13.23-35.85,13.19-2.6,21.71,6.78,25.92,28.14,4.21,21.36.62,33.12-13.3,35.87-13.85,2.73-21.63-6.79-25.85-28.15ZM127.13,39.66c-4.51-22.89-6.51-29.16-9.64-28.54-3.06.6-2.53,7.16,1.99,30.05,4.51,22.89,6.51,29.16,9.57,28.56,3.13-.62,2.6-7.18-1.91-30.07ZM139.9,5.34l16.11-3.18,5.13,26.02,6.34-1.25.8,4.08-6.34,1.25,6.14,31.13-16.11,3.18-12.07-61.23Z"/>
    <path class="cls-2" d="M175.44,40.08l64.18,1.46-.08,3.42-23.55-.54-.43,18.87-17.08-.39.43-18.87-23.55-.53.08-3.42ZM175.67,29.83c13.59.31,23.33-6.16,23.71-22.8l.07-3.12-21.84-.5.08-3.42,61.5,1.4-.08,3.42-21.99-.5-.07,3.12c-.48,21.32-20.2,25.55-41.44,25.07l.06-2.67ZM229.56,16.19c5.12.12,8.54,3.76,8.42,8.89-.12,5.27-3.69,8.69-8.82,8.57-5.35-.12-8.76-3.69-8.64-8.97.12-5.13,3.69-8.61,9.04-8.49Z"/>
    <path class="cls-2" d="M240.26,59.62c5.27,1.28,10.08-4.67,12.87-16.23l9.28-38.35,13.29,3.21-9.28,38.35c-.37,1.52-.95,2.98-1.57,4.28.6.07,1.19.14,1.77.27,4.91,1.19,7.41,5.39,6.22,10.3-1.21,4.98-5.35,7.58-10.26,6.39-4.12-1-6.54-3.95-6.62-7.72-4.93,2.71-10.86,3.49-16.35,2.16l.64-2.67ZM280.2,38.32l-7.8-1.89.98-4.04,7.8,1.89,5.64-23.33,14.01,3.39-14.5,59.95-14.01-3.39,7.88-32.57ZM303.14,14.89l14.59,3.53-14.67,60.67-14.59-3.53,14.67-60.67Z"/>
    <path class="cls-2" d="M307.39,76.86l9.22,4.49,8.55-17.57c-4.72-6.6-4.57-13.54-1.15-20.56,5.82-11.96,17.44-16.31,38.35-6.13,20.92,10.18,24.67,22,18.85,33.96-3.41,7.02-8.78,11.43-16.89,11.78l-7.93,16.3c-.36.73-.15,1.5.58,1.85l8.15,3.97-1.5,3.07-57.73-28.09,1.5-3.07ZM341,93.21l6.73-13.83c-1.6-.61-3.21-1.39-4.88-2.21-1.67-.81-3.28-1.59-4.75-2.47l-6.73,13.83,9.62,4.68ZM366.43,63.86c4.97-10.22,3.65-19.21-5.57-23.7-9.22-4.49-17.12.02-22.09,10.24-5.01,10.29-3.65,19.22,5.57,23.7,9.22,4.49,17.08.05,22.09-10.24Z"/>
  </g>
</svg>